<mxfile host="65bd71144e">
    <diagram id="wB4ux2xxOVD74Gsi1QlB" name="Page-1">
        <mxGraphModel dx="1200" dy="464" grid="1" gridSize="10" guides="1" tooltips="1" connect="1" arrows="1" fold="1" page="1" pageScale="1" pageWidth="827" pageHeight="1169" math="0" shadow="0">
            <root>
                <mxCell id="0"/>
                <mxCell id="1" parent="0"/>
                <mxCell id="mpS9ybs72e7zDFPst3Do-28" value="&lt;b&gt;&lt;br&gt;&lt;/b&gt;" style="rounded=0;whiteSpace=wrap;html=1;fillColor=default;strokeColor=none;" parent="1" vertex="1">
                    <mxGeometry x="428" y="1697" width="972" height="602" as="geometry"/>
                </mxCell>
                <mxCell id="1LlXbSwlNms4GWx0Jfwh-1" value="&lt;b&gt;POD&lt;br&gt;&lt;br&gt;&lt;br&gt;&lt;br&gt;&lt;br&gt;&lt;br&gt;&lt;br&gt;&lt;br&gt;&lt;/b&gt;" style="rounded=0;whiteSpace=wrap;html=1;fillColor=default;" parent="1" vertex="1">
                    <mxGeometry x="312.54" y="1217.8099999999997" width="360" height="140.45" as="geometry"/>
                </mxCell>
                <mxCell id="1LlXbSwlNms4GWx0Jfwh-4" style="edgeStyle=orthogonalEdgeStyle;rounded=0;orthogonalLoop=1;jettySize=auto;html=1;dashed=1;" parent="1" source="1LlXbSwlNms4GWx0Jfwh-2" target="1LlXbSwlNms4GWx0Jfwh-3" edge="1">
                    <mxGeometry relative="1" as="geometry"/>
                </mxCell>
                <mxCell id="1LlXbSwlNms4GWx0Jfwh-2" value="PEP" style="shape=image;verticalLabelPosition=bottom;labelBackgroundColor=default;verticalAlign=top;aspect=fixed;imageAspect=0;image=data:image/png,iVBORw0KGgoAAAANSUhEUgAAAOEAAADhCAMAAAAJbSJIAAAAyVBMVEX///8gwu8No8Y5TVQOrNEMlrdj1fQfxfM7REg7QkUJmbs6SlAgO0Q6RUjt7u/o6uomQEgit+EpnsAxfZQmqc4sk7ErmLgqa30mc4gyYG4je5Qui6hl2/s6SE02QEQwRk40x/BX0fPKztA4UlvAxcezubtKzfI0WWQvhJ5PYGbV2NmnrrGMlZl5hIhndHkwxvAzcISbo6Zbwd1Cc4JfzOpLkKRZaG1Qn7WssrVavdhzf4NJiZtGWF5Wr8g2VF5Eeoo7OjlEbHgwX22MRMweAAAL3UlEQVR4nO2da1ubShSFG0CHhKCJJs3NSWqjReOlai/ao6bq//9Rh2uA2cNlYIAZnq6P54k9vBL2XmsPznz69E//9E9RbW4uL282TV9Fddr87q9UddX//bXpK6lGX10+R6v+5VnTV8NfZ5cBn6vWMZ69DFRCA/W86avip3PI5zE+NX1lfPS0ovK5jIOrpq+uvK7URD6XcXXf9BWW0sH9gOAzlksj/l9W/fuDpq+zqA6uByuS78efhx+AcXAtJePBdR/w/X042d8/efgL7+P1YdPXy6rDG5IPe3yOTn7+XWKS8UYqRhrfc8DnMT5Dxv+kMaybW8CHn396fN86nW8BIwaMt1IwUviWET5HAeMvEzIKb8pDe73jM37tx/gijPu/VJNkvBSaEfKZNL4o46P9kfiPCGzKz14IPkNfP/p8XzpAX059xrVOMr4IacrPX/pqAt8phS/GuF3Gf1TE4PEE7Ody+3qSeP8IxpNXizQBggUPYK+NpeXzJd2/HIwrYYLHPRmPjOUsJ5+j7wHjDDKKEDxo8eH91ft6nn7P5gsZ90/+vItnymnx4f0PG5/IjIeU+PDjD7X9ZctnpISrxoIHtNfGLj6csvI58k3AgyDBIy0eMd8/glGE4LH5L9Nel2SkmPIaGTPiUTntgkdz4YoaH3jxRRj3fxmAsY4Vj5zxiA8jCB7Vr3gQqw+2dPWRN5+jLwEjJXhUyHgG44OaEo94MYLgUVW4Oof2evuYHR9KMKaY8goYQTzKHx8qYVQ5B4+rcvGhuHbBAxjWwYBj8KDEo/eAj8Fel2GkmXI7XHEx5XY84hIfODBWsuJBX13x20MtfK6C4EFb8SjFSItHpeJDcVUSPKjxgac9K8RIWw0oxnhYVXzgwMgjXFUaH0oz0kw5W/Cg8XGND5Uw5g8elNUHlXt8KM/4qOogeORi3JB8hllNfCiuiCkHqzrZ39WvgC9r9aEJBYYVrnj0s7LVQdyfVR0fisu/j9CU9zMcwPUqxld9fCiuhOCxukknjPHVEx+K6ws1eKzyfkmN+uJDcYWmPERM/5pGH0OvwIjM58hltG/jOiRMtXBRQqw+nojO5+j76clrtKTmJ1RVff0ZoaYBsoSQYsVaRk5Cy/NEpqWIzYjQaOZZm6XFRGgoi63LaHRnI4EZ0XDS9fjWjycGG6GiXKx9xokmKCIa3nn3DxtOWWQmVJS54TPeDQVkRJ1j3b0+bHq5oAChokwN73fUPRaNEXUuTJ/v2fPN33ARQpvR/x7gi45AjAgt/O9XMFex+1pBQqU38RnNhSiMCH323vgzlj9+hr6rKKEy2vMZTXUsQllF6Gire3zvD9HcU5hQUbQ9v+eY66OmGe0GaPkN0J9L73JBCUJbY0v3LUCj7THS4LevZG4tR6hoIlgAuwEGDd4PPtG5SknCiAXQJ820DjQMCrv6CPl4ENqManMWwG7wfgPE/uCPnIvxIFSUY68N1W4BUGcR8D3T+XgR2hbArN8CIDT2vz3BwgItuPIiVJQJ9hlrsgCRBv83mY8n4c7mmGoNCdlu8JZJa/BVEjoWwPuu6lVbANjgkwe3PAmV0ALoVVoAhLRdggcNvmpCZbTw3WF1FiC9wVdOqESnAFW0jqwG3yHrXAWEijIPLMCUN2N2g0edUQ2Eu0mHbQF4to4wwQcN/pT8BDpavx3F/pcVEVZhAXI0eDdjmJ/rIYxYgDEPxhwN3ilBWLXqIwwtQPkheWKCj3zEeUTxpDfp1kcYTgH0bSkLkJLgw4+MsWnOxr16Ce326FsAQy/eHvM0eOcWY2vR6+3VTchhCpCnwaOjN7ye23x7DRAq5SxAdoN3PzXWZy5fQ4SRhQBGCxBpgAkNPiDsTmzAnqI0RRi1APkZwwRvJjT4GGFP0bQGCdkXAiINPmiA8FcQEk41R40Ssk0BEkb0sY8Mx0PBCPNPAaIJPrEBLnB3gQQjDKcAqQsBuRr8kWoaWDxCJcdCgDOi76Y3ePdXgLczU0hCZbSw0qYAORq8s0yPjWlvqotJqKQtBOwavJnY4N1lbDzZ64lMmLQQEK7B48ekBm87bGx+jB0HKjThbtIRsQDQwJwCvg5Susb2wnOgghOGFsB0LUBkDT5lRG977O6HxycBoaLc4fBdgHwjeofQdaAOiwSEtgUI2mPOEb1H2PNYZCAMpwDpBiZOGLBIQWhr/OH/3XLaiH7XOGUkVLSF5SAG7xhQEiAaHgcv0UlJaDPaJsf8mZRwnSFa91huQsUlTOBDY8P22O0gPKXxHa11bE1M2QntVqE/UBqgEzOwOu/NdckJNZvQHJJ43pTezhA96Qk1t9IAQnRhuhnCdjCSE2p0QjR6M9wMIT2hlkgYemypCbVUQt9jy0yopRP6HltiQi2dMLhqeQm1dMKZ9IRa2wm1thNqLSfUtJYTjtpOqGktJ9TaTkgCto4QALaNEAK2jJAC2C5CGmCrCKmAbSKkA7aIMAGwNYRJfK0hTAZsCWEKYDsI0wBbQZgK2AbCdMAWEGYAyk+YBSg9YSag7ITZgJIT5gCUmzAPoNSEuQAlJszHJzFhXkBpCXMDykqYH1BSQgZAOQlZAKUkZAKUkZANUEJCRkD5CFkBpSNkBpSMkJ1PMsJRIkZLCIvwSUVYDFAiwoKA8hAWBeRLqFdHWBiQI+H4w6juHhYH5EaoTHTnzxlj4kdYApAX4RxjuP8mN8IygFwIhwtVd/48nPhXEBvhbK8SQA6E+uRDp2xjgIZ3TDuWq4Y5qQKQAyE2KPtuo85xN/j7zYyDZsJjZgxjzp2Py7dUB9vCOFtH4d2FD1IBP91GTtLB6wstDljIinIl7AwX5DkGzu5gZnjVq9t0wk3stFhsjUc87yAHwg54AEez2Nld/axzu65jiIY56/EE5EBI/GywucYOMOMwJFv38UO7DH3KEZAzIepcdHH0alf9PMevbn7HzzU21Dk3wIKEEyqh82e1MT61/zvnEYFfX+Jnk+H1gg9fIUJtYeHuGBAipHjbD4ZFlOU866dV/Hw5+3FsitB2oCaGtxAN4wVGXQ0Yz0C+Jh/HSTOVZqrTtkZFw+N4gSlypuwBcQ6pgY/rJ7wwdMou/rvt3cIH8L9CZ61uLuMlB6sXtRKalqU7W02DB9DfHSXky3GuY4LOiOPG9e24TkKDcmiYszdWnG+gljpo/Yo40lKf1Zee3nS4od3uCKvwASx9ADlZcrqlSk5+wk7nM+TrcCgwUIe3hAPA83oI4QO4II5z7t8WPrA6LlhyCjsAFkKS72hNPID5DsfNJ7LkmNZezYR2hCD4VqUKDNT9gIsDKEgIIgSHAgN0QJy0bphT7oS9Xrh7S/QDwf5uId8NhwIDRZYcbLA7gFRCbb4O9/GMPICFIwS7YOhgdQBphHsWdvY7JflAgWGJEOw6HxAO4IMtdCQTKjMdwxaPtBnxAA6equRzVK7kJBLaGUIHGYJSYK6r5vtEKTmYoeTQCfW1im1KMAQFBaZYhGAXOedgKDl0QpNyaK0dIeorMFCg5OQNHdRdlLQ3cLKiu71uvMColRYYKHLOoedzOfR9oobwASQjBOuMgocKzTmohJD4WK8gQrDrEMw5sktODsIKIwS72EtOJqG7f3ecr/iMgofI0JFVcjIIKTMK3hGCXVdMLiedEA2Bg+EfIdh1wFJy0gidzT2JAlNNhGAXmHOYiaPVZELKELS5AgO1uSQex6TRahIhHIIOXjjOKHjonHQA9JJDJ4QFZtV8gYG6J0vO7Cgnoe1gyFUWEQoMFJxz3OXZY8jZY1/QAgO1yRytAkK7wJAOps4Iwa6sxVWCkDKjqDtCsIssOfHRapyQEpEqn1HwEPmugxlxAFFCNLwjH0AxCwwUKDn6FBJSVlnELTBQiaEjIKx1CFqNzuglxyMkXtRSKx+CViPwPofV8wl3xxzuvqCrBmYUPEQJHfadw9q0iSFoNYKjVfcLy+U9ClFElhyghmcUPESWnHiBEd/B5NETETrCB1DQCFFARMmRv8BAkaNVVbAZBQ8R73NwfY9CFEVGqyVf1BJX/itk8kQIdh3cr/r9VTOrLLXpsPb68j9kmcfHWbANEQAAAABJRU5ErkJggg==;fontStyle=1" parent="1" vertex="1">
                    <mxGeometry x="340.08000000000004" y="1245.8099999999997" width="80" height="80" as="geometry"/>
                </mxCell>
                <mxCell id="1LlXbSwlNms4GWx0Jfwh-3" value="PDP" style="shape=image;verticalLabelPosition=bottom;labelBackgroundColor=default;verticalAlign=top;aspect=fixed;imageAspect=0;image=data:image/png,iVBORw0KGgoAAAANSUhEUgAAAOEAAADhCAMAAAAJbSJIAAAAyVBMVEX///8gwu8No8Y5TVQOrNEMlrdj1fQfxfM7REg7QkUJmbs6SlAgO0Q6RUjt7u/o6uomQEgit+EpnsAxfZQmqc4sk7ErmLgqa30mc4gyYG4je5Qui6hl2/s6SE02QEQwRk40x/BX0fPKztA4UlvAxcezubtKzfI0WWQvhJ5PYGbV2NmnrrGMlZl5hIhndHkwxvAzcISbo6Zbwd1Cc4JfzOpLkKRZaG1Qn7WssrVavdhzf4NJiZtGWF5Wr8g2VF5Eeoo7OjlEbHgwX22MRMweAAAL3UlEQVR4nO2da1ubShSFG0CHhKCJJs3NSWqjReOlai/ao6bq//9Rh2uA2cNlYIAZnq6P54k9vBL2XmsPznz69E//9E9RbW4uL282TV9Fddr87q9UddX//bXpK6lGX10+R6v+5VnTV8NfZ5cBn6vWMZ69DFRCA/W86avip3PI5zE+NX1lfPS0ovK5jIOrpq+uvK7URD6XcXXf9BWW0sH9gOAzlksj/l9W/fuDpq+zqA6uByuS78efhx+AcXAtJePBdR/w/X042d8/efgL7+P1YdPXy6rDG5IPe3yOTn7+XWKS8UYqRhrfc8DnMT5Dxv+kMaybW8CHn396fN86nW8BIwaMt1IwUviWET5HAeMvEzIKb8pDe73jM37tx/gijPu/VJNkvBSaEfKZNL4o46P9kfiPCGzKz14IPkNfP/p8XzpAX059xrVOMr4IacrPX/pqAt8phS/GuF3Gf1TE4PEE7Ody+3qSeP8IxpNXizQBggUPYK+NpeXzJd2/HIwrYYLHPRmPjOUsJ5+j7wHjDDKKEDxo8eH91ft6nn7P5gsZ90/+vItnymnx4f0PG5/IjIeU+PDjD7X9ZctnpISrxoIHtNfGLj6csvI58k3AgyDBIy0eMd8/glGE4LH5L9Nel2SkmPIaGTPiUTntgkdz4YoaH3jxRRj3fxmAsY4Vj5zxiA8jCB7Vr3gQqw+2dPWRN5+jLwEjJXhUyHgG44OaEo94MYLgUVW4Oof2evuYHR9KMKaY8goYQTzKHx8qYVQ5B4+rcvGhuHbBAxjWwYBj8KDEo/eAj8Fel2GkmXI7XHEx5XY84hIfODBWsuJBX13x20MtfK6C4EFb8SjFSItHpeJDcVUSPKjxgac9K8RIWw0oxnhYVXzgwMgjXFUaH0oz0kw5W/Cg8XGND5Uw5g8elNUHlXt8KM/4qOogeORi3JB8hllNfCiuiCkHqzrZ39WvgC9r9aEJBYYVrnj0s7LVQdyfVR0fisu/j9CU9zMcwPUqxld9fCiuhOCxukknjPHVEx+K6ws1eKzyfkmN+uJDcYWmPERM/5pGH0OvwIjM58hltG/jOiRMtXBRQqw+nojO5+j76clrtKTmJ1RVff0ZoaYBsoSQYsVaRk5Cy/NEpqWIzYjQaOZZm6XFRGgoi63LaHRnI4EZ0XDS9fjWjycGG6GiXKx9xokmKCIa3nn3DxtOWWQmVJS54TPeDQVkRJ1j3b0+bHq5oAChokwN73fUPRaNEXUuTJ/v2fPN33ARQpvR/x7gi45AjAgt/O9XMFex+1pBQqU38RnNhSiMCH323vgzlj9+hr6rKKEy2vMZTXUsQllF6Gire3zvD9HcU5hQUbQ9v+eY66OmGe0GaPkN0J9L73JBCUJbY0v3LUCj7THS4LevZG4tR6hoIlgAuwEGDd4PPtG5SknCiAXQJ820DjQMCrv6CPl4ENqManMWwG7wfgPE/uCPnIvxIFSUY68N1W4BUGcR8D3T+XgR2hbArN8CIDT2vz3BwgItuPIiVJQJ9hlrsgCRBv83mY8n4c7mmGoNCdlu8JZJa/BVEjoWwPuu6lVbANjgkwe3PAmV0ALoVVoAhLRdggcNvmpCZbTw3WF1FiC9wVdOqESnAFW0jqwG3yHrXAWEijIPLMCUN2N2g0edUQ2Eu0mHbQF4to4wwQcN/pT8BDpavx3F/pcVEVZhAXI0eDdjmJ/rIYxYgDEPxhwN3ilBWLXqIwwtQPkheWKCj3zEeUTxpDfp1kcYTgH0bSkLkJLgw4+MsWnOxr16Ce326FsAQy/eHvM0eOcWY2vR6+3VTchhCpCnwaOjN7ye23x7DRAq5SxAdoN3PzXWZy5fQ4SRhQBGCxBpgAkNPiDsTmzAnqI0RRi1APkZwwRvJjT4GGFP0bQGCdkXAiINPmiA8FcQEk41R40Ssk0BEkb0sY8Mx0PBCPNPAaIJPrEBLnB3gQQjDKcAqQsBuRr8kWoaWDxCJcdCgDOi76Y3ePdXgLczU0hCZbSw0qYAORq8s0yPjWlvqotJqKQtBOwavJnY4N1lbDzZ64lMmLQQEK7B48ekBm87bGx+jB0HKjThbtIRsQDQwJwCvg5Susb2wnOgghOGFsB0LUBkDT5lRG977O6HxycBoaLc4fBdgHwjeofQdaAOiwSEtgUI2mPOEb1H2PNYZCAMpwDpBiZOGLBIQWhr/OH/3XLaiH7XOGUkVLSF5SAG7xhQEiAaHgcv0UlJaDPaJsf8mZRwnSFa91huQsUlTOBDY8P22O0gPKXxHa11bE1M2QntVqE/UBqgEzOwOu/NdckJNZvQHJJ43pTezhA96Qk1t9IAQnRhuhnCdjCSE2p0QjR6M9wMIT2hlkgYemypCbVUQt9jy0yopRP6HltiQi2dMLhqeQm1dMKZ9IRa2wm1thNqLSfUtJYTjtpOqGktJ9TaTkgCto4QALaNEAK2jJAC2C5CGmCrCKmAbSKkA7aIMAGwNYRJfK0hTAZsCWEKYDsI0wBbQZgK2AbCdMAWEGYAyk+YBSg9YSag7ITZgJIT5gCUmzAPoNSEuQAlJszHJzFhXkBpCXMDykqYH1BSQgZAOQlZAKUkZAKUkZANUEJCRkD5CFkBpSNkBpSMkJ1PMsJRIkZLCIvwSUVYDFAiwoKA8hAWBeRLqFdHWBiQI+H4w6juHhYH5EaoTHTnzxlj4kdYApAX4RxjuP8mN8IygFwIhwtVd/48nPhXEBvhbK8SQA6E+uRDp2xjgIZ3TDuWq4Y5qQKQAyE2KPtuo85xN/j7zYyDZsJjZgxjzp2Py7dUB9vCOFtH4d2FD1IBP91GTtLB6wstDljIinIl7AwX5DkGzu5gZnjVq9t0wk3stFhsjUc87yAHwg54AEez2Nld/axzu65jiIY56/EE5EBI/GywucYOMOMwJFv38UO7DH3KEZAzIepcdHH0alf9PMevbn7HzzU21Dk3wIKEEyqh82e1MT61/zvnEYFfX+Jnk+H1gg9fIUJtYeHuGBAipHjbD4ZFlOU866dV/Hw5+3FsitB2oCaGtxAN4wVGXQ0Yz0C+Jh/HSTOVZqrTtkZFw+N4gSlypuwBcQ6pgY/rJ7wwdMou/rvt3cIH8L9CZ61uLuMlB6sXtRKalqU7W02DB9DfHSXky3GuY4LOiOPG9e24TkKDcmiYszdWnG+gljpo/Yo40lKf1Zee3nS4od3uCKvwASx9ADlZcrqlSk5+wk7nM+TrcCgwUIe3hAPA83oI4QO4II5z7t8WPrA6LlhyCjsAFkKS72hNPID5DsfNJ7LkmNZezYR2hCD4VqUKDNT9gIsDKEgIIgSHAgN0QJy0bphT7oS9Xrh7S/QDwf5uId8NhwIDRZYcbLA7gFRCbb4O9/GMPICFIwS7YOhgdQBphHsWdvY7JflAgWGJEOw6HxAO4IMtdCQTKjMdwxaPtBnxAA6equRzVK7kJBLaGUIHGYJSYK6r5vtEKTmYoeTQCfW1im1KMAQFBaZYhGAXOedgKDl0QpNyaK0dIeorMFCg5OQNHdRdlLQ3cLKiu71uvMColRYYKHLOoedzOfR9oobwASQjBOuMgocKzTmohJD4WK8gQrDrEMw5sktODsIKIwS72EtOJqG7f3ecr/iMgofI0JFVcjIIKTMK3hGCXVdMLiedEA2Bg+EfIdh1wFJy0gidzT2JAlNNhGAXmHOYiaPVZELKELS5AgO1uSQex6TRahIhHIIOXjjOKHjonHQA9JJDJ4QFZtV8gYG6J0vO7Cgnoe1gyFUWEQoMFJxz3OXZY8jZY1/QAgO1yRytAkK7wJAOps4Iwa6sxVWCkDKjqDtCsIssOfHRapyQEpEqn1HwEPmugxlxAFFCNLwjH0AxCwwUKDn6FBJSVlnELTBQiaEjIKx1CFqNzuglxyMkXtRSKx+CViPwPofV8wl3xxzuvqCrBmYUPEQJHfadw9q0iSFoNYKjVfcLy+U9ClFElhyghmcUPESWnHiBEd/B5NETETrCB1DQCFFARMmRv8BAkaNVVbAZBQ8R73NwfY9CFEVGqyVf1BJX/itk8kQIdh3cr/r9VTOrLLXpsPb68j9kmcfHWbANEQAAAABJRU5ErkJggg==;fontStyle=1" parent="1" vertex="1">
                    <mxGeometry x="542.54" y="1245.8099999999997" width="80" height="80" as="geometry"/>
                </mxCell>
                <mxCell id="1LlXbSwlNms4GWx0Jfwh-5" value="" style="shape=image;verticalLabelPosition=bottom;labelBackgroundColor=default;verticalAlign=top;aspect=fixed;imageAspect=0;image=https://grpc.io/img/logos/grpc-icon-color.png;" parent="1" vertex="1">
                    <mxGeometry x="442.54" y="1277.8099999999997" width="70" height="70" as="geometry"/>
                </mxCell>
                <mxCell id="1LlXbSwlNms4GWx0Jfwh-6" value="&lt;span style=&quot;color: rgb(28, 30, 33); font-family: Inter, sans-serif; font-size: 16px; font-style: normal; font-variant-ligatures: normal; font-variant-caps: normal; letter-spacing: normal; orphans: 2; text-align: left; text-indent: 0px; text-transform: none; widows: 2; word-spacing: 0px; -webkit-text-stroke-width: 0px; text-decoration-thickness: initial; text-decoration-style: initial; text-decoration-color: initial; float: none; display: inline !important;&quot;&gt;PEP: Policy Enforcement Point&lt;br&gt;PDP Policy Decision Point&lt;br&gt;PIP: Policy Information Point&lt;br&gt;PRP: Policy Retrieval Point&lt;br&gt;PAP: Policy Administration Point&lt;br&gt;AAP: Autenticami Administration Point&lt;br&gt;&lt;/span&gt;" style="text;whiteSpace=wrap;html=1;fontStyle=1;fillColor=#fff2cc;strokeColor=#d6b656;" parent="1" vertex="1">
                    <mxGeometry x="90" y="1020" width="340" height="130" as="geometry"/>
                </mxCell>
                <mxCell id="1LlXbSwlNms4GWx0Jfwh-7" value="&lt;b&gt;AUTENTICAMI.COM&lt;br&gt;&lt;br&gt;&lt;br&gt;&lt;br&gt;&lt;br&gt;&lt;br&gt;&lt;br&gt;&lt;br&gt;&lt;br&gt;&lt;br&gt;&lt;br&gt;&lt;br&gt;&lt;br&gt;&lt;br&gt;&lt;br&gt;&lt;br&gt;&lt;br&gt;&lt;br&gt;&lt;br&gt;&lt;br&gt;&lt;br&gt;&lt;br&gt;&lt;br&gt;&lt;br&gt;&lt;br&gt;&lt;br&gt;&lt;br&gt;&lt;br&gt;&lt;br&gt;&lt;br&gt;&lt;br&gt;&lt;br&gt;&lt;/b&gt;" style="rounded=0;whiteSpace=wrap;html=1;fillColor=default;" parent="1" vertex="1">
                    <mxGeometry x="857" y="1160" width="610" height="490" as="geometry"/>
                </mxCell>
                <mxCell id="1LlXbSwlNms4GWx0Jfwh-8" value="" style="sketch=0;outlineConnect=0;fontColor=#232F3E;gradientColor=none;fillColor=#007FFF;strokeColor=none;dashed=0;verticalLabelPosition=bottom;verticalAlign=top;align=center;html=1;fontSize=12;fontStyle=0;aspect=fixed;pointerEvents=1;shape=mxgraph.aws4.network_load_balancer;" parent="1" vertex="1">
                    <mxGeometry x="857" y="1417.2" width="67.8" height="67.8" as="geometry"/>
                </mxCell>
                <mxCell id="xrNuxQP46FerP5aXgkIU-4" style="edgeStyle=orthogonalEdgeStyle;rounded=0;orthogonalLoop=1;jettySize=auto;html=1;dashed=1;exitX=1;exitY=0.5;exitDx=0;exitDy=0;" parent="1" source="1LlXbSwlNms4GWx0Jfwh-9" target="1LlXbSwlNms4GWx0Jfwh-14" edge="1">
                    <mxGeometry relative="1" as="geometry">
                        <Array as="points">
                            <mxPoint x="1380" y="1347"/>
                        </Array>
                    </mxGeometry>
                </mxCell>
                <mxCell id="xrNuxQP46FerP5aXgkIU-16" style="edgeStyle=orthogonalEdgeStyle;rounded=0;orthogonalLoop=1;jettySize=auto;html=1;dashed=1;" parent="1" source="1LlXbSwlNms4GWx0Jfwh-9" target="xrNuxQP46FerP5aXgkIU-9" edge="1">
                    <mxGeometry relative="1" as="geometry"/>
                </mxCell>
                <mxCell id="1LlXbSwlNms4GWx0Jfwh-9" value="PAP" style="shape=image;verticalLabelPosition=bottom;labelBackgroundColor=default;verticalAlign=top;aspect=fixed;imageAspect=0;image=data:image/png,iVBORw0KGgoAAAANSUhEUgAAAOEAAADhCAMAAAAJbSJIAAAAyVBMVEX///8gwu8No8Y5TVQOrNEMlrdj1fQfxfM7REg7QkUJmbs6SlAgO0Q6RUjt7u/o6uomQEgit+EpnsAxfZQmqc4sk7ErmLgqa30mc4gyYG4je5Qui6hl2/s6SE02QEQwRk40x/BX0fPKztA4UlvAxcezubtKzfI0WWQvhJ5PYGbV2NmnrrGMlZl5hIhndHkwxvAzcISbo6Zbwd1Cc4JfzOpLkKRZaG1Qn7WssrVavdhzf4NJiZtGWF5Wr8g2VF5Eeoo7OjlEbHgwX22MRMweAAAL3UlEQVR4nO2da1ubShSFG0CHhKCJJs3NSWqjReOlai/ao6bq//9Rh2uA2cNlYIAZnq6P54k9vBL2XmsPznz69E//9E9RbW4uL282TV9Fddr87q9UddX//bXpK6lGX10+R6v+5VnTV8NfZ5cBn6vWMZ69DFRCA/W86avip3PI5zE+NX1lfPS0ovK5jIOrpq+uvK7URD6XcXXf9BWW0sH9gOAzlksj/l9W/fuDpq+zqA6uByuS78efhx+AcXAtJePBdR/w/X042d8/efgL7+P1YdPXy6rDG5IPe3yOTn7+XWKS8UYqRhrfc8DnMT5Dxv+kMaybW8CHn396fN86nW8BIwaMt1IwUviWET5HAeMvEzIKb8pDe73jM37tx/gijPu/VJNkvBSaEfKZNL4o46P9kfiPCGzKz14IPkNfP/p8XzpAX059xrVOMr4IacrPX/pqAt8phS/GuF3Gf1TE4PEE7Ody+3qSeP8IxpNXizQBggUPYK+NpeXzJd2/HIwrYYLHPRmPjOUsJ5+j7wHjDDKKEDxo8eH91ft6nn7P5gsZ90/+vItnymnx4f0PG5/IjIeU+PDjD7X9ZctnpISrxoIHtNfGLj6csvI58k3AgyDBIy0eMd8/glGE4LH5L9Nel2SkmPIaGTPiUTntgkdz4YoaH3jxRRj3fxmAsY4Vj5zxiA8jCB7Vr3gQqw+2dPWRN5+jLwEjJXhUyHgG44OaEo94MYLgUVW4Oof2evuYHR9KMKaY8goYQTzKHx8qYVQ5B4+rcvGhuHbBAxjWwYBj8KDEo/eAj8Fel2GkmXI7XHEx5XY84hIfODBWsuJBX13x20MtfK6C4EFb8SjFSItHpeJDcVUSPKjxgac9K8RIWw0oxnhYVXzgwMgjXFUaH0oz0kw5W/Cg8XGND5Uw5g8elNUHlXt8KM/4qOogeORi3JB8hllNfCiuiCkHqzrZ39WvgC9r9aEJBYYVrnj0s7LVQdyfVR0fisu/j9CU9zMcwPUqxld9fCiuhOCxukknjPHVEx+K6ws1eKzyfkmN+uJDcYWmPERM/5pGH0OvwIjM58hltG/jOiRMtXBRQqw+nojO5+j76clrtKTmJ1RVff0ZoaYBsoSQYsVaRk5Cy/NEpqWIzYjQaOZZm6XFRGgoi63LaHRnI4EZ0XDS9fjWjycGG6GiXKx9xokmKCIa3nn3DxtOWWQmVJS54TPeDQVkRJ1j3b0+bHq5oAChokwN73fUPRaNEXUuTJ/v2fPN33ARQpvR/x7gi45AjAgt/O9XMFex+1pBQqU38RnNhSiMCH323vgzlj9+hr6rKKEy2vMZTXUsQllF6Gire3zvD9HcU5hQUbQ9v+eY66OmGe0GaPkN0J9L73JBCUJbY0v3LUCj7THS4LevZG4tR6hoIlgAuwEGDd4PPtG5SknCiAXQJ820DjQMCrv6CPl4ENqManMWwG7wfgPE/uCPnIvxIFSUY68N1W4BUGcR8D3T+XgR2hbArN8CIDT2vz3BwgItuPIiVJQJ9hlrsgCRBv83mY8n4c7mmGoNCdlu8JZJa/BVEjoWwPuu6lVbANjgkwe3PAmV0ALoVVoAhLRdggcNvmpCZbTw3WF1FiC9wVdOqESnAFW0jqwG3yHrXAWEijIPLMCUN2N2g0edUQ2Eu0mHbQF4to4wwQcN/pT8BDpavx3F/pcVEVZhAXI0eDdjmJ/rIYxYgDEPxhwN3ilBWLXqIwwtQPkheWKCj3zEeUTxpDfp1kcYTgH0bSkLkJLgw4+MsWnOxr16Ce326FsAQy/eHvM0eOcWY2vR6+3VTchhCpCnwaOjN7ye23x7DRAq5SxAdoN3PzXWZy5fQ4SRhQBGCxBpgAkNPiDsTmzAnqI0RRi1APkZwwRvJjT4GGFP0bQGCdkXAiINPmiA8FcQEk41R40Ssk0BEkb0sY8Mx0PBCPNPAaIJPrEBLnB3gQQjDKcAqQsBuRr8kWoaWDxCJcdCgDOi76Y3ePdXgLczU0hCZbSw0qYAORq8s0yPjWlvqotJqKQtBOwavJnY4N1lbDzZ64lMmLQQEK7B48ekBm87bGx+jB0HKjThbtIRsQDQwJwCvg5Susb2wnOgghOGFsB0LUBkDT5lRG977O6HxycBoaLc4fBdgHwjeofQdaAOiwSEtgUI2mPOEb1H2PNYZCAMpwDpBiZOGLBIQWhr/OH/3XLaiH7XOGUkVLSF5SAG7xhQEiAaHgcv0UlJaDPaJsf8mZRwnSFa91huQsUlTOBDY8P22O0gPKXxHa11bE1M2QntVqE/UBqgEzOwOu/NdckJNZvQHJJ43pTezhA96Qk1t9IAQnRhuhnCdjCSE2p0QjR6M9wMIT2hlkgYemypCbVUQt9jy0yopRP6HltiQi2dMLhqeQm1dMKZ9IRa2wm1thNqLSfUtJYTjtpOqGktJ9TaTkgCto4QALaNEAK2jJAC2C5CGmCrCKmAbSKkA7aIMAGwNYRJfK0hTAZsCWEKYDsI0wBbQZgK2AbCdMAWEGYAyk+YBSg9YSag7ITZgJIT5gCUmzAPoNSEuQAlJszHJzFhXkBpCXMDykqYH1BSQgZAOQlZAKUkZAKUkZANUEJCRkD5CFkBpSNkBpSMkJ1PMsJRIkZLCIvwSUVYDFAiwoKA8hAWBeRLqFdHWBiQI+H4w6juHhYH5EaoTHTnzxlj4kdYApAX4RxjuP8mN8IygFwIhwtVd/48nPhXEBvhbK8SQA6E+uRDp2xjgIZ3TDuWq4Y5qQKQAyE2KPtuo85xN/j7zYyDZsJjZgxjzp2Py7dUB9vCOFtH4d2FD1IBP91GTtLB6wstDljIinIl7AwX5DkGzu5gZnjVq9t0wk3stFhsjUc87yAHwg54AEez2Nld/axzu65jiIY56/EE5EBI/GywucYOMOMwJFv38UO7DH3KEZAzIepcdHH0alf9PMevbn7HzzU21Dk3wIKEEyqh82e1MT61/zvnEYFfX+Jnk+H1gg9fIUJtYeHuGBAipHjbD4ZFlOU866dV/Hw5+3FsitB2oCaGtxAN4wVGXQ0Yz0C+Jh/HSTOVZqrTtkZFw+N4gSlypuwBcQ6pgY/rJ7wwdMou/rvt3cIH8L9CZ61uLuMlB6sXtRKalqU7W02DB9DfHSXky3GuY4LOiOPG9e24TkKDcmiYszdWnG+gljpo/Yo40lKf1Zee3nS4od3uCKvwASx9ADlZcrqlSk5+wk7nM+TrcCgwUIe3hAPA83oI4QO4II5z7t8WPrA6LlhyCjsAFkKS72hNPID5DsfNJ7LkmNZezYR2hCD4VqUKDNT9gIsDKEgIIgSHAgN0QJy0bphT7oS9Xrh7S/QDwf5uId8NhwIDRZYcbLA7gFRCbb4O9/GMPICFIwS7YOhgdQBphHsWdvY7JflAgWGJEOw6HxAO4IMtdCQTKjMdwxaPtBnxAA6equRzVK7kJBLaGUIHGYJSYK6r5vtEKTmYoeTQCfW1im1KMAQFBaZYhGAXOedgKDl0QpNyaK0dIeorMFCg5OQNHdRdlLQ3cLKiu71uvMColRYYKHLOoedzOfR9oobwASQjBOuMgocKzTmohJD4WK8gQrDrEMw5sktODsIKIwS72EtOJqG7f3ecr/iMgofI0JFVcjIIKTMK3hGCXVdMLiedEA2Bg+EfIdh1wFJy0gidzT2JAlNNhGAXmHOYiaPVZELKELS5AgO1uSQex6TRahIhHIIOXjjOKHjonHQA9JJDJ4QFZtV8gYG6J0vO7Cgnoe1gyFUWEQoMFJxz3OXZY8jZY1/QAgO1yRytAkK7wJAOps4Iwa6sxVWCkDKjqDtCsIssOfHRapyQEpEqn1HwEPmugxlxAFFCNLwjH0AxCwwUKDn6FBJSVlnELTBQiaEjIKx1CFqNzuglxyMkXtRSKx+CViPwPofV8wl3xxzuvqCrBmYUPEQJHfadw9q0iSFoNYKjVfcLy+U9ClFElhyghmcUPESWnHiBEd/B5NETETrCB1DQCFFARMmRv8BAkaNVVbAZBQ8R73NwfY9CFEVGqyVf1BJX/itk8kQIdh3cr/r9VTOrLLXpsPb68j9kmcfHWbANEQAAAABJRU5ErkJggg==;fontStyle=1" parent="1" vertex="1">
                    <mxGeometry x="1270" y="1307.1" width="80" height="80" as="geometry"/>
                </mxCell>
                <mxCell id="1LlXbSwlNms4GWx0Jfwh-14" value="" style="image;html=1;image=img/lib/clip_art/computers/Database_128x128.png" parent="1" vertex="1">
                    <mxGeometry x="1340" y="1485" width="80" height="80" as="geometry"/>
                </mxCell>
                <mxCell id="1LlXbSwlNms4GWx0Jfwh-24" value="" style="shape=image;verticalLabelPosition=bottom;labelBackgroundColor=default;verticalAlign=top;aspect=fixed;imageAspect=0;image=https://cdn-icons-png.flaticon.com/512/888/888868.png;" parent="1" vertex="1">
                    <mxGeometry x="612.54" y="1228.26" width="30" height="30" as="geometry"/>
                </mxCell>
                <mxCell id="1LlXbSwlNms4GWx0Jfwh-25" value="" style="shape=image;verticalLabelPosition=bottom;labelBackgroundColor=default;verticalAlign=top;aspect=fixed;imageAspect=0;image=https://cdn-icons-png.flaticon.com/512/888/888868.png;" parent="1" vertex="1">
                    <mxGeometry x="1340" y="1287.55" width="30" height="30" as="geometry"/>
                </mxCell>
                <mxCell id="xrNuxQP46FerP5aXgkIU-13" style="edgeStyle=orthogonalEdgeStyle;rounded=0;orthogonalLoop=1;jettySize=auto;html=1;entryX=0.25;entryY=1;entryDx=0;entryDy=0;dashed=1;" parent="1" source="1LlXbSwlNms4GWx0Jfwh-29" target="xrNuxQP46FerP5aXgkIU-5" edge="1">
                    <mxGeometry relative="1" as="geometry"/>
                </mxCell>
                <mxCell id="xrNuxQP46FerP5aXgkIU-14" style="edgeStyle=orthogonalEdgeStyle;rounded=0;orthogonalLoop=1;jettySize=auto;html=1;dashed=1;" parent="1" source="1LlXbSwlNms4GWx0Jfwh-29" target="xrNuxQP46FerP5aXgkIU-9" edge="1">
                    <mxGeometry relative="1" as="geometry"/>
                </mxCell>
                <mxCell id="1LlXbSwlNms4GWx0Jfwh-29" value="PDP" style="shape=image;verticalLabelPosition=bottom;labelBackgroundColor=default;verticalAlign=top;aspect=fixed;imageAspect=0;image=data:image/png,iVBORw0KGgoAAAANSUhEUgAAAOEAAADhCAMAAAAJbSJIAAAAyVBMVEX///8gwu8No8Y5TVQOrNEMlrdj1fQfxfM7REg7QkUJmbs6SlAgO0Q6RUjt7u/o6uomQEgit+EpnsAxfZQmqc4sk7ErmLgqa30mc4gyYG4je5Qui6hl2/s6SE02QEQwRk40x/BX0fPKztA4UlvAxcezubtKzfI0WWQvhJ5PYGbV2NmnrrGMlZl5hIhndHkwxvAzcISbo6Zbwd1Cc4JfzOpLkKRZaG1Qn7WssrVavdhzf4NJiZtGWF5Wr8g2VF5Eeoo7OjlEbHgwX22MRMweAAAL3UlEQVR4nO2da1ubShSFG0CHhKCJJs3NSWqjReOlai/ao6bq//9Rh2uA2cNlYIAZnq6P54k9vBL2XmsPznz69E//9E9RbW4uL282TV9Fddr87q9UddX//bXpK6lGX10+R6v+5VnTV8NfZ5cBn6vWMZ69DFRCA/W86avip3PI5zE+NX1lfPS0ovK5jIOrpq+uvK7URD6XcXXf9BWW0sH9gOAzlksj/l9W/fuDpq+zqA6uByuS78efhx+AcXAtJePBdR/w/X042d8/efgL7+P1YdPXy6rDG5IPe3yOTn7+XWKS8UYqRhrfc8DnMT5Dxv+kMaybW8CHn396fN86nW8BIwaMt1IwUviWET5HAeMvEzIKb8pDe73jM37tx/gijPu/VJNkvBSaEfKZNL4o46P9kfiPCGzKz14IPkNfP/p8XzpAX059xrVOMr4IacrPX/pqAt8phS/GuF3Gf1TE4PEE7Ody+3qSeP8IxpNXizQBggUPYK+NpeXzJd2/HIwrYYLHPRmPjOUsJ5+j7wHjDDKKEDxo8eH91ft6nn7P5gsZ90/+vItnymnx4f0PG5/IjIeU+PDjD7X9ZctnpISrxoIHtNfGLj6csvI58k3AgyDBIy0eMd8/glGE4LH5L9Nel2SkmPIaGTPiUTntgkdz4YoaH3jxRRj3fxmAsY4Vj5zxiA8jCB7Vr3gQqw+2dPWRN5+jLwEjJXhUyHgG44OaEo94MYLgUVW4Oof2evuYHR9KMKaY8goYQTzKHx8qYVQ5B4+rcvGhuHbBAxjWwYBj8KDEo/eAj8Fel2GkmXI7XHEx5XY84hIfODBWsuJBX13x20MtfK6C4EFb8SjFSItHpeJDcVUSPKjxgac9K8RIWw0oxnhYVXzgwMgjXFUaH0oz0kw5W/Cg8XGND5Uw5g8elNUHlXt8KM/4qOogeORi3JB8hllNfCiuiCkHqzrZ39WvgC9r9aEJBYYVrnj0s7LVQdyfVR0fisu/j9CU9zMcwPUqxld9fCiuhOCxukknjPHVEx+K6ws1eKzyfkmN+uJDcYWmPERM/5pGH0OvwIjM58hltG/jOiRMtXBRQqw+nojO5+j76clrtKTmJ1RVff0ZoaYBsoSQYsVaRk5Cy/NEpqWIzYjQaOZZm6XFRGgoi63LaHRnI4EZ0XDS9fjWjycGG6GiXKx9xokmKCIa3nn3DxtOWWQmVJS54TPeDQVkRJ1j3b0+bHq5oAChokwN73fUPRaNEXUuTJ/v2fPN33ARQpvR/x7gi45AjAgt/O9XMFex+1pBQqU38RnNhSiMCH323vgzlj9+hr6rKKEy2vMZTXUsQllF6Gire3zvD9HcU5hQUbQ9v+eY66OmGe0GaPkN0J9L73JBCUJbY0v3LUCj7THS4LevZG4tR6hoIlgAuwEGDd4PPtG5SknCiAXQJ820DjQMCrv6CPl4ENqManMWwG7wfgPE/uCPnIvxIFSUY68N1W4BUGcR8D3T+XgR2hbArN8CIDT2vz3BwgItuPIiVJQJ9hlrsgCRBv83mY8n4c7mmGoNCdlu8JZJa/BVEjoWwPuu6lVbANjgkwe3PAmV0ALoVVoAhLRdggcNvmpCZbTw3WF1FiC9wVdOqESnAFW0jqwG3yHrXAWEijIPLMCUN2N2g0edUQ2Eu0mHbQF4to4wwQcN/pT8BDpavx3F/pcVEVZhAXI0eDdjmJ/rIYxYgDEPxhwN3ilBWLXqIwwtQPkheWKCj3zEeUTxpDfp1kcYTgH0bSkLkJLgw4+MsWnOxr16Ce326FsAQy/eHvM0eOcWY2vR6+3VTchhCpCnwaOjN7ye23x7DRAq5SxAdoN3PzXWZy5fQ4SRhQBGCxBpgAkNPiDsTmzAnqI0RRi1APkZwwRvJjT4GGFP0bQGCdkXAiINPmiA8FcQEk41R40Ssk0BEkb0sY8Mx0PBCPNPAaIJPrEBLnB3gQQjDKcAqQsBuRr8kWoaWDxCJcdCgDOi76Y3ePdXgLczU0hCZbSw0qYAORq8s0yPjWlvqotJqKQtBOwavJnY4N1lbDzZ64lMmLQQEK7B48ekBm87bGx+jB0HKjThbtIRsQDQwJwCvg5Susb2wnOgghOGFsB0LUBkDT5lRG977O6HxycBoaLc4fBdgHwjeofQdaAOiwSEtgUI2mPOEb1H2PNYZCAMpwDpBiZOGLBIQWhr/OH/3XLaiH7XOGUkVLSF5SAG7xhQEiAaHgcv0UlJaDPaJsf8mZRwnSFa91huQsUlTOBDY8P22O0gPKXxHa11bE1M2QntVqE/UBqgEzOwOu/NdckJNZvQHJJ43pTezhA96Qk1t9IAQnRhuhnCdjCSE2p0QjR6M9wMIT2hlkgYemypCbVUQt9jy0yopRP6HltiQi2dMLhqeQm1dMKZ9IRa2wm1thNqLSfUtJYTjtpOqGktJ9TaTkgCto4QALaNEAK2jJAC2C5CGmCrCKmAbSKkA7aIMAGwNYRJfK0hTAZsCWEKYDsI0wBbQZgK2AbCdMAWEGYAyk+YBSg9YSag7ITZgJIT5gCUmzAPoNSEuQAlJszHJzFhXkBpCXMDykqYH1BSQgZAOQlZAKUkZAKUkZANUEJCRkD5CFkBpSNkBpSMkJ1PMsJRIkZLCIvwSUVYDFAiwoKA8hAWBeRLqFdHWBiQI+H4w6juHhYH5EaoTHTnzxlj4kdYApAX4RxjuP8mN8IygFwIhwtVd/48nPhXEBvhbK8SQA6E+uRDp2xjgIZ3TDuWq4Y5qQKQAyE2KPtuo85xN/j7zYyDZsJjZgxjzp2Py7dUB9vCOFtH4d2FD1IBP91GTtLB6wstDljIinIl7AwX5DkGzu5gZnjVq9t0wk3stFhsjUc87yAHwg54AEez2Nld/axzu65jiIY56/EE5EBI/GywucYOMOMwJFv38UO7DH3KEZAzIepcdHH0alf9PMevbn7HzzU21Dk3wIKEEyqh82e1MT61/zvnEYFfX+Jnk+H1gg9fIUJtYeHuGBAipHjbD4ZFlOU866dV/Hw5+3FsitB2oCaGtxAN4wVGXQ0Yz0C+Jh/HSTOVZqrTtkZFw+N4gSlypuwBcQ6pgY/rJ7wwdMou/rvt3cIH8L9CZ61uLuMlB6sXtRKalqU7W02DB9DfHSXky3GuY4LOiOPG9e24TkKDcmiYszdWnG+gljpo/Yo40lKf1Zee3nS4od3uCKvwASx9ADlZcrqlSk5+wk7nM+TrcCgwUIe3hAPA83oI4QO4II5z7t8WPrA6LlhyCjsAFkKS72hNPID5DsfNJ7LkmNZezYR2hCD4VqUKDNT9gIsDKEgIIgSHAgN0QJy0bphT7oS9Xrh7S/QDwf5uId8NhwIDRZYcbLA7gFRCbb4O9/GMPICFIwS7YOhgdQBphHsWdvY7JflAgWGJEOw6HxAO4IMtdCQTKjMdwxaPtBnxAA6equRzVK7kJBLaGUIHGYJSYK6r5vtEKTmYoeTQCfW1im1KMAQFBaZYhGAXOedgKDl0QpNyaK0dIeorMFCg5OQNHdRdlLQ3cLKiu71uvMColRYYKHLOoedzOfR9oobwASQjBOuMgocKzTmohJD4WK8gQrDrEMw5sktODsIKIwS72EtOJqG7f3ecr/iMgofI0JFVcjIIKTMK3hGCXVdMLiedEA2Bg+EfIdh1wFJy0gidzT2JAlNNhGAXmHOYiaPVZELKELS5AgO1uSQex6TRahIhHIIOXjjOKHjonHQA9JJDJ4QFZtV8gYG6J0vO7Cgnoe1gyFUWEQoMFJxz3OXZY8jZY1/QAgO1yRytAkK7wJAOps4Iwa6sxVWCkDKjqDtCsIssOfHRapyQEpEqn1HwEPmugxlxAFFCNLwjH0AxCwwUKDn6FBJSVlnELTBQiaEjIKx1CFqNzuglxyMkXtRSKx+CViPwPofV8wl3xxzuvqCrBmYUPEQJHfadw9q0iSFoNYKjVfcLy+U9ClFElhyghmcUPESWnHiBEd/B5NETETrCB1DQCFFARMmRv8BAkaNVVbAZBQ8R73NwfY9CFEVGqyVf1BJX/itk8kQIdh3cr/r9VTOrLLXpsPb68j9kmcfHWbANEQAAAABJRU5ErkJggg==;fontStyle=1" parent="1" vertex="1">
                    <mxGeometry x="980" y="1527.55" width="80" height="80" as="geometry"/>
                </mxCell>
                <mxCell id="1LlXbSwlNms4GWx0Jfwh-39" value="" style="shape=image;verticalLabelPosition=bottom;labelBackgroundColor=default;verticalAlign=top;aspect=fixed;imageAspect=0;image=data:image/png,iVBORw0KGgoAAAANSUhEUgAAA+AAAAFqCAYAAACakzDqAAAKrmlDQ1BJQ0MgUHJvZmlsZQAASImVlwdUE1kXgN9MekhoCRGQEnqT3gJICaEFEJAOohKSAKGEGAgqdmVxBVcUERFUFJWq4KoUWWyIYmERLGBfkEVEWRcLNlT+AQ5hd//z///575x77jd37rvvvnfmzbkDAFmeIxKlwPIApAozxMHe7vTIqGg6bhgQkYsErIAeh5suYgYF+QNEZu3f5UMvgKbsHdOpXP/+/L+KAo+fzgUACkI4jpfOTUX4DKIvuSJxBgCoQ4hfZ2WGaIrbEaaKkQIRvj/FCTM8OsVx04wG0zGhwSyEqQDgSRyOOAEAEh3x0zO5CUgekhvCFkKeQIiwCGGX1NQ0HsInETZEYhAfaSo/I+4veRL+ljNOmpPDSZDyzFqmBe8hSBelcFb/n9vxvyU1RTI7hz6ipESxTzBiFZE9u5+c5idlYVxA4CwLeNPx05wo8QmbZW46K3qWeRwPP+nYlAD/WY4XeLGleTLYobPMT/cMmWVxWrB0rngxiznLHPHcvJLkMKk/kc+W5s9KDI2Y5UxBeMAspyeH+M3FsKR+sSRYWj9f6O0+N6+XdO2p6X9Zr4AtHZuRGOojXTtnrn6+kDmXMz1SWhuP7+E5FxMmjRdluEvnEqUESeP5Kd5Sf3pmiHRsBvJCzo0Nku5hEsc3aJYBC6SBFETFgA78kTsPADL4qzKmFsJKE60WCxISM+hM5ITx6Wwh12wB3crCyhqAqfM68zq8o02fQ4h2Y863xR4A5+zJycnWOZ/fMQBORwFAvDvnM/gMgJwOANcOciXizBnf9FnCIN8BOUAFKkAD6ABDYIp8E+yAE3ADnsAXBIJQEAWWAS5IBKlI5SvBWrAJ5IA8sBPsASWgDBwBVeAEOAWaQCu4BK6Cm6Ab3AOPQD8YAq/AGPgAJiAIwkFkiAKpQJqQHmQCWUEMyAXyhPyhYCgKioUSICEkgdZCW6A8qAAqgQ5D1dDP0FnoEnQd6oEeQAPQCPQW+gKjYBJMhdVhfdgcZsBM2A8OhZfCCfAKOAvOhnfAxXA5fBxuhC/BN+F7cD/8Ch5HAZQMiobSQpmiGCgWKhAVjYpHiVHrUbmoIlQ5qg7VgupA3UH1o0ZRn9FYNAVNR5uindA+6DA0F70CvR69HV2CrkI3otvRd9AD6DH0dwwZo4YxwThi2JhITAJmJSYHU4SpwDRgrmDuYYYwH7BYLA1rgLXH+mCjsEnYNdjt2APYeuxFbA92EDuOw+FUcCY4Z1wgjoPLwOXg9uGO4y7gbuOGcJ/wMnhNvBXeCx+NF+I344vwNfjz+Nv4YfwEQZ6gR3AkBBJ4hNWEfMJRQgvhFmGIMEFUIBoQnYmhxCTiJmIxsY54hfiY+E5GRkZbxkFmsYxAZqNMscxJmWsyAzKfSYokYxKLFEOSkHaQKkkXSQ9I78hksj7ZjRxNziDvIFeTL5Ofkj/JUmTNZNmyPNkNsqWyjbK3ZV/LEeT05Jhyy+Sy5IrkTsvdkhuVJ8jry7PkOfLr5Uvlz8r3yY8rUBQsFQIVUhW2K9QoXFd4oYhT1Ff0VOQpZiseUbysOEhBUXQoLAqXsoVylHKFMkTFUg2obGoSNY96gtpFHVNSVLJRCldapVSqdE6pn4ai6dPYtBRaPu0UrZf2ZZ76POY8/rxt8+rm3Z73UXm+spsyXzlXuV75nvIXFbqKp0qyyi6VJpUnqmhVY9XFqitVD6peUR2dT53vNJ87P3f+qfkP1WA1Y7VgtTVqR9Q61cbVNdS91UXq+9Qvq49q0DTcNJI0CjXOa4xoUjRdNAWahZoXNF/SlehMegq9mN5OH9NS0/LRkmgd1urSmtA20A7T3qxdr/1Eh6jD0InXKdRp0xnT1dRdpLtWt1b3oR5Bj6GXqLdXr0Pvo76BfoT+Vv0m/RcGygZsgyyDWoPHhmRDV8MVhuWGd42wRgyjZKMDRt3GsLGtcaJxqfEtE9jEzkRgcsCkZwFmgcMC4YLyBX2mJFOmaaZpremAGc3M32yzWZPZa3Nd82jzXeYd5t8tbC1SLI5aPLJUtPS13GzZYvnWytiKa1VqddeabO1lvcG62fqNjYkN3+agzX1biu0i2622bbbf7OztxHZ1diP2uvax9vvt+xhURhBjO+OaA8bB3WGDQ6vDZ0c7xwzHU45/Opk6JTvVOL1YaLCQv/DowkFnbWeO82Hnfhe6S6zLIZd+Vy1Xjmu56zM3HTeeW4XbMNOImcQ8znztbuEudm9w/8hyZK1jXfRAeXh75Hp0eSp6hnmWeD710vZK8Kr1GvO29V7jfdEH4+Pns8unj63O5rKr2WO+9r7rfNv9SH4hfiV+z/yN/cX+LYvgRb6Ldi96HKAXIAxoCgSB7MDdgU+CDIJWBP2yGLs4aHHp4ufBlsFrgztCKCHLQ2pCPoS6h+aHPgozDJOEtYXLhceEV4d/jPCIKIjojzSPXBd5M0o1ShDVHI2LDo+uiB5f4rlkz5KhGNuYnJjepQZLVy29vkx1Wcqyc8vllnOWn47FxEbE1sR+5QRyyjnjcey4/XFjXBZ3L/cVz41XyBvhO/ML+MPxzvEF8S8SnBN2J4wkuiYWJY4KWIISwZskn6SypI/JgcmVyZMpESn1qfjU2NSzQkVhsrA9TSNtVVqPyESUI+pf4bhiz4oxsZ+4Ih1KX5renEFFGqNOiaHkB8lApktmaeanleErT69SWCVc1bnaePW21cNZXlnH1qDXcNe0rdVau2ntwDrmusProfVx69s26GzI3jC00Xtj1SbipuRNv2622Fyw+f2WiC0t2erZG7MHf/D+oTZHNkec07fVaWvZj+gfBT92bbPetm/b91xe7o08i7yivK/budtv/GT5U/FPkzvid3Tl2+Uf3IndKdzZu8t1V1WBQkFWweDuRbsbC+mFuYXv9yzfc73IpqhsL3GvZG9/sX9x8z7dfTv3fS1JLLlX6l5av19t/7b9Hw/wDtw+6Hawrky9LK/syyHBofuHvQ83luuXFx3BHsk88vxo+NGOY4xj1RWqFXkV3yqFlf1VwVXt1fbV1TVqNfm1cK2kduR4zPHuEx4nmutM6w7X0+rzToKTkpMvf479ufeU36m204zTdWf0zuxvoDTkNkKNqxvHmhKb+pujmnvO+p5ta3FqafjF7JfKVq3W0nNK5/LPE89nn5+8kHVh/KLo4uilhEuDbcvbHl2OvHy3fXF71xW/K9euel293MHsuHDN+VrrdcfrZ28wbjTdtLvZ2Gnb2fCr7a8NXXZdjbfsbzV3O3S39CzsOX/b9falOx53rt5l3715L+BeT29Y7/2+mL7++7z7Lx6kPHjzMPPhxKONjzGPc5/IPyl6qva0/Dej3+r77frPDXgMdD4LefZokDv46vf0378OZT8nPy8a1hyufmH1onXEa6T75ZKXQ69EryZGc/5Q+GP/a8PXZ/50+7NzLHJs6I34zeTb7e9U3lW+t3nfNh40/vRD6oeJj7mfVD5VfWZ87vgS8WV4YuVX3Nfib0bfWr77fX88mTo5KeKIOdOtAApROD4egLeVAJCR3oHSjfQPS2b66WmBZv4Bpgn8J57puafFDoA6xEy1RayLAJxEVH8jALLI/VRLFOoGYGtrqc72vtN9+pRgkT+WQx5T9GB3oAj8Q2Z6+L/U/U8LprLagH/afwELzgadrMFMPgAAAIplWElmTU0AKgAAAAgABAEaAAUAAAABAAAAPgEbAAUAAAABAAAARgEoAAMAAAABAAIAAIdpAAQAAAABAAAATgAAAAAAAACQAAAAAQAAAJAAAAABAAOShgAHAAAAEgAAAHigAgAEAAAAAQAAA+CgAwAEAAAAAQAAAWoAAAAAQVNDSUkAAABTY3JlZW5zaG90u4b0bAAAAAlwSFlzAAAWJQAAFiUBSVIk8AAAAdZpVFh0WE1MOmNvbS5hZG9iZS54bXAAAAAAADx4OnhtcG1ldGEgeG1sbnM6eD0iYWRvYmU6bnM6bWV0YS8iIHg6eG1wdGs9IlhNUCBDb3JlIDYuMC4wIj4KICAgPHJkZjpSREYgeG1sbnM6cmRmPSJodHRwOi8vd3d3LnczLm9yZy8xOTk5LzAyLzIyLXJkZi1zeW50YXgtbnMjIj4KICAgICAgPHJkZjpEZXNjcmlwdGlvbiByZGY6YWJvdXQ9IiIKICAgICAgICAgICAgeG1sbnM6ZXhpZj0iaHR0cDovL25zLmFkb2JlLmNvbS9leGlmLzEuMC8iPgogICAgICAgICA8ZXhpZjpQaXhlbFlEaW1lbnNpb24+MzYyPC9leGlmOlBpeGVsWURpbWVuc2lvbj4KICAgICAgICAgPGV4aWY6UGl4ZWxYRGltZW5zaW9uPjk5MjwvZXhpZjpQaXhlbFhEaW1lbnNpb24+CiAgICAgICAgIDxleGlmOlVzZXJDb21tZW50PlNjcmVlbnNob3Q8L2V4aWY6VXNlckNvbW1lbnQ+CiAgICAgIDwvcmRmOkRlc2NyaXB0aW9uPgogICA8L3JkZjpSREY+CjwveDp4bXBtZXRhPgrk6lb2AAAAHGlET1QAAAACAAAAAAAAALUAAAAoAAAAtQAAALUAAE3ygG2bOAAAQABJREFUeAHsvelzVlme5/djEwiBVgQCxL6IfUkgIUlyzxpXTnZWV9SUq7q6w/ZM90xPOMJ/jiNsv5kX7XG0HY5xu8vdLnflnhQkyQ5CLBJILAItaN9X8Pkc5SWfVGp5rnT1LPf5nozLs93lnM+5evL5nt+26KVrpiYCIiACIiACIiACIiACIiACIiACIrCgBBZJgC8oX51cBERABERABERABERABERABERABDwBCXDdCCIgAiIgAiIgAiIgAiIgAiIgAiKQAgIS4CmArEuIgAiIgAiIgAiIgAiIgAiIgAiIgAS47gEREAEREAEREAEREAEREAEREAERSAEBCfAUQNYlREAEREAEREAEREAEREAEREAEREACXPeACIiACIiACIiACIiACIiACIiACKSAgAR4CiDrEiIgAiIgAiIgAiIgAiIgAiIgAiIgAa57QAREQAREQAREQAREQAREQAREQARSQEACPAWQdQkREAEREAEREAEREAEREAEREAERkADXPSACIiACIiACIiACIiACIiACIiACKSAgAZ4CyLqECIiACIiACIiACIiACIiACIiACEiA6x4QAREQAREQAREQAREQAREQAREQgRQQkABPAWRdQgREQAREQAREQAREQAREQAREQAQkwHUPiIAIiIAIiIAIiIAIiIAIiIAIiEAKCEiApwCyLiECIiACIiACIiACIiACIiACIiACEuC6B0RABERABERABERABERABERABEQgBQQkwFMAWZcQAREQAREQAREQAREQAREQAREQAQlw3QMiIAIiIAIiIAIiIAIiIAIiIAIikAICEuApgKxLiIAIiIAIiIAIiIAIiIAIiIAIiIAEuO4BERABERABERABERABERABERABEUgBAQnwFEDWJURABERABERABERABERABERABERAAlz3gAiIgAiIgAiIgAiIgAiIgAiIgAikgIAEeAog6xIiIAIiIAIiIAIiIAIiIAIiIAIiIAGue0AEREAEREAEREAEREAEREAEREAEUkBAAjwFkHUJERABERABERABERABERABERABEZAA1z0gAiIgAiIgAiIgAiIgAiIgAiIgAikgIAGeAsi6hAiIgAiIgAiIgAiIgAiIgAiIgAhIgOseEAEREAEREAEREAEREAEREAEREIEUEJAATwFkXUIEREAEREAEREAEREAEREAEREAEJMCz8B54+fKlvXjxwsbGxvw2Pj5uwcb7wRbsF8UQFy1aZGyLFy9+9bhkyRJL3JYuXWpswb5RXFfnEAEREAEREAEREAEREAEREIG4EJAAz8KZRGAPDg5aT0+P33p7e62/v9/6+vpsaGjIhoeHbWRkxG+IdPafb0N4L1u2zJYvX255eXn+MT8/3woKCmzVqlW2evVqKyws9Bufs7+aCIiACIiACIiACIiACIiACIjADwQkwH9gkXHPEM6jo6PW1dVl3d3dfkN0I7gR4HwWbInWcI7DIs4jVnC2+bbA+o2wZgss31i8EebBI88DUR4Ich6Lior8fhynJgIiIAIiIAIiIAIiIAIiIAK5SEACPINmHas1Fmys2QhstoGBAS+8AxGOAOdz9s3UtmLFCm8VTxTgPEeYs61cudJvWNMR7GoiIAIiIAIiIAIiIAIiIAIikAsEJMDTPMtYqQNLdWdnp7W0tFhjY6M1NTVZe3u7t3ZP10Ws0kFLfD7Te8Fnc32cypqe+F7i88nXwAq+du1a27hxo1VWVtqaNWu86zoW9cDCPvkYvRYBERABERABERABERABERCBuBCQAE/TTCK6cR9HcD979sxvuJlj8cYKHsRw40o+uSFWceUm1pot0QU8cA0P3MR5jKIhrIPFgiDhG4+MAfd3+stzHoMFhcnXxU09iB8PrOQlJSW2fv16L8rLyspkEZ8MTa9FQAREQAREQAREQAREQARiQ0ACPIVTiYhFYHd0dLyybmPlbmtr868R3omCG6HNhsAOhDbPEwU3ojbYEN8I7slbFEOk74kiHJEdCPEg/pzHQJDzmPgcYR6cI+gP48AdHUs4G2KcZG5YybGWI9LVREAEREAEREAEREAEREAERCAuBCTAUzCTCFUEKAL7+fPndv/+fb/hcj6V4A4ENII6EKkI1SB+mthpRDfiPNMaIhvhzVhZbAji2MnQHgj2QLyzb2JjXIjw/fv325YtW6y0tNRnW2essFATAREQAREQAREQAREQAREQgWwmIAGegtlDdD98+NBqa2u99RthSqkwBGmiCEVoUtorKOuF6MYKjCBPtG4HlvEUdH1Ol2BMgbt68JyxMm4SyJHFnY1FickLEDBgzFjCsYrv3bvXu6cXFxfPqS86SAREQAREQAREQAREQAREQAQyhYAE+ALNROBq/vTpU2ttbfUbQhzLMOI0aFh9EZyIbcQ3z4P3AlfzYN9sf8Qyjuhm8QEOiZneeY/Pg4YQh8m6deusvLzcP5K8Ddd0+KiJgAiIgAiIgAiIgAiIgAiIQLYRkACPeMaIg0ZYksW8oaHB7t27Z5QOQ3jSsF5jzUZgIrBxK8faS5kuBCfv5ULDMo7oxiIOH1zU4RbEjSdaxlmYwBq+Z88e27Rpk3/Oe3gGZKIbfi7Mn8YoAiIgAiIgAiIgAiIgAiIQnoAEeHhm0x6BZRvX6rq6Oquurjas3whyxCYbDdGI4CbWmazfWLwR47xPyyVBGXDhkQUKRDgJ6oiNT/QUgAl84LRjxw7vls4jIlyx4f620T8iIAIiIAIiIAIiIAIiIAJZQEACPIJJwlqLcHzy5InfcDknuzlu6DQEJG7TxHbjQp3obo6AzCXRPR1uFi9YrAhc0xHjgWU8WMTgWDwFSM6GRRwRvmHDBr+YMd159b4IiIAIiIAIiIAIiIAIiIAIZAoBCfB5zASWW0Q2YvvRo0dWX1/vrd64VvNZYLVFcAfiGwFOSbHA4j2Py8f2UBY0cEenLjoiHDd1hDnu6QFXFjS2bdvms6UHIhzOWMnVREAEREAEREAEREAEREAERCATCUiAz3FWEIIIxYcuu/n169e92zmiMbEhEnE3RyBiuc2V+O5EBvN9jms63gUtLS1ejGMNT2yIbuqGnzhxwotxOKuJgAiIgAiIgAiIgAiIgAiIQCYSkACfw6xg4SZOmQRrWL5xOcdKiyDHnRwrLGWziPNGECLEEd9yNQ8PG9d0LN8sbhBfjxjHKh4IcVz44VtRUWE7d+70idpgL0t4eNY6QgREQAREQAREQAREQAREYGEJSICH5EtsMhnO79+/bw+d9RtBiCCn4VpOYjCs3ohA3M55rTZ/AghxOOOWHrim45YeCHFEOCXLtm/fbrt27XqVKX3+V9YZREAEREAEREAEREAEREAERCAaAhLgSXIMkoQhumtqauzatWuvjsSyjSUWazfJwXCJxgIri/crRJE9YR4Q3kGiOzwPeI+QABoLHsePH7eqqipbv3695iEy8jqRCIiACIiACIiACIiACIjAfAlIgCdJEPdnrN6Ib8qLIfxoiGws34huXM6xesvdPEmoc9wNwY1bOq7oeCA8f/7cu/8HCdqorR6UK8MtXbH3cwStw0RABERABERABERABERABCIlIAGeBM62tjbvbn779m1rbm729ao5DCs3ghvhjcs5CcEk9pIAGtEuQe3wrq4uH5NPRnri8GnMSWVlpY8J37Rpk5+fiC6r04iACIiACIiACIiACIiACIjAnAhIgM+ADTGHpfvu3buG+Mb9HOsrVu9AfONyXl5eLqv3DBwX8iPmAyFOXD6J8QIRjjUcd3RE+JEjR3zJMhZL1ERABERABERABERABERABEQgXQQkwGcgT8K1S5cu+RJjWL6DhF+4nJNoDXGHqFO89wwQU/ARYhuX9MRyZYkZ6bGA79u3z15//fUU9EaXEAEREAEREAEREAEREAEREIGpCUiAT83FW1Tr6urszp071t7e7hN/sStWVdzNsXwjwuVyPg3ANLxNcjZi9YkJ55HXNGLCSciGCCcmnPlTEwEREAEREAEREAEREAEREIFUE5AAn0Qcl2ZcmRHeN2/eNOK/sXwvXrzYJ1srLS21srIyH2OsLOeT4GXASyzfWMJZNCE2HPf0wB2dRZMTJ054d/SioqIM6K26IAIiIAIiIAIiIAIiIAIikEsEJMAnzTaC7fz58z7um7hixBuNOtPEelNrWrHEk6Bl4EsWUShVFmRIp4ssmGzdutUOHz5sr732Wgb2Wl0SAREQAREQAREQAREQARGIMwEJ8ITZxXL64MEDu3HjhhdvgQtzkOkcAY4LOjW/1TKbADHhJNBDgGMJHxwc9B0mU/2WLVvs0KFD3hLOazUREAEREAEREAEREAEREAERSAUBCfDvKVNTur6+3q5fv27Pnj3z8cO4nWP5xnUZt3NivuV2norbMpprEDoQxIQjwoMFFdzPScyGFZzYcGLE1URABERABERABERABERABERgoQnkvADHxZy473v37ll1dbXV1NR45ghtEqxh9WYrLCxc6LnQ+ReIAPHgWMKJ52euaWSyP3r0qE/MhkWcxRY1ERABERABERABERABERABEVhIAjkvwLGKIs6+/fZbbwGnjjRtxYoVPls2FlLclOV2vpC34cKeG3d0PBzwbKC0HK8R3Fi+Dxw44IU4Xg6Uk1MTAREQAREQAREQAREQAREQgYUikNMCfHh42KjvTbbz+/fv++zngeW7pKTEW75xV5b4XqjbL3XnZa67u7utpaXFu6UHNd1ZYKmqqvIx4cy1ysqlbk50JREQAREQAREQAREQARHINQI5LcDJkk25sbNnz3qrKO7oiG2E2Nq1a33st2K+4/Mnwfw+ffrUlygjNpzXWMKJ7z9z5oxPyqYa4fGZb41EBERABERABERABERABDKNQE4L8IsXL/qka4iyQIyRdI2YYEQ4ccJq8SKAJZyQg8bGRl/fnXkn3GDDhg32xhtveGt4vEas0YiACIiACIiACIiACIiACGQKgZwU4NT6RoQhwO/evfuqRBUxwcQCk3QNIS7rd6bcptH1A8FNHDgJ2dgQ5FjBKS93/Phx74rOPaC5j465ziQCIiACIiACIiACIiACIjBBIOcE+Pj4uI/1Ju4b93NigmlYu0tLS23jxo1efCsr9sQNEsd/if+mLviTJ098PDhJ2Wjbtm2z/fv328GDB3UPxHHiNSYREAEREAEREAEREAERSDOBnBPgxP4+fPjQ/vjHP/rM2FhEaVi9sXwiwmX9TPNdmYLLsxCDFwQbydloLLpQH/znP/+5jwvHNV1NBERABERABERABERABERABKIikHMCvLa21q5du2Z1dXWGKzpJ17B+Y/km83lc4r4RmNS8Dupe8xgsNoS9eViQQJyywSsO3gGwwP2cRHxs3Au8R+z/7t27vTs6GdLVREAEREAEREAEREAEREAERCAqAjkjwBFX1Pi+fPmyXbp0yccBI0qxcmL1Jus5MeDZ1BgT7tRsCO5AdAfPeWQftigFOCJ88kYNbd7LJu8BuGD9RoB3dHR4fpQhW716tb333nteiBMbriYCIiACIiACIiACIiACIiACURDIGQGOSH306JEX4DU1NZ4dllwsnlu3bvUxvwjITG+IRhqCGoHNokKwDQ0NeasuMc18thAtsIbjKcDiBdvKlSv94gViFaaBCA8eF6IfUZ0TVoQlNDQ0eHYBXzKiEwteWVkZ1aV0HhEQAREQAREQAREQAREQgRwnkDMCHJH6+eef2/37930SNuYdSyc1oNetW+ett5l+LyCqcZvu7+/3G2OabP0OLN2BkFyIMSGsAyGeaAlHlCPC8SRgy4ZM8nBi4aK5udm6urpeZcSvqKjwAvytt95aCIQ6pwiIgAiIgAiIgAiIgAiIQA4SyAkBTsZrBNann37qHxGyWGpxOyf52qpVqzJ26hGIxCcjEhlHsAXW7qmENuI4URgz1kTLdNjBcg2YBWKfx8ktEOSIbqziCPFg471Mjq1nbFjByYjf2dnpvQvob1VVlb377rtWXFxsuKariYAIiIAIiIAIiIAIiIAIiMB8COSEAG9qarJbt27ZjRs3fOZzxCgikcRrmVrzORC9gYs01llEYpAsLJh0xkL8dRCDzWvEN+NDRCIc2ficz8I2+oFVHct7sBDAc0Rr4AYfCHNeB41rIbxx8WfD24B+8T5iPdMafX/27JkX4YyPRhK2I0eO2L59+/wYMq3P6o8IiIAIiIAIiIAIiIAIiEB2EYi9AEdYIb6/+OILL74RiwhTrN+4nxO/nIkNEUiCMCyyia7miRZvhGxhYaEfC2KRLO4IXcaE+A3ELvvNR/RyzWBDeAeLAkH/nj59am1tbd4tPpEl10d0w5s+wRtvg0y1JjOe9vZ2n5SN8bKIwQLNxx9/7BdrEsem5yIgAiIgAiIgAiIgAiIgAiIQlkDsBTgZrq9fv24XLlzwVltEIWJw8+bN/hHLcCY1rMx9fX2vtkB8IwgR0fQfURjULEeAY2HmEZdvRGNg8V6IcdEPFjVYIMAdnv4hXIONBQNqa2OxDyzi9BnOxIWzQBAsEmQie/r95MkT724PP3h+8MEHtmvXLu+KvhBMdU4REAEREAEREAEREAEREIHcIBBrAY5YpOZ3dXW1PXjwwM8ogoqYXrJbZ4olln6yIb5xM0fE9vT0eEsznUZ4B8nNsCBv2bLFNm3a5F2keR8rc7pbsHCAG/fjx4+9OzcLCSSMC1y6GQf8WSyg9BsLIczBfKzzUY6bOaC/jY2NfgEESz+LBPv377dDhw55ER7l9XQuERABERABERABERABERCB3CIQewH+j//4j3b37l1vqWVqg5rfiEAss5nQEH64xpMoDvFNgrVAlNM/+okFlljk7du3e/dyhCHCO5PEK33G6o1wxSLOogfu/4hyPqPRX8aD+MaKj1t6Jo2DhQT6zlwgxukv98rrr79uyojup1D/iIAIiIAIiIAIiIAIiIAIzJFAbAU47tHE85L5HIsswhChR8kxtkyxvCK8ceOmr1iMEd/EWdOwFrNggOjGZZ7SWJm0cDDdPYfYRoRjxceaTP116mxj3ed9GgsIiHDGgwgnTjwTLPncJ4hw3NBxR2cu6CsW8NOnT/v54LWaCIiACIiACIiACIiACIiACIQlEFsBTlIwrK83b970CcICqyvim9Jj6W6BtRjRjdCjv4hx3qevJFSjr2Rqx/rNaxKrZVtjcYE4/Lq6Om8JZ5xYmGmMkzFhCSeOPRPc6QNLPYnlWBRhIYeG2//hw4e9FwILB2oiIAIiIAIiIAIiIAIiIAIiEJZAbAU4Ftc//OEP3qWbGGSsq2Q+x6KcCXW/sbRi7aZEGm7ngdWbCcQafPLkSS/2EOBxaYhwFkTYAqEbuKRj3UeIY/XPhMaiCAKcBQMa9wxx9x999JGSsWXCBKkPIiACIiACIiACIiACIpCFBGIpwBG2xH3/8z//s3d5Ruzhco4Vkwzc6U6+htjGstrS0vKT2t6UEzt48KB3O2exIFMEaRT3NjHVjJnYcEQ4LurMDSIc6zdW8CA8AOt4OhuLNghwXOjpIws4eE588sknPhQg3fdQOtno2iIgAiIgAiIgAiIgAiIgAnMjEEsBjsirqamxr776ylMJ4o2D0mMIvnQ0hBwbQhSrNwIviImmTxs2bLDdu3fbgQMHvBiNo8hjcQSrMgK8vr7elyyDCYIbEU48OFnqWXhI1zxxb+ChEJQkIyac18Srv//++35xhD6qiYAIiIAIiIAIiIAIiIAIiEAYArEU4IhvBN6dO3c8C4QdggnrKu7d6WoITcQcdbKJi8YSznvBAsGZM2e8AMfyHefGuFl8oEQcNdrxBkDgIsJZdGAhgvlK9wIE8fnMEzHrLJRwH7E4QkI2vCnUREAEREAEREAEREAEREAERCAMgVgK8K+//toLO0QeLXBtJo43nRmsSbKGdR7LKsnJEN80YtOJ+d66datPtpbOPvoOLfA/jDtgUVtba999992rZGeIcCzNLEIQE57Ohhs6bvKUJGORgHnBDf3NN9/0IjydfdO1RUAEREAEREAEREAEREAEso9ArAQ4VlREE6XHqqur/XMEHWKOZGZYVHmdjoblG9dzxBziO0i6Rr9wOyfDdibEp6eSDe7oeANgBccdPVgwYZ6CRRNc0dNVnow5oo+UscMajks8WdvffvttO378uPemSKebfCrnStcSAREQAREQAREQAREQARGYP4FYCXBELiLuiy++sHv37nk6uJxjScWtOV1iCYsvAo6+Yf3GnRlRSTmrY8eO+aRr9DFd/Zv/bTT3MzBneAVcvnzZzxmLEzTcvSm9Rkw4ojddbBDhDx8+9JZwrPa0N954w15//XXfv3Qt6PiO6B8REAEREAEREAEREAEREIGsIhArAY7IxaX5ypUr9uTJEz8RuDMj4tLpzozgRnxTcgxBhyDH2k0s8b59+/ziQLqsvOm+W2EBE+aN2H22IB6cxRNKf8EqXXzoC14LJM0LFgeYs6NHj9rOnTvT1q90z5uuLwIiIAIiIAIiIAIiIAIiEJ5ArAQ4Ivf8+fO+zFVHR4enQcwuLuiIuHQ1xBv9wfqN4MStmnJj7777rk8MhyU81xuJzihPRvw+CymBlwCLJ8xfumq3M1/MW+C9wDzhTbF37147ffp02hPF5fp9o/GLgAiIgAiIgAiIgAiIQDYRiJUAx8L8T//0Tz6umNhd3JaJsQ7KWqV6YgLr7rNnz7yIw92aVlFRYXv27PGuzLhaq00QwBWdBRTiwRHkzB+LFXgvsOHunWpXdOaQBGzEqrPRCgoKvPX7448/jlWd9olZ0L8iIAIiIAIiIAIiIAIiIAILRSA2AhyhhNv53//93/tkZwBDsG11mcVJ6JWOWF1ihlkIePr0qbfqBpP42muvefGNqEyXa3XQl0x6ROhS9uvzzz/3cddB37CCs2iRrlhwXOTpFws83Gc0ypD97ne/87HqqV4UCLjoUQREQAREQAREQAREQAREILsIxEaAE5/b0NBgv//9773FEsGdGEOcDpGEoGxra3tl/aaMFTHNR44c8bHf9C8d/crUWxShSxb7ixcv+hruCF4aFucgIVs6SrQhuoMYflzjeY1nxS9+8QufX4B5VBMBERABERABERABERABERCB2QjERoAjdEnk9eWXX3oRRykrYquJtUbApbqRvKu3t9dbv3E9R1ziTk0GbeKHseiqTU2AWPCbN2/atWvX/A7MJXOI6E2XFZw4fqzgLPQwt9Ruf//9918liZt6JHpXBERABERABERABERABERABH4gEBsBTq3mW7du2dWrVw3Bi1Aj9hv3ZYRvqhuWUpJ3BdnYsXSTSOyXv/ylbd682fcv1X3KluuRhA0B/sc//tFbm7E4M594DyDE0+G2z2IKVnBi01lMwSJPCTkWU0j0pyYCIiACIiACIiACIiACIiACsxGIjQCn7vf169d9LWlir0luRow18d/pcBFGsGE1xTJPoz9YvT/66CNvPU1HTPpsN0OmfI7AZT6p584iBgsqWMERusxnOhLXYfmmL8wn9xdZ9auqqrwIxzKvJgIiIAIiIAIiIAIiIAIiIAKzEYiNAL9x48ar+t8IOCyl69at84+It1Q3MmZTeqy/v99fGvG9f/9+Xz+a2uRqMxMgczwLKrdv37aenh5v9caDIFhUmfno6D8lNp1FFeLS8W5gEaCystLOnDlj27Zti/6COqMIiIAIiIAIiIAIiIAIiEDsCMRGgJO467vvvvNuwsToItaCmOFUuyzjMo2ARIBjLcX9HFflt99+2wvIdFjks+3OZeEChp999pk1Nzf77pOAjYUMwgpSnbyOeaRPjY2N3iLPHOKG/uGHH3pLeLbxVX9FQAREQAREQAREQAREQARSTyA2Avzs2bO+hjSuwghgrMzEWiPaUinWuDYW0qD2N6+JQT969Kj97Gc/85bcVPYn9bdUNFdkEYW5/Id/+AdfkgymcMOrAVf0VGdDZx7Jav/w4UOf5C/Isk8m9AMHDkQzaJ1FBERABERABERABERABEQg1gSyXoAjjHA5/+qrr7wADyzOxApTqznVYpe+INRaWlq8yzJ3D6IRAX769OlY30xRD47Y708//dRntyeenoYLOhbwdMSB44aOAKe2O41765NPPrHDhw+nfEHAd0D/iIAIiIAIiIAIiIAIiIAIZBWBrBfggaX066+/9i7o0MflnAzoZM1OdcNSS6Zs3M+x4NJwPz906JCPAU91f7L5erC8fPmy1dTUGFnuaSys4PrNY6oXV1gQoB8ssLDQQiOpHgKckndqIiACIiACIiACIiACIiACIjATgawX4Fi8KQ917tw5n7SLwVKyCoG2YcOGmca+IJ9hJSVTNonDeI5IPHXqlBffuMSrJU8AkXv//n0/r4hwGkKXxRUs4anOJI8AJ7SAMmncdzRqgbO4Ulpa6l/rHxEQAREQAREQAREQAREQARGYjkDWC/Ag3poEbNQBpxFzjUjD9TvVDdFN0jASdgVxy4i0ffv2qV50yMnAuwHBe+XKFb9xeLC4wtymWoAzn8wtAhwxTiMLOhbwdNxrvgP6RwREQAREQAREQAREQAREIGsIZL0ARwg9evTILl26ZHfv3vXgAyspybpS3XBPfvr0qY8TxoKLBfzP/uzPbM+ePb52dKr7k83XI76f2G8y3J8/f94PhZJy1OAmw306BHhra6uP7WehhXby5ElvAU9HuIPvgP4RAREQAREQAREQAREQARHIGgJZL8ARQrgpX7161erq6jx4aoAHbsqpngnivlkQwFqKgESA/+Y3v7Hdu3dbOuqRp3r8UV4PfiywfPvtt/bFF1/4UyO6KTGHO3+qy8vhdk54ATH+QSK2Y8eOeQGuWuBRzrzOJQIiIAIiIAIiIAIiIALxJJD1AhwhhOX7+vXrVl9f72cJgYYAT3VcLoIxEOBBNnbKZf32t7+1Xbt2pTxpWBxuWdzQEeBkQ+c5CxossJDhPh0CnOR6CHA8HWhHjhzxAnznzp1xwK0xiIAIiIAIiIAIiIAIiIAILCCBWAjw27dv240bN6yhocGjwkUZAU627FS2ICM7mbIR4AhEYpZ//etfmwTa3GfiwoULXoDDlEUOBHg6arxzfVziEeBBhvuDBw96AV5VVTX3AepIERABERABERABERABERCBnCAQCwFOhmwEODWaaYWFhV6AI8JT2RDgJOh68uSJL1OF9Zt49F/96le2ffv2VHYlVtciBvyzzz7zWeUR4DBFgOPSj0U8VQ0B3tXV5bdAgB84cMAQ4ZSaUxMBERABERABERABERABERCBmQhkvQDHFfjmzZtWXV39qlZ0IMApRZbKRtI1sp83NjZ6AR4kDPvzP/9zU4zw3GeCBHtffvmltzqzyIEAr6ys9AI8lYnYmN/JFnAJ8LnPq44UAREQAREQAREQAREQgVwjEAsBTvw3JciwPNMQ3sGWygnFQooFnNJZiLW8vDzfj08++cS2bt2ayq7E6lqXL1/2ApzFjUCAkwUdvqkU4IEFPNEFXQI8VreaBiMCIiACIiACIiACIiACC0pAAjxCvJMFOPHfxKF//PHHPmlYhJfKqVNJgOfUdGuwIiACIiACIiACIiACIhBbArEU4IELOo+pbIEAb2pq8hZwCfBo6E8W4Pn5+WlzQScGXBbwaOZVZxEBERABERABERABERCBXCMgAR7hjEuARwgz4VQS4Akw9FQEREAEREAEREAEREAERCBrCUiARzh1o6OjPgmbLOARQnWnmkqApzsGPKgDrhjwaOdaZxMBERABERABERABERCBOBOIrQAnCVu6XNCbm5vlgh7hX810Apws86lMwkZivcAFXQI8wgnWqURABERABERABERABEQgRwhIgEc40YELugR4hFDdqSTAo+Wps4mACIiACIiACIiACIiACKSHgAR4hNwlwCOEmXCqqQT4hg0b0lKGjARsbLKAJ0yQnoqACIiACIiACIiACIiACCRFILYCHPfzdLigU6taFvCk7r2kd5pOgKfLBb2np0cCPOnZ044iIAIiIAIiIAIiIAIiIAIBAQnwgEQEj1jAJcAjADnpFBLgk4DopQiIgAiIgAiIgAiIgAiIQFYSkACPcNokwCOEmXCqqQT4+vXr0+aCLgt4wuToqQiIgAiIgAiIgAiIgAiIQNIEYi3AV69enTSIKHYMBHhLS4uyoEcB9PtzTCfA0+WC3tvbKxf0COdXpxIBERABERABERABERCBXCEgAR7hTEuARwgz4VQS4Akw9FQEREAEREAEREAEREAERCBrCUiARzh1EuARwkw4lQR4Agw9FQEREAEREAEREAEREAERyFoCsRTguJ4XFRWZXNCz9r78UcenEuAVFRVpiwGXC/qPpkcvREAEREAEREAEREAEREAEkiQQWwFOCbJ0CPCBgQFTDHiSd1+Su00W4CtWrDCSsKUjBpwa4BLgSU6cdhMBERABERABERABERABEfgRAQnwH+GY3wtc0CXA58dwqqMlwKeiovdEQAREQAREQAREQAREQASyjYAEeIQzFsSAt7a2Kgt6hFynEuDpcEEfHx83WcAjnNjQp3ppw+PDNjQ+ZCMvhkMfPdUBhcuKbfmS5VN9pPdEQAREQAREQAREQAREIHICsRbgq1atihzYTCcMLOAS4DNRCv/ZdAI8nS7oQ0NDfiAHDhywgwcP2t69e8MPTEeEIvDy5QtrG2q11qFm6xxqD3XsdDvvLTloZSvWTvex3hcBERABERABERABERCBSAlIgEeIUwI8QpgJp5IAT4CRw09fvBy3B711Vtt9yx721UVC4qPKX9n21VWRnEsnEQEREAEREAEREAEREIHZCEiAz0YoxOcS4CFghdhVAjwErBjvOu4E+L3uGqvpvGp1vTWRjPTfbP1vrarwYCTn0klEQAREQAREQAREYDoCIyMjhgfl4ODgdLtM+/6SJUuMBNN4fy5atGja/eLwAZy6urrs5cuXoYeTl5dnJGvOz88PfWwqD5AAj5C2BHiEMBNOJQGeACOHn0qA5/Dka+giIAIiIAIikOUEOjo67Pnz59bW1hZqJAhuROXOnTuN8NrFixeHOj6bdn7x4oXPt3T37l3jedi2Zs0aYysrKwt7aEr3j6UA5+ZklShdMeD8cZGwa/ny5VZSUmIff/yxbdmyJaUTG6eLzSTAU7kKyJz29PT4MmSKAU/9HSYBnnrmuqIIiIAIiIAIiEA0BGpqauzBgwdGrqgwDasugvLMmTNWVFQU5tCs2xfvgMbGRjt37pxh2Azbjh49alu3bpUADwsu7P5M1PXr1+3WrVv25MkTf7gEeFiKmb2/BHhmz0+qeicBnirSuo4IiIAIiIAIiEBUBHClxpp79uxZq6+vt/7+/lCnRnxv27bNDh06ZAUFBaGOzbadm5ub7f79+3bz5k1vzEy2/7jos1Dx1ltveaMnHgOZ3GQBj3B2Ahd0WcAjhOpOJQEeLc9sPZsEeLbOnPotAiIgAiIgArlLAH2A6P7qq6/s8ePHoUFg0UV8r1+/3ovM0CfIkgNYqMD1/M6dO9bU1BTKBR3BXVpaaqdPn/acMn3IEuARzpAEeIQwE04lAZ4AI4efvhLgHREnYStSErYcvq00dBEQAREQARFYUAJ9fX3eS/fGjRs+Bjzsxfbt22cnT560lStXxjb+G/GNjuI3f3V1tZGILUwStuLiYtu+fbvBivDfTG+xFeCrV69OeQw4McIDAwM+tgNXE8WAR3P7TyXA161bl/JMkEEMOF+kigGPZm7DnCVRgNdGlAX912RBlwAPMw3aVwREQAREQAREIAQBYr4vXbpkLS0todzPyXOEmERUHjx40HCzTmXuoxBDnPeuiG+S1BFWXFdXF8r6zcXxDjh16pRPwJbp7uf0VwIcChG1RAu4BHhEUN1pJMCjY5nNZwoE+K0ILeAS4Nl8R6jvIiACIiACIpDZBNAG5KjC/Zy8VRhzkm1kOyfzeVVVlU8sluxx2bgfhi1iv+/du2fPnj0LNQRiv4mRf/vtt72LfjZkiZcADzXFM+8sAT4zn7l+KgE+V3LxOk4CPF7zqdGIgAiIgAiIQNwJ4DXZ0NBgX3/9dSiXargsXbrUu54jLrPBrXo+c9nb22vfffedz4DO8zCNsmMsVJw4cSLMYWndVwI8QvwS4BHCTDiVBHgCjBx++mMBfisSEr/e+t/JBT0SkjqJCIiACIiACIjAZAKPHj3yLtUkFwsT04wVF1fq999/3yorK33Y5eRzx+U1+ona6HgJdHZ2hi4/tmvXLu8lwEJFtjQJ8AhnSgI8QpgJp5pOgLMymEo3E8WAJ0xKGp5KgKcBui4pAiIgAiIgAiIwZwIkXiOrNxWSwrT8/Hxbu3atvfHGG1ZeXh7m0Kzbt7u727vpX7x4MXSMPDrg2LFjXoCTiC1bWtoE+Oj4qI2Oj7ht1Mbc9uLlizkxI2aAwvZ3795zKesnYgbIEriywG3uMZXthYvrGHT96ezo9MkDiEkoKiqyDz74wK9epbIvcboWX17nz5/3sTPE1sO1bE2Zc80hGcXilA31xYtx6+/rd18OAz47IxcmLmfPnj3G6ttc25LFS2zpkmW2bEme5bnHJYuXzvVUsT5OAjzW06vBiYAIiIAIiEBsCGDtxnBz7tw5L8BHR0dDjQ23an5f4lpNYuk4N2Lk8RDAVX94eDjpoZKUjoUKFinghGEuW1raBPiTzkf2oK3OGlrr7FnnE+sfDufvHwDm5u7q6rZutw0ODPq3Fy19aYuWvLSXi+Ym6oNzh39cZPZikb0cdY8vF7lshYttWd4yn5mPBQG1uRFgQYMMkuNj4859x51jsZvfPOaWFyluL5zgH3dz7DZaYVGhFRUXWmFh4Zw7UlKwxjaWbrHt5TttR/kuK1+1bs7nivOBEuBxnl2NTQREQAREQATiQ4AyWli9r127Zg8fPgzlfg6FLVu22Jtvvul/Xy5btiw+YKYYCeL76tWrTs91hUpSh/jesGGDr5G+cePGrMoQn3IB3j3YZVceXbA7T6vtcVu9tfU9t+6BThseG5piSpJ4y2kwVpVw/34xPiG4Ed4vbWJL4gwR7rLI+G/xyyXunO6Z02iLnGvE8uV5ttit0qjNjcDY6JiNDP9QD9Atrbj1jTH+ndsJ53HUYmMeF7vyARMCHCv80mVLbck8Vt0K8lZZ8cpSK1tdbjvWVdn+yiN2fMspZwnXPZM4VV6Ad9XYrc4rVtsTUQz4tn9re1SGLBGznouACIiACIiACMyTAMnXEJZk9g7rfl5QUOAtupTVQnzHtfQYXgL9/f1269Ytw9sVPRcmTh4v4yNHjtjmzZstm9zPubVSKsCHx4at/nmd/aez/6PVPq2xrr72ed7eOlwE4kVgbckGe33nW/Y3b/0PVrii0Lumx2uEcx/NhAC/ZdW+DJkE+NxJ6kgREAEREAEREIGFIoCIpKb1t99+62t/DwwMhLoUVt3du3f72t+hDsyynfFibmxs9C761P4O04j9Jkb+nXfe8Rnis81LIKUC/GnXE7vYcM7+7uv/yYvvucZ9h5kg7SsC2URgsbN6716/z/6bd/5721txwMqce7raBAEJcN0JIiACIiACIiACmU4A9/Pm5mb7/PPPvYU3jFWXsR08eNALcIR4nBsWbyzfDx488KGmYcZKhnjczt977z2fLT7bvARSKsCrn163L+/+i/1/V/6Li/nuc67ZK6yktNRW5q+KNL3+0iVLfSB+qpNZ8Qc27hJ1jYwMp8U9OsyNm8374pqdl7fcFqcwARu8cHkfd6EOJA0cd8ngomrDw0PW19/rkve1+9iXjWVb7OdHf2XvVH1oW0q3RXWZrD+PBHjWT2HKBzD6YsT6Rvv8dZcvWW4rlxakvA+ZesHxl2OezfD4sJWtKLMli7IneU2mMlW/REAERAACWL+J+6aKT5ikYohIEonhek5SsVWrVsUWKJppcHDQ10fHCk5S7TCtoqLCMzpw4ECkGjJMH+azb0oF+LkHX9sfbv7fdqn2GxsaGbRVLqvf5s3brKyk3PJX5M9nHD86lpt36dJlKXfffekyuY+Pj7mxuQx+7sZSWxgCWIlXLM/3MTGpXPHiy2JszGXuJ9+AW2iJqvX29VhrW7M9fvzQRt2q6ZrCdXZi99v2y6O/sT0V+6O6TNafRwI866dwwQbA4tjYi1EbcYJ7eHzIhsYH/TYw1mc9wz1WlFdi5fnrbG1+xYL1IZNPjNgecnlWRl4M2/CLIc9ocKzfuke7/P+qDpcdt/wlShSayXOovomACGQPAcQ38d88hsl+jhs1SX0R4CRhI8t3XBsLE9T8pvZ32Bh5mJAhHvGNG3o2ckqpAP/szh/s99f+T7vz+JqNjA67DNLFtmPHblu3psJZwWWZiOsfmcY1M4Hu3i571tzoXHBqXbK5YSsqKLW9m4/aX536aztUeXTmg3PoUwnwHJrskEPl3uge6bKO4efWMtBkT/sfW/PQY+txApN2uOSk7Ss5YjsKd4c8czx273deAM0DT+35UIu1DjZZ61CTdYy0ekG+dsV6+832v7bivNJ4DFajEAEREIE0E8CtmuznJBijfG6yDYs3wjsQlskel437Ib5ZoKiurjbqgIdtr7/+ur322mtZaf1mrBLgYWdc+4tAxAQkwJMD+oMAv2J1vVElYft3yoKeHP6M2Qsrbr+z3vaMdFv7YKt1jrhKGiMdNjg+8L11d9hbv4edFXzs5UTd1QkBfjT2Apy8KgOOTZfj0Tncbt3D7nGkzXrHuh0TZwF37ubeCu6ej74cNvafEOB/IwGeMXe4OiICIpCtBBDblNJCVN6+fdtXaAozFmp/IyxxryYTepwbtb9x0cf6HcZNH2t3WVmZHT582KqqqrI2Q3xGCPC1zgJeIAt4nP/ONLYZCHT1dFlTiyzgMyDyH0mAz0YoXp/7kA/nOo2QRlSyDY73G9bcvtFev3WNOJE52mm9o9027sT2dKUJ4yjAxxwbBDWLEUNjA57NwKjjM9brvQGw/ve6rXuk04ZeTJ+Bt9xZwH+7XQI8Xn89Go0IiEA6COBu/ujRI5/VG+tumEb4LEnX3n33XS++eR3XBieynp8/f96L7zBeAsuXL/cJ6sgSn81J6tIrwAsnXNAR4HJBj+ufmcY1GwEs4E2BC7rLHyAX9KmJJQrwqOqA/9fbZQGfmnb63yWWu3e0x9qGWq2l/5lzm37mXKibnDW3x1txw/TwCC7opfGwgLPIgOW6xy06tA85l/v+JmsfbnWcJh5HvrdsJ8sHC/hvd0iAJ8tL+4mACIjAdARIJIb7eX19vbW1tU2325Tv436+detWe+utt3witil3ismbuJwTI3/x4sVQIyLvE54BJ0+etE2bNtlql0ssW1vaBfj2HbsUA56td4/6HQmBCQH+dCIGXAJ8WqYS4NOiieUHDb11Vt1+1VqGGp31e8DIaM7GfeAkaKgxx0mAw6BruMsut/3JHvbd90xIQMf7uNyHLe8pAR7qVtLOIiACIjAlAay4vb299sUXX/ja32GSr3FCYr+x6rJR4zrODet3bW2tX6gIM06S1OF+Tu1vHrMx+VowXgnwgIQeRSBNBCZiwJ9aPUnYJMCnnYWFEeD/1sWAH5r2mvogfQTudN20iy1nrWnoiReX8+lJnAQ4ZcOwfH/d9Ae733tnPlj8sRLg80aoE4iACIiADQwM+Nrf586d83HgYZEQ07x//34rdeWZU1nhJ2w/57M/oWUsVFy6dMnu37/vs6CHOV9xcbGrnrXZjh07lvUl2iTAw8y89hWBBSAgAZ4c1B8L8OrkDpplrwkXdAnwWTCl5eMJAf5NRAL8VGxc0H8Q4P9vhAL83ysJW1rucl1UBEQgLgRIJoZlF9dqsp8n2xDbWHYpPYYAj3Ps9/j4uK/9ffbsWZ8BfcyV9Q3TcDuHESKcWPBsbhkkwFWDNJtvJPV97gQmBPgzWcBnQSgBPgugmH0sAT71hEqAT81F74qACIhAOgk0NDTY1atXfez3yMhI0l3Jy8uzdevW+azexIDH1foNELwEWlpa7MqVK95bAIt4mEbtb+K/iQPPZvdzxpwRAnztmnVKwhbmDtS+sSIwEQMuAT7bpCLA73bdsuqOK1bbE40F/DfbScImC/hs7NPxOQL8u5ZvXD3vJy7pWvI/Zqbq65ESZ1mISRK2QIB/1RSdBfwvdsgCPtV9o/dEQAREIBkClNHC8o1rNc/DZPVeuXKlt+ru2LHDysvLk7lc1u5D7e+amhpjsYJybck2FiVIUrdv3z5f+xvxne0LFRLgyc6+9hOBBSLQ7cuQEQNepxjwGRj/IMAvOwEeTR1wCfAZgKf5ozudToC3RueCLgE+9YQSAy4BPjUbvSsCIiACsxHAiov7+Z07d+zmzZuz7f6jz0m2Rlzz6dOnvRUcMR7XxqJEU1OTLz2GEA9T+xtOuJ9jASdJXRxamgV4kZEFfW2ZLOBxuJk0hrkR8BbwFizgEuAzEfQCvBMLOAI8Kgv4X9ueYlnAZ+Kers+8AHcW8Kahx/NPwlbqLOAlrgxZUVW6hhPZdScs4K32FUnYem7P+7xr8wMBXjbvc+kEIiACIpBrBBDgt27d8vHfT58+DTV84pgrKirsvffey+qSWskMGsH90NVG//zzz41Y8DANi/fRo+7/4c5LYO3atWEOzdh9M0KAl0uAZ+wNoo4tPAEEeLME+KygJwR4dcQu6BLgs4JP0w6RCvDABT1WAty5oPdEkAVdAjxNd7guKwIiEAcCWHa/+eYb71bd19cXakiU0tq2bZsdOXLE8vPzQx2bbTtj/SbzOXXSw8R+Y/1moeLdd9/1VvBsT74WzFvaBfg2WcCDudBjjhKQAE9u4iXAk+MUl72iFOCHnQA/QAy4BPhPbg9ZwH+CRG+IgAiIQFIEyOJNxvOvv/7aGhsbQ1t2SbpGVm/cq8mEHueGiz5x8ngJhBHgCG5Ks7311lveTT8ujCTA4zKTGkfWEpAAT27qEgX4vQhd0PfKBT25CUjxXreJAY/KBT2GAvxLkrBFZAH/nU/CJhf0FN/iupwIiECWE+jt7fXC+/r16z77eZjhYNk9ePCgnThxwlasWJH1ScVmGjteAhcvXrTbt2+HKtHGOUtKSryXAAsVxMvHpWWMAM/Pj2/igbjcLBrHwhDo6e2WC3oSaH8Q4JctOgH+NyYBngT8NOxyu/OGE+Bnv48BH55XD46UvBE7C/iEAI8iBnyDSYDP6/bSwSIgAjlKoLW11btUY/0O434eJF9DgB84cMB4Hdc2OjrqM55Tou3BgwehvQQqKyv9IsWaNWv8QkVcOGWEAJ+IAZcAj8tNpXGEIxBYwBse3FcW9BnQBQL8ZqRJ2CTAZ0Ce1o8mBLhLwjbokrC9nG8ZshgK8GeUIYtAgLss6L/b+R+sOE8W8LTe8Lq4CIhAVhEgkdjjx4/tT3/6k7fqIjSTbUuXLrXt27f7rN5btmxJ9rCs3G9wcNALb9zPiQMP03A/h9Obb75p1EvP9trfiWNPuwDfun2nsqAnzoie5xyBVwK8XgJ8pslPFOD3uqPJgv7bHRLgMzFP52cI8Au4oCPA51kH/GhpPAV4XURZ0BHgJRLg6bzddW0REIEsI0DsN0nFSMAWtiEscT0nBhwX6zi37u5u735O7Dcu+2EaVu9du3bZ8ePHwxyWFftmhACXBTwr7hV1coEIBC7oDRLgMxL+sQAPV2tzuhNPCPDD032s99NI4McCfH4u6BMC/LVYJWH78tk/WzQC3LmgS4Cn8U7XpUVABLKRAG7ndXV1vgRZmP5jxS0oKPBZvdevX+8tu2GOz6Z98RKgRvqnn35qPT09Rix4mEbNbzYyxcetSYDHbUY1nqwjIAGe3JRJgCfHKS57SYBPPZNBHXAJ8Kn56F0REAERSAWBmzdv2r1796y5uTnU5RDf69ats5MnTxplyBYtWhTq+GzaGYs3bvrffvut4YoetsGoqqrKioqKwh6a8ftLgGf8FKmDcSfQ4+uAN5ks4DPPtAT4zHzi9qkE+NQzKgE+NRe9KwIiIAKpIIAVl3jvCxcuWG1trQ0NDYW67Nq1a71VF9fqVatWhTo223bGSwBGeAqMjCSfywUvATLDnzlzxnbs2BGr2O9gDjNEgK+1lcqCHsyJHnOMwIQFXAJ8tmlHgN/prLZql4TtXrdc0Gfjle2fRynAj/gY8NdsZ0zqgLcNtRoW8PuRxIDLBT3b/1bUfxEQgdQRGB4e9iXHrly54q27YWpa00uSip06dcoKCwtjX/u7urrarl275mO/w7if4yVAbXSyxFdUVKRuclN4pQwR4OWWv0JZ0FM477pUBhHo6eu2lhYE+ANlQZ9hXgIBfrP9UmQC/C92/ntXhkwx4DNgT9tHXoA3f+2TsI28mGcMeNlpV4YsRgJ8cEKA1/XUzHt+1uUjwP/WSpYrC/q8YeoEIiACsSdAuTGSr5HVm/jmMI3ka7hUv/HGG158x9X9nEUJPAOoj37jxg0bGxuzMAsVJKY7dOiQkSE+ju7n3DNpFeCrC4ts2/YdVl62VgI8zF+w9o0VAQR4sxPgDyXAZ5xXL8A7qu1mhwT4jKBi8mEgwJ/5LOjzFOBYwMuOxccCLgEek7tcwxABEcgmAojI9vZ2n9Wb2G8yoYdpuJ/v2bPHDh+O98I/ydfgc+vWLe+CHoYR7ufEyJ8+fdpKS0uNRYs4trQL8K3fC/CVsoDH8f7SmJIgIAGeBCS3iwR4cpzispcE+NQzSQx4mwT41HD0rgiIgAgsIAEsuZTT+pd/+RfDFT1sw6WarN4bNmwIe2hW7Q8b3M8fPHhgra2tofq+cuVKb/l+5513Yu2in0ECPD/UBGlnEYgLgZ6+HlnAk5hMCfAkIMVolx8E+KNo6oDLAj7l3SEX9Cmx6E0REAER+AmBjo4Oa2hosEuXLvlEbD/ZYZY3EJU7d+40RGZcG7HeeAacPXvWnj17Fjr7OYsTJKjbv39/LJOvBfOeIQK83GQBD6ZEj7lGoNsJcGLA5YI+88zHTYC/tJf24uULvy2yRbZ08dKZAeTYpzWd1+3C9zHgoy+Sz546FSZfB1wCfCo0JgE+JRa9KQKvCPD/nsExV0LJuR8vWbzE8pYst8WLFrtv7fiWj3o1eD35EQHEN6XH6uvrDTfrZFteXp6tXr3a3nzzTZ9cbPHixckemnX7Efvd1tZm586d849hkq8x2H379vkNN/Q4c8oYAa4kbFn3N6YOR0SALOgtrc0S4LPwfCXAScLWE00W9IVMwjb+csy5zSOwx238xbi5Z+73G/++8D/k3CsbezHqrLujtmSRK7mxZMUEAVcTdDH/uR94i937bHzORsKWXPnRJwE+9R+EXNCn5pIN77LgxvcY3wk8/2ERbuL7AYE3W1vkhd/E9wPfCRPfEYvd94MThBKFs+F79Xki++B7emJO+M6e+K4Odh5xC4AdQ+3+/eVOfK/OK3QLpsvct7QT4N9/J/vva5v4jg7mhO9xBHuufGcHvOL6iJCk9jeu1d3d3aGSipHxnHJae/fu9bW/48qIcXV2dtrDhw998jXqgCfb+H2D4D5x4oTPfk7sd1yT1MEk7QJ8y7bt3ydhkwt6sjep9osXAVzQW1qb7FE9WdBHrKig1PZuPmp/deqv7VDl0XgNdh6j+UGAX7S7EZUh+4ud/8H2lSxMMpTngy3WOdxhvSNdPma3d6zHBsb6rN898gPPqfCJ/9yP7glhPbEivnTRUifGV1pxXqkV5pVY8fJSl6F6jZWuKLWVS1fljKW8puMHC/h8s6C/Rhb0mFnAv3j6TxZVFvS/3PUflQV9Ht9NyR7aM9JtnUMd7nuhzX0X9E9so33WPdpug+MDfjFutnMtdwt1BUtX28olq6xkhftecNnrVy0rcvNXYgXLVufM98NsnGb7nIWs/tFeNxftxrz0uA7bAZQAAA2ySURBVO9ptn73HT0w1uvnIziH81Vyi6Vj/iXf1X4x1Fu/nbR2r/MWOVHu5qBwWbHlu+/owuVF/jXvlawoMeZMLbsJIL4HBgaM0mM1NTWhrN+MvLy83F577TUf+x332t9PnjzxCxW4n4epkb506VKfdO3o0aPeTT/O1m/uiTQL8ELbso0s6CpDxmSo5SYBCfDk5j2TBTiW7J6RHutyP+Y6R9rdY5v1uh93g+5H9pBzXexzP+iGx4ds+MWQjbhHpPd0DevJskXL3A+5Ast3QpzHld9vRU6Ql64oNx7ZsMRkahscG7Dng81z7l5DT53d6rhm7cMtNvZydM7n4cBdhQdsx+oqq1y9ZV7nSebgVcsKbZWbl2XOQjaV5Yssuv5H/qi7N5zoCttG3L3W5RZ2rradt8b+hrCH/2T/Ure487PKXzrBkJp7aU1+hbufo4t/bB967oXUTwYW4o3CvGK/0BXikBl3xdNl1HnA9H4v7LqHO/33woAT2xPCu8+wqo44Ecji0uB4v89zwHfcbG2p+27Ic4Iub/FyJ8T5bljlBR7fEQXLVnnhx3cEZeUK84q8hXyq+3C268Tpc75v8TTq9d/RHdY9wtbpvqO7bcD/HQ76v0XczJmPEfc9nWzYC2yX+EXTfLdwmu/+7pfbiqUTz3nNvV7g/rYQ50XLi92cFPsFlGVLpv5+iBP3OI0F4wjCEvH96NGjUENbtmyZVVZW2pkzZ4z61ryOayNJXW1trc8Sz4JFGDf9FStW+NhvyrStX78+rohejUsC/BUKPRGB9BCQAE+OeyDAb7RfjLAO+Nws4IH7IlYURBQ/tJsHmqyp/4k9G3hszYNPkhtUyL1WLS2yivxNLm53va0vqLSKgg2vfoAj+DKptQw8syut3865S+3Dz10N8CdOsPQ5j4HZhclMF1qzvMLKVqyzEudVsNBt0+pttmX1DmeVXO3Ez0/j/LiPm/qf2rP+x84zoiV0d8bc8SzsNA40eCER+gSTDkC47S489EMIxKTPo355bO0btm5ldBmAb7Rdtqd94X4QTx7TjuIqqyo+MPntUK+D74TAst032mOt/c3WOthkLYPP3HfCY7eQNGFFDXXiEDsvX7zCLcyVWmXBVlu/auJ7ggUh5pgQFxb3cqmxMDrkFjyZE8T284Fmaxp4ai1u6xxp8wsfqeBRsLTQyt130Fp335evXGdly8v94gieTljHcWvPtIbFF9FJNmtEFUJqqjrOiEnim4PHuLoMIyavXr3qXatxsQ7TqGO9fft2H/8dVz4BD1zzb9++bZcvXw7eSuoRLsTInzx50jZu3OifJ3VgFu+UEQJ8jSzgWXwLqevzJdArF/SkECYK8Khc0H83Rxd0+oKFt9H98L/ffcce99U7N9JOH9M9Efs9P8E4HRCiw308uIsrxAW13InKfaVHveBb46xemdRqu2vs/7j/n+bcJR8t7zhPuOvP+TT+QISHj5F1/Ba6vbbmtJ0oP2Nl+Wv8XE2+Hpa1u501Vt1xxR703Jn8cVKvEXvcZ1GwwYI3sXiTmoRSv9n576yqaH5iNxHS7x/+73bD5YWYT3uz4gN7f+O/ns8pvIsyQu9uV401dN9zi0ePncAb/P47YSLum3lbyMZcsuiDRZbvieXOArtj9V7bXbLftq7e7j1q4i4AEvm2D7XZo94Hdq/zljUPNfqFK767g7+dhZ6PoC8T39sTOT2YF4R3RX6lbV61wza7BbtNq7ZkVKwrQhvhTR3nx48f+7rXfX3Oa8MJ8sTGvVRR4RYWXG1rNp4jxuPYenp67LPPPvMltUZHw3lkbdu2zZceI7N3nP/+uG/u37/vk9SRrC5Mo/b3mjXOG+tnP7Pi4uJYcwq4ZIYAL8UFXTHgwaToMbcITAjwZnvUoBjwmWaeH063O27azbZLLgb8xky7Jv3Z73ZhAT+S9P78YGsffG5P+hrcD7v71uVcGXEH7h3r9i6LU1kIkj55yB2XuKzpKxbne5f0NcvX2fqVlbajaI9zcyTmMP0WlbtdN+1/q/1fQo4q+3c/Uf6WnVz3rq3JL59WgN9uv+lE48VIYrizjdhf7v6Ptrf4UGTd/r/q/1e71nZhXud7e/1/ZT/b9IvQ52ABBFfy5v5GZ4V/bE8HHn0fU0wsca+LHJ7aahj6QnM8gIUnQlWK88pszYq1trFgi21ctdnFja/xmbzneNqMPowFLoR3Q3et80p6am0uhIU4bzxpEN6Z0FggwSvBx407l3Q8c9YXbLYK9x1enr/WJW5b6pZSUrMgNpkHQrupyXlzuY2SWyTRIo4X0TmVOzEu1fn5+UZcMwKKElKIcdyJ4yI2sX6zGHH+/Hnr6uqa0hNgMsfE18Q050LyNX7/fPfdd772N/dOmEaSuk2bNnkLOPdULrT0C/Ct200W8Fy41TTG6Qjggt5KEraGeiVhmw6Se/8HAR5dErZkBTiujMTtdrgfdli9G3pq7VHf/QnRvcBWrRmQvPoIN8YyJ8L3OGGzafVW9yNunf9xxw+gdP2QkwCXAH91gyY8+ctdf2t7I0x8GI0A/1dOgP95Qi9nf0q8cI+LI34+5CpYdD9wi3L19sxZvTO1YQ3fkL/FWcJ3+FwI5S6MZZWLGV+2OB4WS5Kk9Tq3f/JOPOltsNquW9Yx8ty5oLvyYRnc8Fgg50dlwXZnEd9umwq3ueebfe6PVHYbl3PEJcL7octgzePgYPLsSJiFCCfWeevWrV6Ik8U6Dom0WltbvWX3zp07PhFbsvPC2PEIOHXqlBHXHFfvAHiwOIPXxDfffOO9JngepuF2vmfPHp8pnvsmF1raBfhmJ8CVhC0XbjWNcToCQQz4Ywnw6RD599MpwMmOe7/7rl1s+ZOzqDS7hGrJ/zCZcVAL8GFV0UHb79zS95Ue9j+up4pDXoDL/uSUEuAS4D+5KdwbcRHgLMTd7ai26+0XvLV7oeO7p2I5l/fynOBe59yfj5SdtF0le2OT/Z4Ea3hIXWv71nkiPJwLmrQfEyyk/mLbb723Qqo6hPgmzpu4XVyIieOdayOTNRm/T58+7cttxUFMPXjwwJfUQoiHcT9HcOMNgAWcRYk4N7wE4HPx4kVraQmf24Ta38ePH/eLOLij50LLCAE+YQGXC3ou3HAa408JBC7oEuA/ZZP4TiDAb7RhAY/GBR0xMJML+oCL8yax2u3O6y7O+4FzZezwWXLnmxQscVxRP1/lEv6U4W66cosdLT/pEv+sn9IVOurrTj7fHe+C/j9Pfjv2r3FBP+Vd0J0rqXMBntxwkcUF/Xr7dznpgv5XruRZtBbwv3MZ4efngn6m4kP7sPKTWV1/cTmndFVNxw1r6K1zLs5PvBWcxHiUqsqGxoIcydoocbjJWV13FbsY8eL9vnxZurxl5srN50Jwlu+GHhd36uK8H/U/8BUoKOmWja1wWYltLthh7236yCfaTNUY+vv7fYZvkmeFFZmT+4jXFS7pZLHev3+/t4hns6Ai7p3M5yxO8JzFimQbHgEIS+p/454f59be3m54CNTXu3w4IRZwuF/gdODAATt8+LCxgBOX0IXZ5jsDBPg2W0MMeH50ZUlmG7Q+F4FMItDb220tz1tMAnzmWUm1ACdukLjO2q7b7sf2PZ81d+YeZs6nuJWudhnTsYTvdD+wN67c7GM+U2kNlwCXAJ/qLyJqAf5f6v9u3jHgJ9e+Y+9u+Lmvoz3d3wglw1qde/NDVx7vrnNvbh1qcnHFvVMNMWveK1pW6hKAbXMZ4Pe7ZGA7fImsTKumMB1MnyjMlQvD3fx2502fDJN66lEkJpzumgv9/rr8jXag5JgdKT+RMs8ELLpYLG/cuOEfEePzbbheY/k+dOiQTz5GUq1sbNxjCMtbt25ZdXV1qCHAoLS01HsCYAVnUSKuDU6NjY327bff+jCGMO7nLM5s3rzZx8izUJFLLXMEuJKw5dJ9p7EmEPAx4BLgCUSmfpoqAc4POKyUWLmq21ym6r478y6DNfWIFv7dPGfp2uNc0k+vf9/HhePimKomAS4BPtW9FrUA/4f6/2zXnBv4fITX0bJTRib0NS53wlKXACuxTVhZx33JuOvO++by8z/ZsKsVnS0W78SxTPWchGB4zby78SPbUVjl6qGXZEG5Mpel2y2IPHdl/L55+kd70l/vE2FONb5sem/b6t12Zv2/8lnRSdKWikbcN1bLCxcuTJlkbT59IPs3mb+Jf87GRlxzXV2dz+pNNvgwDfdzvAA+/PBDW7ky3gZGPANw0ydLfNhG+boTJ04Y9woLFrnUMkKAlykLei7dcxrrJAK4oLdKgE+i8tOXiQL8TldELui7/9b2J2RB5xrU9K5pv273XDmhZy6rMUl8UlWu5qejnt87WPOoA4w7+gebPra1LvHSVG7R87vK1EffcVap/1ybey7or+OCXkEW9NkFOKXacq39lcuCvi/CJGyfPv5/vDs/FQnm2hDgZ9ZPLcCHXLI1smpfbP3GJ1/sHGl3WZBfZEDqxbmO9sfH4XZO1m1KGu4vOWqHyo5b8YoS9z3x44WIHx+V3lckxXzgSr1dfX7Bl4Ak4zzf3dne+H/Rn239jcuQvuonC0ELNTYSrtXW1nqhGca9Opn+kM0aq+Y777yTzO4Ztw9x8efOnTMYUYYsTCsrK/Nx38eOHfPeAGGOzbZ9CVtgoYI66WEbnhIffPCBD1WIQ76AMOP//wEAAP///E+xwwAAQABJREFU7L0HdxzZmSX4kfBAwiW8956wBAmAnuVLKkklVcuWWqbUklqanume7e0x5+xf2HP27M5O79npnm2jVktdJamkUlkWi96DBEDCG8K7hPee3O++ZIIgCpnIQERmRgbe48EBMuOFed+LTMZ99373O/CYG7mpfdryIf2h7m1q6auj1bUVCg0Lo9T0DIoyR1NQYLCbrkKeRkZAXxGYm58ly9gI9XV30+rqKoWHmKkgtZzerH6LSpLL9XWxHryajccb1Dx5nxrGb1PLdIMmV/Kd3J9QUWTZ5rEmlseoe7aDGsZu0+jyEC2sz29u89Y/Dh44SMG+JqqMPkb55mJKDEklnwM+Lh9Oy9R9+kX7/+Py8+jtBEdjTlJ1/BmKDordMc5rj1apeeI+1Y/fovbZJr1dvsuv583cn1JhZKlm57k8dI7qx26Jz+teD1oeVU0nEp7nOYsj34O+m4dZWl+kgfkeejBxj7rn2mlmdYrwPWTEhnHHByVRVlgBFZnLKCowhgJ9g3Q31EePH9HD2TZqmqgnfMcsbswbYk7C/SKpJOoIvZj6Gh3k7+cD/M8dra6ujpqammh6epq0hgMHDx6k1NRUOnv2LAUGBpKv79PPljvGpuYca2trNDs7S1evXqXh4WHCayUtMzOTCgsLKSUlxavGrWSMtr7Nzc3U1tZGAwMDtrec+o17Ijo6mo4fPy5+437ZT+2AJwG4SQDwdAbgMQzA9fdFv59uBDlWz0XACsBHqV8CcIeT8BSA39IQgP9UAPDH9JgW1xaofbqZ7o/foZ75Dlp9tOLwerxpIx7oIv2iqDy6ispjqynMP1w85LlyDC1TDfsYgJ91EoA3unIKdHnsN3P/XFMAfm3oM6qfuE1Di717Hq8VgL+wCcDxfbDxaIPBdy+D71q6abm452N7246hfuFUHXuGciOLKC44ccdFJE+Naf3ROi3youjFgY+pgxevJlfGPHUpmp83O7SQSqOPUAV/P7ujAWw/evSIrly5Qg8ePHDZKePj46m6uloArKAg73nOn5ubE4Dy3r17NDk5qSg+WGgoKSmh0tJSCgkJoQMH3LOYougiNehsu4du3LhBra2ttLS0pOioAN/Z2dmUn59PoaGhivY1QmfPAnAOeGq6BOBGuJHkGPYegU0A3tMjGXAHYbQBcDCHrZox4FYADlayfqyWmibrqJfBN17jIdxIDax3akg2HYqqoLKYIxTo49qHIQnA7TPgTU8Y8I5ZCcDVfsZcAcDXHjH7tTpDV4Y+obbpBzS7Nq32Mr1mf58DvhTuH0lHY09RaVQlhQaEu42N3S1Ik8vjvEjaQnfGrtDY0pAhmG/bmKtizlBJdCWlh2XZ3nLp742NDVpYWKBbt/j/UwZPrmpms5kOHTpEGRkZFMakm7e0sbExamlpoa6uLpqfd14JBxY3PDxcgO+ioiIyMqu7vr4u7iEA8M7OTsUKCqgjKisrxeJMQECAt9waml2nbgB4oGTANZtUeSDvigAA+NjYKPUxAF+TEnS7k7cJwFlu2jpdb7efkg3fyfspZYTmkmVxhK4Nn6e+ef7Pdm1GySG8qm+IXxilhGTQqcSXKDY4gYJ8XZf6IwB42996VXy0uFgAl+o4ZsCDdwPgN6ljZh8C8LyfacqAXwUDzotyw2oY8OgalqBbGfCDzFZZlkbo9uhVljq3CpZ1g5lXrZoPS70DDwZTAC+A+R305x8/CvYzMeO+TpC8rz9eZ2C5Risby5wCM6v4oVbtdYKtAwhPCkmn/IhiZmRrxPeEO9JWHF378voSdbH0/AqnHIwtD9Myx0rL5stzEeQTTJEBMbwAEUEhPCeIQ7BfCC9WBm6eCguzYOJxPfj9iFMS5tZmaXljidn5BV64maKlDZ5HXsR1ph3gFCGc+6Xkr1BRVLk4tzP7qe0D8DQzM0N37tyhjo4OtYezuz8AeEFBAWVlZQlgarejjjZAGdDDz2MAlmDClcjP/fz8xGIDxgyAaeS2uLhIvb29IoUBMn0lzd/fn3JycqimpoYAvo28UGEvLh4H4CmSAbc3N/L9fRIBCcCdm2grAG8Q+Z5aMeDfyv4ziuRcx0bOJ7w/cYtzPJVJzWxXjoco/4MBFMA//vyw5s8PVMi9xkOrLz9g46EWD27IX7Q9tGE868y0rWysiIft1UfLtsO59HeYXwRVRB+nwuhSSgxO5mtzTd5V+3QTvd35D3seC0AImEjEjFSqEXwP+BGADx6oXd0qoqupMvY4mYNixPxvPx/UFa1TTXzP3RW5rNu37/7aeh/hOBsM1tQ23KcBB4Ncdh9sv76vZ3+fciMObX97z6+1AODF5kqqiT9LiaYUwXy3TTXShaEPGWQtCIC114tD6kfAwUCRSw3Fib9PgFCehPiGMagNEdsAwsEyA7AtrM7TGt/3+F5Y3lgQOedIhVnl74hV3r64Ni9SY7SY993G5MPfW4nBqXQy8QVKMTF7yaDUk21wvo/Tg2rp6sgnml0Gvp+xEGLihUl8L0YERFFcUKL47IaxFB/f3Sa/UAHCbScV3+H8uVtYnRPf5fgen+b/NxZ4bvAeZPFQTEAqv/IElGMxBZ/XnZo/3x/h/lH0StrrlBNR4JbvKFwHAPjU1BTV1tYK9nKna9PiPbDBNpkxwLg3NCgD2tvbRf630utFXvORI0coLS2NIiMjle7uVf1x/9y9e1dI9bFQoaRFRUVRXl4eHT58WMluhuqrEwAOEzbXyiENNWtyMIaKwNz8nGTAnZjRrQBcKxO2r2X+qQB4nw78kdmnhT0DGjxERQfG8cNbkniAiw2OF+wWWJSwgDDBcIApWVlfpumVaX6gXhZsyfTKFI0uDjF7188mUsoMTJwI2Y5dAAqCfELohZQvUUVMlbjOHTuqfLNvrpvO93+w56PMsRJhenWCVh4tMQsIEL73hodrky9YLdfnmeVGFFKBuYQf5iPFIsz2q8YCTM9sF3XNtNHQQv/2zbu+xn0EUDaxMioe8nfdYZcOAIgJwWkuuw+2n/75lFcpNTRz+9t7fm0D4GpywGE8Vh5TTYU8b3WWW3THco0sy4NPFn/2dmkw0QK4iw9KplRTJiWb0igmOE4AWYBua1qoNTfUari1NenFmv6CHMuJpXFmfEdpjFU6nTPNfF3DzIwre9jd2wiIFwuCKZYB6Qspr1F2eP5eD6PJfleHzrMB5x0aXOzR5Hg4CMwpE4PSRFoOpN9RQdH8LmbD+o9/ib92OuEzs/XEy9j63mOhZJhanqBB/nxbP+d9NLW6c756uL+ZcsMO0dH4k5TEC0Duau4C4Mj7jouLE6AU+eDe0GAmBgAOczqlDTnfL7/8shizN5nOKR0n+lssFvrkk0+EWR1SGpQ0gO/c3FxKZxJ2vzZ9APDIKHZIlAB8v96E+33c8zYAzlIeKUG3fzc8C8C1kaAfiqwUDFfbzAPxe+tDlf0rIcFSgMFKNWUJwB3FbCeMzfDACqYLkkWrtNBPSEwha8UjNYydwITYWJS1jdUn0sV5wZoMzw/SwEIPg/LBJ3no6oDnTmPAoyVA+OGY4wJ0pIZm2H3I3Gl/Z9+DHBPS/r227pl2ejB5j8ZXRgQ7uNfjYL+88BLKYgCRbEpXcxin9g31DyMYWfn5sPKB/21vAFVw1wdjBsmx0ob7Z3plkmotV6l/4aHS3T/X38yS25dTvyau+XMbXfAGFqeC+bOjVQMwq+fKCEMqgFkmA/DCCJb/MhP9YPKuyPsGa6lceXFALG6BRU0NzaZ4NjELC+CFHx4vvi/wvQBWFaoDZxvY72W+FlzPPEudp3jux/lz1TvXxcB8hObXXZcyY2Pw8V0BeXSahgsnzo5f5OOvzNBnvEiKhddllnerafztJxab0nh+MkPzKDUsgyIYBGOxFAoFLRr+r8K84fM9vzYnZOkTnL8+xCz+0GKfWDyznQeLtsfinqfsiHxWY0XZ3nb5b3cBcDDgkJ9Dku0tDHhDQ4MA4CMjyv7/Mpl4QScxkY4ePUoRERH8DPD573+XT6ybTgDGu6+vT8j0l5eXFafKQHoOCTruj/3aPA/AWaaBMmQSgO/XW1CO28aA90sA7vBmEAB8giXonO/ZolEOeIR/tGBXZ9ack54DUEUFxJKZZevRQfGC2YrjXOqIALN4eNsJcDkc1JONAOQAViPMhqPs0SC7L+PhemplXBOWc6drSAnJEsxPTfxpIc/e67XvdGwt3mucqKPrQxdoaInNCVU60h+OPiEMjiDx9PYGIDa2aKFPB35P7RrkkKP01J/m/5xzX8H+eV8TAJx9IYaWevd88an8WUgLzRH+D/0L3TTOnz0lDUA1mFUlWMyAt0ISL/RAto1SdEhH0bIh9xggvH++mxUUfWKxzrI0zJ+RZZeZkiWyQqIospyq4k9RgG/gjqkVWo5x67HmVmcFi3xz5AL1LXRt3aT474MMvoOY9U4LzeI0iGLKCMsWc+Tq775VXmhdYCA+vDjA3+09DML7xSIacsfjghLoC2lfd3vZN5kD/vnbB7nfiMv169eF+RpynJU0MPxgdiG5Dw52nb+KkmtyVd/BwUGxSAEDP8TM2QZVAGKD0mOQ6SNnfr82jwPw5CcAXErQ9+stKMctAbhz98AmAOeHba0AuHNntsoQkS+I/O5yNmxCPe2U0HTBpGj98IZxzrEDc8vEA2qcuscP2l3CoMlZdt7ZMflxvnp2eAG9nvkdkePojvxoZ68N/TYBODObmgDwmEqRY6nkGvTYdxOA92sDwOOCk+h7RgDgKkzYYgJ5EY3zcFEBQem9BjYboC6JQWpJ9FFWWuQyk+6efOkZTmfpnXtIN4cvCqUI8o6RouCKlhmWT88nf4niQxJ5vO4DF0jRuTxwjuuwt4mUFDVjQ0pAYkgavcjpN7jvgzxQ5xzMONzcm8cbqJvvt1BWTn0t67usjHC9P8XW2EEyDHfv27dvu9wFHfWwURdb72wnzNZgTHft2jXB7m6N125/g+2G03t5eblw9YbJmFEbVFyo/Q2JPtzisXDhbINEPzk5mcrKyig2NtbZ3QzZTzcAHMYFsskI7McIWCXoFpIMuOPZtwHwOgHA6xx31nhrmF8kS0qzqMhcxg+gycKp1iYz1/hUwqwNjsgLLOHu44fr9qlmapmqF9JLLc2XABzig1LoOLs/ZzJoQM6ynhoAOEpMQVqsFBRtH0dl9EkqMSAAR+qE2hYvAPi/82oGHN8JaiToMFCENBzyZqvpn3NRRS43gHsJl+vKZnVFVGCsAKfuAlPwE4DMGcZfbZNNnCPewmkJ6lhieyPHOJErfzLpBVEf3F4/Ld/Hd37PbAf9tuufRYoOzOnUtJzwQyLtBkoYpEEoSQVQc96t+4r0Ix4HUlBm1qZEOlAKO867W64MEAUQDqfvxsZGRSzm1vHs9jfyv6uqqgTY0nsd8NnZWeEI39bWRhMTE7sN7ZntGBvqWcOADeDb3fP5zMW48AXum5WVFUJ9dNSPx6IF3nO2IQ2huLhYsN96X5Bxdkx77acLAG42R0kTtr3OoNzP6yMABnx8TALw3SbSEwAcLDFMcrLCWFbGD23pLFkE++OukjyoRTy8MEAd082cl3qfpbGju4VJ0XbkKqeZcuhU8otCMqtoZxd3lgB85wBvZcAlACe6M3qNKyPcpodzLTsHzEXvhrKxHwzWsiO5xFJ4HpuVWY0XXXQ6u4eFMgbeEiPsG9HL5n4A4QMso0e+uJbN+l0YQc8lvyb8FOB54eqG77/26UZ6r/tXqhbhALTD/cxsOllDh7lCAXL9kTbg6YYFhUc8f1qnKSgZV319vWAy4WitBEg5cw7IjVGK69SpUwSAqndTMrC5WJDAbyXyc4BtyM+R547a30ZukJuPj4+TLU9eyVhRagw58pCfA3zvx9rfW+OlDwAuTdi2zon8e59FAAz4+LgE4LtN+1MAftMtEnSwW8iLzQ4rolJmTxNDUtwuE0RMYEKEPMjz/e8JJhw1ZrVqeAiFg/vXMr/Lzt2lHhmfvbFIAL5zZGwA/JyQoEsGvGmygRoYgD+YvLNzwDR+FyknMOvKMOWxMVmF+G5ALW89NBh+DbB/xI3hz6iPU1dQm1rLhoXH8qhjQk0C0zCt02+2XyvG0jjOSpjRc6I02/btzr7Gd3l+RBnXNK+m/EjtSuA5e34990O9azh+oxa4EimxM2MKCwsTBmwnTpxwprtH+0ANAPfz8+fP09LSkqJYAICD1YWpGACmkRsM16AQwP2itPY3FmEg0z979uy+rPu9/b7QAQBPJXMkTNikBH375MjX+yMCTwF4n3RBdzDlAOBNbMJWN8YAfMr1EvQklgUWRJTQ4fhjohasqOfNj5zubmC4IFvsmGoRdXDvjV/T7BLwAI2HhxeTX6fi6MPCkEizg6s8kA2ADzKbp1qCHnOSgdIRQ+WAn+t/V7h1qwwzO3VzDnjBX7CBmHeasKGm+n0G4PfGr6sNhVP7B7APRGZoPpXFHKXcyCJR49vVQNSpC+NO+J5AvfBO/q5AyS6tFyUwTiiCKmNP0Onkl4Rs35Vjb5l8QPVcFq5p6i6tq6h5D7n5K2l/wsZrhcIw09l47od+qHnd3d1Nly9fFpJ0LccM93OUmoIpmd7b5OSkiANy4pWYimFcYHZPnz4t8tyNbr6G++XKlSs0NDRE+FtJS0pKEvcCFiuMKtFXEg9dAPBIMOABsgyZkomTfY0TgfkFKwM+0CsBuKNZdRcAhxkZHjJL2VDpEJfeSeCcb0/kCm6PBYzZ2lmKfnXwU5pctYiyRNv77PU1XMIBUHMjC/d6CM330xqAl2B8BnJBlwDcesu1MQBvGLvDAFy7hSl7NzPqySexiVdZTBWXr8pkhUyUva4efR/mbA9n20RcYCy3l3J39gaA78dCczl7RzwnVEFale7a6Xy1o9epllMM4H6+V3M5LJya/WPo9aw3N40zdzrXfn0PzC8k15AUA1TBmE1t8/HxEZLz0tJSAbjAhOu9PXzIfiusBOjq4ntNgakYXLwxPrD8AJgYu1Ebcr9xr1y9epWwYIF7R0mDPB958gkJCRKAc+A8CsBDQkMpmfNDzFKCruQeln0NFgEbAz7ANRVlHXD7k+sOAA5Jtsk3jPK4RE1FXDWXqcmxf0Ee2IIyZQ2WO3Sf5bYwXnrMjJcWLc2UTWXRVVSTeEaLw2lyDCsAP0+DXBddCwZcAvCdp8XbGXB3AHCwvHDQTudSZYdYdl4YVappLfOdZ0bduyhV1jPTQdeGz5NlaUj1Z2jr1cBJ/JD5MB2JO84u3q4DV5cHPqEbXH5senVCmFNuvQZn/w7xDSWUUXst8xtsHpfg7G77qh8k16Ojo8KMDSAcQGuvDQAUTtcAWYcOHdK9JBt57wDcWICAs/f09LSiXPhQxjEpKSnC1TsqSp8Lcnudy+37wSegl8vl1tXVKVqoAduN/H8Y1CFP3ugqge1xs/fawwCcS3cwAI+SANze/Mj390EEAMDHOAd8sK9fAnAH8+0OAB7ItXzBcH0h/Q2KCY73qDnOTqGAaQ9qx77b9S+C4ULtcC1akE+wMCj6Uua3tDicJsdonLgnXNAlAH82nE9zwKUEHZFxBwDHwhzMCss5h7iCpec+XDLKldLrZ2d8b6+wOLfAZckus2Kmdeo+g/DBvR1oh72CUXaNU3S+kvVtimbnd1e1D3reoSvD51QtNJoDYtnHo5BOp7wkam276lq9+bg2EAoAitxe1HjeazOZTAJ0A2yBGda78RrAN/Kab968KQC4UiM6lNJCSS2U1sLCg5Eb7ouWlhYh1UfMnG24ByIiIgQAR1qClJ9bI6cjAC5zwJ29mWU/Y0UAki8JwHefU3cAcJTZKWen3AKu8x3sF6K7h2zkgwN0Xx+6SE2TqBH+cPfAOdEDAKMk6jB9Mf0buqkJLgH4zhMnAfizcXE1AMdnAwtUZ5K/wAZexRQTFPfsBej4FcqUDS/0013LDbo/cUdI0ZnvU33FkKFDfv9SyuuUHp5DWjui25zdP+x9RzD4ai44MTiViqOOCEVTuL976rOruV5P7osa2GDCYUaGHzybOCszBshCyTHIsPGDv/Ge3sHW6uqqkN6jpBYM6ZQ0sP1paWle4/KuZGzb++I+aG1tpdraWpH77ex9geOA8c7LyxMmdbgvZLNGQBcA3BxplmXI5B25byMgypCNjzEDDgn6GoWHmKkgtZzerH6LSpLL921ctg98E4Dzw2TLdP32zapeg81CWSGUqamKP01hXKbGXaXGlF44jJZQHxy5kbVjV5Xubrd/LtfIfT7lS0KmGejreU8OAcAHP6MBrgO+9mjvkkgMuJJN2EqikeNeYHf83rJBAvBnZ8rVABx536mmTDqT8ir7QaTo9nvh2ajYXj1m93CYV9aJ74sezgfXTDXDxmZHY08JSX5KaLrthJr8Rr73wtoCnev7Pd22XFZ1zBSeu8Mxx9mxvsylcnlVF6mjnSFHR34vpMb4DaMtsJ0AXNvZYYBrlJKCiTLYXwBvlONCrWdvyYXG+AC+kQOutPY3GH4YzKGslpEb5n1ubk6kKNy9e1fxUMF+19TUiLQEo6sElATHswCcpSpJqSlPcsAlA65k4mRf40QAq8zjAOD9EoA7mlUBwMfhgn6DmjV2QUeZmoKIclGmpiCq2NFl6GIbHqJvDF+gD3t/I5yPtbioVFMWVcWdoTxzkS4eVB+M2yToWrign3piMmcUAD5Kn/RpJ0H/fuG/91oX9LZJqwnb3XHtFqNsnycszGWF59NzSa9RYmgKBfkG2zZ51e/JpXFh4AjjvgUuVQaGWW3zP8il2ELzqCrhlAC3ao+3dX+UXhxbHKVLgx9S/fitrZsU/53C32uHY47RoehyXXyvKR6Ah3aAEzgYcYvFIlhxgPDt7uAA4GA0IcOOjrZWM4IjuDc15DVfuHBB1LZWmvuOklpwecePkRtk+lAHoPxYZ2enoqHiHsG98fLLL4va3952fygarMLOugDgwgVdliFTOHWyu1EisCABuFNT6SoADqbb5BfGZWreINS2DfMCmSLyO5u5RM/1oc+onx2CwYqqbTGBCcLduCrhpC5yJSUA33lGrQy4BOC26LgSgCN/GOX5ziS9QgG+gV7GftsiRIL1HlkYZEb5PWFqOM8+EmobKkMEsWfGmeRX6VjCWVGSTO0xbftrCcCjAuMI6p5TyS+SOdA7S+3Z4uLO32A9AbgBSiHTBgjbzoDjevz9/QULDjdwgCu9S863xhDsN0znbty4IRhejFFJq6ioEK7eRjdfg/oB0nOoBMbHx5WESOR+Q6ZfWVkpnPG96f5QNNA9dNYJADezhMXzksc9xE/uIiOgOgIwYZsQDDhM2KQE3V5ArQC8nu5pXAfc5BdOKaYMejHty5QQrI+SY/ZisPX9wfk+Aki9Y7lC82szWzft6e9w/0g2msqlF9Je04VbsBWAn6cBdkHXQoJeKuo2SwZ8+80BF3TvZ8Bv010XlCGD0zdKjhVHV2wPm9e9RhnDOsttrg9+S3ymtBrA8YQX6HjiC5wTbtasXCNy16fZxf2z/j/S3TF19d2thnFp9KXMb/L3WqJWw5bHMUAEUFILZccgQVdiKoaFBkjvq6urRV4z/jZqA/hGbFAnHr4ASuKEmAB8o/QY1AJYpJHtaQQ8DsATU5NJMuBPJ0T+tf8iYAXg4zTULwG4o9kHAG8cr9dcgp4ckkGHY48LiaI3mfSg1m83lxn6qO8dLkmmbFV6pzgH+5gonhcgvpz1LVHfd6c+7nzvKQDXRoJeprM653uN5VYGvHX6/l4Ps7kf5vwHXi5Brx8DANdOgg7puS87nb+Y/LpIXYgM9P7yQkhbgRT9s4H32ZCtljYer2/eA2r+KDYfocq4k5QTkasZCw6fC9Qu/7j3d3Rz9KKayyNfNoyLCIimb+a+RcmmdK9VMagKgtz5cxEAmw9ZdVNTkwCWa2trn+tj7w0A7piYGDp8+DClciUnIzcAbuTGo/Y30hGUNCxUoPY36sGHh4cLhYSS/Y3eVycAnBnwAJkDbvSbTY5v5wjML8wzAy4B+M7RefruJgBnEzYtc8CLzOVCfo6HbH8f/6cn1Plfq/xAPcqy0l+3/z2XGBpWfbWQlEIN8KcFP6O00CzVx1N7AADwq4OoA64BAGezKMMA8PVlkR+LHHBNAHgIA/ACzgH3UnkuJOgCgGtoSBjIruexQUn0fOoXGVgWCDCu9n729P7I+wazfI0/U3ct10VtcC1ywZFjXRxVSTWJp7lWunZMIIzY3u9+m64MnVMVOiymBPuZ6AV2bM+LLKLooBhVx5M7GyMCkNej9jdMxSCx30leb2+kAJOocQ5WNzIy0l43Q7wP8I3cb5Snm511PnUFUvOgoCBRog0AXO/l6DwxWToC4Np9cXsikPKcMgJ7jcA85yFJAL579LYC8Kape7vv4ESPEN9QLjtWTa+kf438DnIOG4NQb2nIA59imea7nf9CvfNdtMg1f9U2mEx9N+9nlBme53HQYQPgAwKAq8txPyIA+FF2QS9UGyKP77/yBIB/3Pc7TQA40i5+UPgfvB6A145d0WxuzAEx7Jp/lE0Zq9j5PFmz4+rhQM0TbGRpuUX3J29rYuAY7h9FuRGHWOL9dc1N6j7ufZeuDn3KHhdLqozjYBiXG1EsSpEVmkslC66HG9GD14Bcbzi8Q3re2Nio+EpgKnbq1ClC7jcc4I3c+lmZeevWLREvJSZ1ANwpKSlUWFhImZmZRg7RnsemDwAeEWn4m3jPMyR3NHwErAz4hJSg7zLTNgB+TzDg2gDwpOAMfsiuYYOeF3Y5uz43z7Oj8YW+D6l16j5ZlodUX2SgTxB9PfuHbEZXIOqBqz6gigNYAfinnK+qngGXANz+RECC/kOvB+C3NCvJd4AOUpIplV5K/SpLltMM55xtWRyhRi5LBkf0DWbE1bLgvrxwmR6aQ9/I/SEhhQd107VqlwfO0Y2RCzSxYmGGUplB1tZrOAB1j28Ypxod4zKTpwhqJ72Wmdx63fJv10QA7DcYXTC7AJhKGvKYExMT6fnnnxcMr5FdvSHLh+s58r8RMyUmdZDpw6QOKgGjm9QpuX+29vU8AE9JogiWcEgJ+tZpkX/vpwjAiXNigiXofQOELzxZB3zn2XcFAC+PrhEmS4VRJTufVOfvLq4vUO3IDbo/fptZcGXlQXYaWoBPIH05/dss1TxE4YGeldZJAL7TDBFpzYBLAP5snP2YLc0OL6Bv5f2IsCDlTaqYZ0ey8yt8j3ZMN3Pqyv/kPOsFDXLBD1AiL+J8KePblGBKphCWe2vV7o7eoDsjV6lnvp2vc0PVYQHCk4PTqchcQTVJpymY65jLtj8jACb35s2botY5Sq0paSi5Bka3rKzM8KZiyPlub2+n+vp6RRJ9xDM4OJjOnj0rFiuMrhJQcv9s7etxAJ7AABw5FAEyB3zrvMi/91EEFpADznk2wxKAO5z1pwD8OjVNasOAP5f8GpWy1DSJa/x6Y4MhVyvnwN4ZuayJHBmA47WMbwkAHhlo9mhI7o/dFTngA4vMgKsss3Y09jSVxRpHgm7hGslCgj7VoHqOILH+YeFferUEHZJqrSToKFtVGFlOX8i0pqWoDrAOD9A/10Pnev9A/fPdNLc2rfoKY4IS6LnkL4oyjloa1nVNt1G95Q7P7WWuhOC8SZa9AcERPZavtTjqCOVEFlBcSDwz4b72usv3DRgBMLnIZQarOzIyIkgPJcPMycmhgoICSk5OJh8f7dQeSq7BXX1bW1sFAO/t7VV0SuR+Y6GipqZGsN9GVgkoCsy2zroA4JIB3zYr8uW+ioAE4M5NtwDgY1yGjA2EtMoB/xKzvaXsjh3hYbbXuQh8vtfaxir18cP09aHz1DBx+/MdFL4DBhzOz4XRpRQbHK9wb227WwG4NhJ0AcBRhsxsjBxwKwD/rUg9UBt1CcCfjWBmaD7nfx9hU7FT5MNO6EZs40sWahitpXvj12l0aVD1ECPZZfwo+ywUx1RQfEiS6uPZDjCxNEbIWf+w9x1afbRie1vVb/+DgaLaA3LBsyPzBSD35hrvqoKxD3een58XwNuW1+xsCGAqBsAN5hsGbCaTyatqnjs7TvSDIR3k5oiRUvM17I8c+ezsbLFQgTjJtnMEdAPAJQO+8wTJd40fAQDwScmA7zrRrgDgX8/5IT9sV2puHrTrYDTqAFdjgLHLAx9pkgPrd9CfH6RPi0WJzIgcja5yb4eRAHznuEGCLgH409jABV1LBrwsukqUJczjxRot85mfXrHn/1pYm6fBuX6RB9492676gkK5ekJBRBlVJZ6ktLAs1cezHQDfb50zzfTPLX/LRmzqjBhtx7T9NvmFUUZoHp1KeomZ8ASPe17Yrkv+dm0EIKtG7jdymwHGnW1gcUNCQujIkSOitJaz+3ljP1vt74sXL9LDhw8VDyE9PZ3Ky8sFC+7v7z2VZRQPVOUOHgXgwaYQSkxJpgg2YTNyIXuVcyR3N3gEkAM+yTngw/2DMgfcwVxbAXgdM+A3mAG/66Cn85u+m/9zKo4+7LWGPKjlO7k0QRcHPqBbo5ecH7idngDgRyDXZlVAJtf19WR7CsAfqma/rGOqIoAqb2/PAnAtJejeWZ6pdbKRZcraSdBPJL5E1fGnKS44gRku76mKoOS+hpx7gQ0c3+n4B01UFJB2p5ty6VTKi8LAUcm1OOoLJm5ooZ/O977PeeBcBml10lF3Rdt8D/gJ0G0OiKWsiHzKCMul1NBMCvQNMOzCi6IAGbQzACWYXeR+K6n9DSAJYAlXb7h7G7ktLi7S4OCgKNM2PKysxCncz/Pz84X8HDGT8nP7d4rHAXhCsjRhsz89cst+iMAmAy4BuMPpBgB/MAYAfp3rgGuTA/59rn8MAO6t7RE7A8OI7VPO57w6rK5eLmJgA+CQ5WfpAoCf08gFHYsKBgPgvSxBn1YPwGHC9lYRcsAlAMdn4GV2Pz+e+AIF+QVzBekDeMtwDcAWi3fvdPwjPZi4K8p8qRkkjOsi/aPpVS7nWByj7ffp7OoMQeVwY/g89XG5RVe0uKAUSgpJpeTQNE69SeRa4bEUHhApSjEa9R5wRRz1fkwAS7DfMGADy6uk9jdMxSorKyktLY1Jwwi9D1XV9U1NTQnw3dfXJxYqlBzMbDYL6Tkc0GVzHAHdAHDJgDueKLnVuBEAAz4FCboE4A4neSsA18qE7QcA4Bo/MDochIs2ftD9Dp3v/6Pqo29K0GN1AsC5DFG/BmXIrCZsxgLgHwGAa2TC5u0AXEjQLVdU3f8AWpCcfznrW3SCAfh+aB/2/I4a2ORsTIMShojXN3Lf4jJfJ/kv7RYuUCptcX2R/tD1r7xYUKuJGZu9uYUhW274ISowl4j8cJN/GPn7+AujNqO54duLgZHfHxgYEAC8ublZ0TDB4oaHh9Nzzz1HMTExhnY/R+43zOkusvwcZnVKVALIk8/Ly6Pc3FyxUKEoyPuwsz4AuJSg78NbTw7ZFoGFRQnAbbFw9PtZAK6NBN0KwCsdndYrtlkB+Huqr9UKwM9Qqa4AuHoJ+tHYM+yCbjQA/hsNAfhfeTUDbgXgl1Xd/2Bx44KS6Gzqq6yWOKrqWN6y87WBC1Q3dpO651o1ueQ3sr9HR7nONmqDa9VQpxxKn3ujN6l+7JYm97y9a8MiTBCXJ8MPapqnmLIoPTyH68Gncu1ws2FTEuzFw2jvNzY2ClMxAHElLTQ0VLieI/87LCzMsOZriAlAN1zPb9y4Qaurq4pUAgDgJ0+eFGXaEDPZHEdAFwA8nOUcsg6444mSW40bASFBn5ykEcmAO5xkCcDth0cCcPuxwRYJwO3HBy7obxVJAI4KACkhmXQy+SU6FF1uP2AG2nJv9DYb2N3QLKXni+nfoCPMgIcyc6x1G2OzycbxOro89DEz4nO0rkFZMkfXiEUEc0AMxQTFsyQ9jsxBMRQVGCvK9UWwPB2LlZIVdxRB/WwDq4vyYwCVyAFXYr6GUcTHxwtWF8wuSmwZuQ0NDYlFiqamJiHTd3asyP1GbE6fPi1y5PFaNscR8DgAj09OFPkU0gXd8UTJrcaNgJCgT04wAB+SJmwOplkCcPvBMSoAv8IS9IEFyYBvnXmbCdtHvZIBR1xgwqYFAw4AnswA/NQ+AuDIrb43ekOzGurPp3yZjsSdoJjguK23rGZ/98x20aX+j6lnrp3mVqeZG3+s2bEdHQiGbSZ2ek8NzRJGbcgVDw+IoGBmyv19AgQYB/snmz4jACZ3bm5O1P5Wyn5jXrOysqi0tNTw8nPkxKP2d0tLC8F8DQsXzjbkyGOhAioB1ACXbfcI6AiAB+x+tbKHjIABI2AF4GDAJQB3NL2bAHz0GjVOaiNB/2Hhf+AccCNI0N+mT/u0kaBXxUGCflQHJmy1BADeP68egFdBgh5XbSgX9I963qEWTXLAU+hHh7yYAZ+wAvA7lkuOvj523WZlwLPYyXv/MOAjC8N0d+QanR/4w67xcabDC6lfcSkAX+JccMviCH3Inhc9sx2qqyM4Myb0sfoDHGRpvT+DbT8BuNO5hFl6WDaXXcukeFOiAOLOHk/2c28EAL57enoIEvTx8XFFJ/fz86Pi4mKqqqoSdcCNutAC8A2VABziHzx4IP5WEijkxpeUlAj2W8rPnYucDgB4ApsbRMgyZM7Nl+xlwAjAmRN1wEcGhml9bY3CQ9hFMrWc3qx+i0qS94cU0plplQDcfpQ+6NYQgDNYLY3TCQDvhwmbBOBbZ36TAdcMgCczAP+P3psDrikAZwY85eV9I0EfW7RQLS9onuv73dZbbM9/n016jSXoxxmQJu35GI52RC74ysYKNY3fo/vjtdQ+1cimbJyn6iYm3HZtAOTh/mbhlB4RECUk6kjliA9JoiiWqkt5ui1S+viN2t+1tbXCXAyEh7MN5mtxcXGi9BjKjxm5wWxtgp9D6+rqRI10JWP18fERwPvYsWME8C1rfzsXPY8D8LikhCcSdMmAOzdlspfRIrDJgEsA7nBqbQD8Lj8wNmnEgP+AGfASyYBvxt1mwlamEwB+mQG4VhL0csmAb87z1j8AHCQAJ7JJ0E/vIwA+tTxJtcyAf9j79tZbYs9/H094kQ7HHWPjsqw9H2O3HQG2F1bnqWWygW6PXOE64X20vLHEZlHOy2V3O4eS7cgDD/YN4/SFNErjcSeFpFAkg/AwNnEL8TMJwy4Adtk8EwGwuv39/cLVe3l5WRGzC2B56NAhys7OpsTERM8MwE1nXVpaEg7xHR0dYqFCyWlDQkKE8dqJEycMrRJQEhNn+noYgAcTADhM2GQZMmemS/YxYgQWUYZsckoy4LtM7lYArqUE3QgA/H2NGXA9APCGMZaga8iAGwuAswy35zcaSdCT6c+8mAFvcQEDXrxPTNjWmE2+M3qV3uZ64Fq0sugaBuA1rCAo0+Jwdo9hA+ED870E/4uRxQHBhNvdwcUbALAhTUYZsyCfYCqILKNCjkFeZAH5cRkzlLeTzTMRgKs3jNeuXr2qyNEbVwv5+alTp0RJLYBMIzfE6fr16wQTNiUqAcQkKSmJcnJyhFTfyDHSemyeBeAhDMCTrRJ0/wDJgGs9ufJ43hGBRVGGbIpGB6UE3dGMPQPAuR6sFu2HRX9pCAb8/YeQoKvP48TDYlXsWc6X9rwE/RkAvrGsarqr4s6SIQH4ZL2quGDnBGbs/qzYeyXoVgB+k4Gk2hzwIOGCfir1ZdovAByS7jvMIv+q7e9U30c4AAB4BTPgxTGuBeA4F+qDL6wvUM9Mp3BH75huptnVSS5ZtoHNHmkA4QDbYX6RwjE9PjiR64kXEkzbIE2Xzf0R6Ovro/b2dmEspuTskFGj5BjKaiUkJAhmV8n+3tQXJnVjY2PCpG56elqRSgDjhEoA9b+NrhLQek49DsBjJQOu9ZzK43lZBKwM+CQD8BGZA+5g7mwAHJLJpkkJwLeGSjMAziZDAKu6AeB9yAHvUm22dJTHVBGHOuBFW8PmlX9bc8DBgLMJG8tw1TZDAHCuEa2FCVtySBadZhO24pgKtWH1mv0h4/7X1v9Xk+t1JwDHBcM4CjnhXdOt1DzewMZs7TS5Ms6S9EVNxqPmIChjFuRjooywXMoIz6ZUNmuLDU6gIL9gZsolI64mts7uCxfvhoYG4eyt1HwN4DstLU24n0dGRjp7Sq/sB9CN2t/Ik4cnkbMNC04oNwaDOpRoM7pKwNm4ONtPBwA8XkrQnZ0t2c+QEbBJ0CUAdzy9VgB+T+QsaiVBf8tADPg5LRhwAcDPMFtc5XEXdDDgl/s+0caEjZ3dK0QOuHEA+AcaA/CoQO9k6AQDzgD8tiYu6JkMwJkB32cA/JeaAfBqkQNeHONe89B1ZsMnlixUN3KbmqbqWJLez3XC191uzmbvf7AINmxLC82hY0lnKdGUInLDZQ1xe9HS5n2AbxiLXblyRTH7jSsAm1tRUSFKaxm99jfAd3NzM0EtADbc2QbwDdO1mpoaUarN2f1kP2sEJACXd4KMgIcjIAG4cxMgAbj9OIEBlwDcfnxQWk0C8J3jY2PAJQAPFBJ0CcB3vk+cebcs2jMAHEw43NDnVmepf66HOqaaqXmijubX5zyaG26LmZUND6aYoHhW4RRTgbmUgXgSlzXzs3WRvzWOgE1Wfe/ePVGCTMnhASwzMjLo+PHjhPrWMGMzcmtqahLs9/z8vKLa3yaTSeR+Q36OMmSyKYuABODK4iV7ywhoHgEJwJ0LqQDgFmbANawDbhwG/N8YgGtXB1wy4M7dk57oZZOgw3xKmzrgbMJW/L9wzqp3PkBZGfAbzIBfVjUdAQcZgJskA64miJ4C4FuvGSB8ZGGQumfaaHCun9nwQZpYttDGY88y4vBB9z3gR/HBySxJz6WcyCJKCUujiADz1suXf2sUAYDJlpYWUVJLqfw8go2hYSp25MgRQikyI9f+RpxQ9xtS/Y2NDUVGdWazWcjPkSMv5efKb1yPAvAgmLAlxVNYeLh0QVc+d3IPg0QAOTfT7IJuNWFbl3XA7czrJgDnHPBGjXLA3zoEE7Yjds7oPW+/3wUAroEJ25MccAHAI3M9GoCnEnTOAec8TzUNee2CAY8yiAR9YYSsEnSNTNhKvByAjwCAqzVhAwBHDvh+k6Bfpl+2aJcDfjgeJmzulaBv/26Audzaxio9nO7gWuFN1D7dyOz4jMgNX9tYY2m6Z0qW2a4zyDeEssOL6EjCcQbiBRTkG2zbJH9rEAEoIlDTGs7nMBdD+TElDew3cprxY+QGwA3ZORYqurq6FA0VqgDUSD979qwwq4NqQDZlEdAJAA8j6YKubOJkb+NEYGkTgMOETQJwezMrAbi9yBBJAG4/NtgiAbj9+AgJugTgog64BOD27xNntogyZDoA4LhWm0HbEjulT69MUutko5CmD8738ILeskfzw5H/7c+Ki9zIYrEAXMFVJ2ROuDN3mHN9ALiHh4fp0qVLoqQW8sGVtMrKSsGAR0dHK9nN6/oiRx4SfZRpU6oSgDFdeno6IVYoI21UlYArJ9XjADw2KU4w4P7+sgyZKydaHlu/ERAAfGqKLMIFXQJwezO1FYA/mLxjr5ui93906K8MwYD/UTDgv1c09p06+x8MEGBVbwz4isoyZNVxzxmGAV9eX6YxwYC/Tc0alCFLRBmykr/2bgk6M+C3LBd3uqWdfi/Ah8uQMQN+Zh8x4PhOvT18WbMyZCcSXqIj8ScoPSLL6bi7uuNjsOGP1siyOEpjS8M0ujBEw/MDNLo4xMB8QrDiqCvuiRYRECXM2aDOgVN6eICx3bbdFWOAye7ubqqrq6OVFefVU5Cbo/wYcr+zsrIMrczFogTqfV++fFnU/laqEoBDfH5+PmVmZgondHfNrZHO43kAnvgEgMs64Ea6r+RYFETAxoBbhiQD7ihsEoDbj45WANyPJegAq7oA4JZautTPLujzKEOmTEK4PVJGA+AWAPDutzkHXBsJ+o+9HIDfExL0i9unXdFrAcC5DNkZ1AHfJy7oS2uLhDJkv+38J0Wxstf5xZTX6WjCKYoNibPXxaPv4/+QhdU56pvt5vrhXTS00EdTK2O0yCz58voig/Elt19fqF84pYfmUlXiKcqM4FJOfia3X4PRTghGF67e/f3shr++7vTwwOSC9T569CglJyc7vZ83dgTgxkIFXOKVst9YqEDt7+LiYkK+PF7LpjwCOgLg/sqvXu4hI2CACFgB+DRJAO54Mp8B4BMaMeDFBmLAe9Uz4AKAx+sFgN+hS6IMmfoc8Goek1FywMGAbwJwDRhwSNB/XOrdDLgA4KMXHX+B7LI1wMeaA34m9ZV9A8DHFi1UO3yVPur9zS7RcW7zi6n6BuAYBaTp+L8EP/Ns2DY418d1xNs5X7yN+uY7nBuohr0g3fU54Eul7CCPhU9P589rODSPHQqyavwAZGK+nW0Ak0VFRYLVxd9GbpOTk0J6Dgf02dlZp4eK+9XPz08sUpSWlkrw7XTkPt9RJwAcOeASgH9+euQ7+yECS4tLbMImAfhuc40HpvtwQR+5Sg80A+D/kUoNYML2x65f0ycaAHBI0Kvjzz5hwPN2mxKXbm+wPAXgqiXoAoDXUL4BTNi2AvDmyTrVcwAJ+o9L/1cvlqA/IADwW6oBeBClQoK+jwC4ZWGU7vD36ccaAfCXUr+qawZ8+4cFtcIX1+Zplg3aZlamaGp5nCaXJmh4oZ/Z8X5+f0q4p2/fzxWvzQExVBhVTqeSXyJzUBT5+8i0TKVxhqnY9PQ03b9/XzDgSnO/Y2Nj6cSJExQVFUWBgYFKT+9V/aEOuHv3LlksFkUyfYBvuJ6DAYdMX7a9R8DDADyIYoUEXZqw7X0K5Z7eHoGnDPioNGFzMJkSgNsPjlYAfCsDnh3pWQBevwWAwzRJTbMx4PlRh9QcRhf7PgXg/6ZZDri3A/C7kKBrAMBFDjgD8JJ9IkFHmS4A8M/61ZcwxIfjtcxvURVL0MMDvI89FM7pXEt8YmmMBuf7qZ9l6haRJz7JDurTNL8263LjtqSQNKqMO0FlbMpmDoxiYysp7VXypQtTMcjPW1tbhbu3kn0hP09JSaGTJ09SUFCQoWt/Iy++o6ODbt26JVQCShYqEBsw33CKN7pJnZL7Zy99dQDAYymUy5DB+EA2GYH9GAEA8JkpMOAWCcAd3ABPAfgVZsBrHfR0ftOPiiUDvjVaugTgWuSAP5GgSwC+dbatfxuBAZcA/PPz6sw7bZNNrCi6RrdGLjrTfdc+38n/CVUnntm1nzd0EMZtrBDomGxmB/X71DXbLMzcYOrmKtM21AkP94+kbxb8iLLC88jPRz4XK7lXIDmH9BwGbJBYK2lgv8HolpeXGxp8IyZgvdva2qi+XrmHSFhYGD3//POEeEncpuQO+3xfXQBwkwTgn58Z+c6+iQAA+KwE4LvOtw2A32HToAfj2uSA/xmXXzKCBP09SNB73t01hrt1gOwRbDFyEfXBgH8sTNjUStBrEp4XOeBGAuDvdzMDPqGBBN2USj/xcgk6APitkQu73d4Ot8OELdWUTWfSXmYG/LDDvkbZ2MBGh7Uj16l+7IYmQ/pOwU+pxiAA3FbGzCpRn6YJNmtrH2+m7pkOGl7s1SRe2w8CxjuQ78OzqV+kkujDlBSaur2LfG0nAjBbm5mZEa7eo6OjBDZcSUPNb7h6gwU3uqkY2O/2dvY9YLWAkhYcHCxqf8MlPpxxm9HjpCQ2e+nrcQAek8gMOK+oyDrge5k+uY8RImBjwMckA+5wOiUAtx+e9zqRA64egIMBB1jVDQDv/Zj6FmDCpk6CXgMGPB454MaRoL//EBJ0LQB4Cv2khHPAg2Lt32A63tIy8YC0A+CcA54GCfr+AODX+i/QXct16phuVDXDvgf9yMRu3l/NeVMsdKk6mA53hjx9ZWNFuKf3znTy7y6WqffSDOeIr7FsXcsGQ7bsiELOpT9Jh/k7C/XBD/A/2RxHYH5+XtT+vnnzpsgDd9z76VaYigFIVlRUCAM2k8lk2JrWWFTCD6TnnZ2diuKEiMXExAiVAIzqAMZlUxcBzwPwBEjQGYBLCbq6mZR7e20EYMIGCfrYsJSgO5pE1wBwSNCPOjqtV2wzNgDvZADufC3XnSZMAvCdomJ9L9EkATgiARd0KwO+fwD4B12/obrRmzSyNGD/BnFiS7CvidJNOfRc+hcozwCLXI6GjNJtqCl+ffAzejjTSpPMjAOEK3HbdnR8gG1/vhePJz5PL2V8hYJ8gwUId7SP3EYE1husLn4WWVXobAP4Rl5zdXU1FRYWOrubV/aDSR3yv8+fP089PT2KxoCFCuR9l5SUCBZcYjZF4duxswTgO4ZFvikj4L4ISADuXKyfBeC3ndtpl15WCboRAPivNGLAA3TIgAOAq2XAWYJuOAb81xox4CxB93oG/LqGEvT9A8D/qen/pnrLLdUsbqhfBBVEltHxlOdELetdvna9erPVrG2NppcnqGuqjR6M3RP54UtcS1yrBta7NLqKTqe8SilhadIR3YnAgtGtra0VrK4S+TnczlNTUwX7bfTa3wsLC0IlgDx5LFgoaXA/LygooCNHjgiHeCk/VxK9nfvqBoD7+fvtfIXyXRkBg0dgeXFZMuBOzPEmAB++QvfHtQHgPy5FDrgxAPjHmuSAswQ9niXo8dWezwEfvUMX+5AD3snyT5UAnGX1kHMaS4L+a2rSKAf8p8gB91YJ+jgk6NfppsoccN+DvhTmb6YvZP0JVSeccuIbyXu7oPzW8voS/aL5b6lx/J7qgUQGRFFFzHGqTDzGgDFd9fG84QD4/2iKS5b1zj7k++8a9c110fSKMuMvR+PMDM+nI3EnqSKhikL8TI667vttS0tLwvn8zp07tLqqTI0QGhpKlZWVIvcbec1GbhMTE/TgwQPq7e1VXPsbpdmgEED5MR8fHyOHyW1j8zgAj4YEPSxU1gF325TLE+ktAmDAZ6dmpAR9l4nZeIQ64HdF2RwJwJ8N1nudvyItADhywI8hB1wvAFzkgGvDgB9OkAD82bvG+iqRTdgkAH8ama/l/CmbYH3BsHmgGOnS+iKNscP3u52/oPappqeD3+Nf0UFxdCrpFSqKKaO4kIQ9HsU7d8NCRsNoLTVYblPnTAvHdkETl/SowDjKiyzmBaGvUUSg2TuD44arhvQfrt4tLS0CXCo5JVhcAMvnnnuOzGYz+fr6Ktndq/qi1Njg4CBdvXpVgG8sVDjbECeY1OEnLS3N2d1kv10i4FEAHhgcRDBhM4WZZA74LhMlNxs3AgKAT8/SuMwBdzjJAOANAoBr54IuGfBnQ24zYavQDQD/SDsTtoRjVGCA/FRbHfD3H0oGHHdv8/h9TUzYbJ+Er2R/h86kvGLoElDTy1PUzuW1LvZ/IJhb29j3+jshJIW+nPUmpYVnUFiAsVnE7TECAFx9tEKNY3VUO3SNWqfvq5b04xwHD/hQQkgy/ajkryg2eH8tamyPsaPXiH9zc7PI/R4YUOZlACOxxMREUfs7JCTE0ItuyItH3velS5cIueBKPAuwMHHixAlKT08nKAZk0yYCngfgzICbwiUA12Y65VG8MQISgDs3axKA24+Tlgy4KNklAbj9YHt4iwTgz06A1gD85bSv0omUF5l1jDSs+/TQfD9d6PmI2hgsTi6PPRvQPbxKDc2k7x36C05jiCE/dkTfj218kWsrTzTS+b4/0tTKuCYgHMqCPy36OSWHprNJYMB+DKvDMQNEIt8brC5qfysxX8OBExISBKubl5dHAQHGji/Yb5Qfa2xsVAS+ITfH4sSZM2coKSnJ0CoBhzebCzZ6HIBHJ8RICboLJlYe0nsiYAXgM8yAj9H62jqFh5ipILWc3qx+i0qSy71nIC6+0k0AzjngDya0qwNeFuv9OeB/YAm6FnXAdcmAcw44GCY1TbigG4wB/yMz4NrUAU9hCfrfeG0OuBWAw4TtovXBYcgAADzISURBVJpbZHNfpGDUJJ6ltIhMQ7pPI3e5c6qF3mn9J+HgvbKxtDn2vfzhfzCQciILGID/nHOV9y87hriOzA/Spz3vU+d0M4Nw9Qsb5sAYeiP3+5QZnkuhAWF7mR5D7wPwjfJjn332GQ0NDSkaq01WDVdvyNCNLD9HYAC8IdOH+ZoS9hvgOy4ujqqqqig6OlpRjGVnxxHQBQCXEnTHkyS3GjsCMBCZZQn6hATgDid6KwDXLgf8r8kQALwDOeC/cxg/ZzaKHHAufwPH8OzIPGd2cVmfejZhu9DLEnQAcC1M2AwFwIfpj13aSdD/vMzLAfiwehM2240MN+/KhON0hO8XHzZmM1pDGa0HbLz2i6b/TgCNaltsUBIdij5MX8j+qiiZpfZ43rz/wtoCO6O3s3nk+9Q29UD1UCLY3O61zG9SblQRL5BJ8LM9oADfYHbh6j0+Pr59s93XKKkFV+/S0lI6fPiwAN94z8jt2rVrAoQryf1GPAC+YbyG3G+Acdm0i4COAPj+lC1pN5XySN4agaWlZQnAnZg8CcDtB+kPEoDbDw5vgaz+sATgO8YIJmwSgD8NTUxQIhUzoPxy7jcNKafum+3m2t+36NPe3xNKaqlt+ZElVBl/kj9fVfu+XNYGu8sDhEORVMvO6GsqlTth/hF0KvlVKok9TEmhKWqnynD7g82tr68XIBwltpxtkFUDWBYVFQkJupFLakElMDk5KRYpHj58SDBjU9KQ9438b5PJJBYtlOwr+zqOgA4AeLQ0YXM8R3KrwSNgBeAzzICPSwm6g7l+CsAvcxkybSToPy41CgP+r9q5oOuOAe9gBlylBN1AAByxmOTyR+92/AszmbUOPjHObUo0pTAA/0/eLUHXkAEP8Ami3MhD9I38HwhDMV+D5TTfHLpMt4eusPv5A03cuqsTztDJ5BdF+TEjKgac+xQ92+uDrt/QzaFLNLGsrNbys0chMvmFUU0SK5JiqyiVDe5kexqB9fV1UU4L+d/I/cZrZxvYb5TUysnJEXngzu7njf0QG+R+t7W1Ka79DZO67OxsOn78uCg9ZnSVgLvn18MAPJCiEgDAuQyZv7+7xy7PJyOgiwgsb0rQJQB3NCE2AH57GABcmzrgP+H6x0aQoP++AwBcvQTdX5Qhe4Frz+pBgn6bJegfswS9Q3Ud8GMJLxiGAbexbP/W+j/pnuWGo4+MU9sAwJEDHh0c55WmY8gBrxUA/DOnxutMp5TQDHb1/jalhmVw7q0xXL0fM9zGd+i7Hb+ka4Pn+TOlLvcbcYRT90tpX6Hn016jYD9ju0g7c9/Y+twYuES32asEJndqWqhfOPsRMACPkwB8exzn5uYEsIS0WkkDiIThGljd1NRUQ8uqkes9PT1Nt27douHhYZEvryRWMF1D6TFI0GXTPgL6AOChLG2QAFz72ZVH9IoILAsJ+gxNjkxIBtzBjG0CcGZwNAPgZQYC4N0aAHAf1AFnAI4ccLOnc8AZgLNTM3LAV1TmgG8C8Gjvf5AAkIKM8J85hxcP+WpbXEgivVn45+y0nEaBvkFqD+f2/TcB+LB2ADwiwEyF5nI6mfoCl9bKcvuYXHHClfVlGpjrY5Ow91g5cUe1/Bxstzkgll5If42OJZ8lHwbjslkj8MDCJcmGr9Gd0cuqQhLqLwG4vQD29fWJ0mMwFlPSwH6Hh4fT6dOnhQwdcnSjNsjPIdO/ePGiqP2N8mNKWnFxsQDgKNUmm/YR8DwAj7dK0CUA135y5RG9IwKbDDgD8A3pgm530iQAtxsaEgy4BgDcasLGbLEOAHjd6G26yAC8VwMTtqr4M8JYqyim1H4QvWzLPz74b3SL1SBqWwzXGP563g8pnYGmyd/7XKybx7RnwP0OBhAMsL6Y9QYdiqkQ7K7aOHtyf+R6Ty6N0/XBi3TfcoeGFnpVXw6k+kVRFQy+z1BhtHE+V6oDwwdoGW8UAPzG8HlVhzMxA36MJejlzICjxronGlhUyLvxsx3AgU0ODAwU8mR3X1tdXZ2QVY+NKXObB/gG811eXi6AuLuv253nm5mZETJ9MODLy8tOnxo58VioqK6upqysLEOrBJwOigs6SgDugqDKQ8oIKImABODORcsGwG9pyID/tAw54FXOXYCOewGAf6QBABcS9EQrA57jYQYcAFwrBrwspppdrU8ws+/9Jedst+E/aATAUWv4q9nfpSx2vQ8PjLAd3mt+N7kAgNsG/2Lql8V9kxKebnvLK3/D+bx3tovebf8VjS4O0LIG8nOwsy+nf5WKosso3iQZsq03hg2AX1cJwIUEHTngHgDgYE/hmL2yskKo1ILfeG9rAwAPCwujoKAgAdiQSgpG2ZW5wlD/YDHgyhX2MWhvV5T7jWuHrBru52B1cd1Gbv39/WKRorOz83Nz52jcmEcsVBw7dkwsVjjqK7ftPQI6AuDSBX3v0yj39OYIWCXoXIZMMuAOp/FZAH7LYV9nN/5USNCNAsB/6+yw7fbzZ+bvmO4AuPoc8IywfKpOOEWn0l60O3Zv22AF4JdUXzZqDb+S9gYVxBRzHnis6uO5+wBPAbg6tnGn684KL6Qj8cfpdNpLO232mvf6ZnqowVJLVwY+ovm1OSQxqL52c2A0ff/QXwiJfoBPoOrjGekATwH4p6qGZQXgvCDqZgAOkGuxWAgyb4A4OIyD/d6pfjTyqSMiIoSZGUpVAZCDPXVVA5OLa0PpsYGBgR2vydG5YSoGYImSWvuh9jdc4sGEK3E/h+N5RkaGMKqLjfW+/xMczb+etukCgIeEhnAOuOs+sHoKuLwWGYHtEVhZWrGWIQMA55Xd8BAzFaSW05vVb1FJcvn27vv29TMAfEwjAF6OHHAjAPBf0kcPtcgB1w8Ab5toppuDl0S+/+LavKr7HrWKa5LO0CtZr6s6jp52FgCcnZbVNkitT6PUUdxhSgxNVns4t++/CcBVso07XTgkwIVRpXQ27QsUxyxvkJflyD9m6fni+iLdGbrG8vPPaHihn9YfPcti7jTu3d7DPZMVkU9fyvkmxbB538EDB3fbZV9t3wTgQyoBuChD9jKVxR2h5LA0l8cQDPfU1JQAtpB2o3zV7OysYE93At+4IMiVIUMHaIuKihIMc3x8vGBQXVHeC+Zrra2tBFZXSe1vXCtYXZiKGb32N8A2aqTfv3+fmpqaHM4f4rK9RUdH09GjRwnzKGt/b4+Odq89DsDNcVGiDJkE4NpNqjySd0UADPjc9JyVAZcA3O7kPQXgDMrGtHFB/6kE4M/EW0jQk15kqXY15Zjzn9nm7he9M910b/gmXeeH2Pm1WVWnD0E5n8Qz9JXcb5PPQZZI8j9vb79s+h90iwH4qspawyh1VB57jKqSTrIMPdfrwmIF4NfopoYmbFuDEB/CklVepDvKKQyxIQnky+Zj3tBg1re6vkJd0+10beBTujeq3jHfNu7siEJWlJyh0vhKr/QNsI3DVb/rR2uplhc97lquqjpFeEAkvZj2OhXFuFbmD3BtY717e3sFuAXQVVLaC7JzMMoJCQmUnp4uGFSUsdKSZcY1TkxMCFdvmIuhxJaSBlY3Ly9PlB9Tsp+39cW8QR3Q3NxMXV1dii4f6gXI9M+cOUOYPyOb1CkKjAs66wKAh4RJBtwFcysP6SURsAFwuKBvrG9IBtzOvFkBeC2DDnZB14wB/xsDMeAaSdCTbDngngbgDxmA33oCwGfs3BXOvQ3AfSThJL2R930K8TMJEO7cnvrt9X7HO2zCdoXGlgZVXaQ/y4fjg1Po5czXeeHF+9QgTwG49hJ0BBb3TqBvMH2z4EdsNlZGof5hquLtrp1Rrm5qZZJ+2/oL6pxqprm1ac1OXZP4HH0559siFljQku3ZCMA8Ev9P9cy1P7tB4Sukh3w193uUE1ngUn8GyMsh7b5+/Tp1d3eL3G97jPduQwAQhyQdJmcpKSlCkr7bPs5uR046gOX58+cVmYrZjn/kyBFR1xoMr5Eb8vUbGxsF+MZChZIWGRkpFk+qqqo0XTxRcg37pa8+ALiUoO+X+02Oc4cI4D8+MOASgO8QnC1vbQXgDRoC8HKDSNA/fKgdAIcLuqcZ8KG5AXZsvkef9b1Hs6tTW+6Evf1ZFFVOL6Z/hXNWMynIL3hvB9HRXp90/UEA8MGFblVXBflwoE8wfSX723Q85XmvYXhtg7YBcLWO07bj7fQbJbayIgrocFwNlbM6JMSfF3F0XnarjxUkd4dvUJ3lJk2ujGkiPce9kmrKourE03Q81XqvYIFCNmsEAFrXH6/Tu23/QjeHLtHC+pyq0MAg8TuFP+UKBdnsxO+67yzkCLe1tQnABtm5knzhnQYIE6+YmBgqKSkRJl54rUWD5PzhQ16Y5fzv7YZwjo4PFhe56idPnhTsvFbX4+icntqGuUPO/qVLl0TtbyXu57hmqBegEkCuvCtSCDwVFz2eVwJwPc6KvKZ9FQHBgM9IAL7bpEsAbj9C73YgB1wLAM51wFmCrgcAPr5ooZaxB/R+969pmpk8tS3ZlMEA6jhVJ5+kyMAotYfz+P5Xej/lOuBXqWOmUZNreSn9dTqR/ILI6XWli7EmF7vlIFYAfpVuuEiCbjsV0jNyIouokk3Z8qIOUVhAhG4XKywLI8J07frAZzSxPMJpCqu2Yaj6Dfn96aRXqSKhxivTFVQN3omdVzdWaIy/t97r/Feqt6hLk/I9wHJuUwp9t+hn7M2QQn4HXeOTBIA2NDREtbW1ND09LdzOnRiqwy42OfqhQ4cEmAMY16JBTo263zCH214SzdHxkaOOawCrC4m8kRvYbyxUXOTa31hMUdIAuLFoUlhYSGaz2aVu9kquy6h9dQHAg0ODpQmbUe8wOa5dIwATtjkJwHeNkwDgnFt3a/gSaceA/yfOf/U+2e32YL3b/i9chkwLAM4mbDoB4LMrM9Q52UrvtP9/NLmsrNbr9vjgtckvglJDs+mN/DcpkR9svQlk7jSe+pE7dIcBuNo8U9uxS6KPCpl+RUKV7tld2zXj91MA7hoJ+tZz+TEIR930L2d/izLCcwQI19N99OjxBq1trHHO9wW6N3KDOmeatl6+qr+tSokg+u6hn1MBG9O5y5BO5CezazvOr3e2fXp5kuN+m/+Pushl3zpUxRsGgBlhefStorcoKkgbALvTBUGiDGCLutpqme/tx0epLzCpAHVqPye4D8B8w1gMDK8SiTwk8TBfww8k1kZuWERBHj/cz2Gg52wD+IZKADL9oqIiKT93NnAq+ukAgJspWErQVUyh3NXbI7ACE7aZeSlB32UiNwE4S/s0BeBc4sXbmwDgWjDgPvoB4Oucwzo410d/1/C/M6s0onqKfJi9g3vzl1lqDQYzItC7H8SE0/LQVbo2dE51bHCASC4rVRRdQV/L+y7nPAd5jbO1AOAcB1dK0G0BPsAgECW3Ek2pzISfYHO2IxQZZNZFrPB5GZjtoesDl6hnpp3Gl4bZAX3Bdumqf8cGJ9Kh6Eo6kfIc1/1OcsuYkce+sLZAYPRhgBcWEKZ6HK46ANjvvtlueq/j1zQw18PX7Tz42emaoNgp4/+bTqW+xOMO36mLJu9Beg5XcZQbUwJqnTk5AB0kzWfPnhWAbq8gHGw3XL0BwMGAK2G/cZ1gvU+cOCHAN67JyA3qgIaGBiE/BxvubIMsH3EqLi4Wc7bXuXL2fLIf+4vwB+6xuwLxacuH9Ie6t6mlr45W11YoIDiQzHFmkmXI3DUD8jx6jAAk6POCAZ+UJmwOJsg1APxvqDyu2sFZvWOTVgAcDN/xxJfocKLnc8ARecviMP19/f9Bg/O9muSw+vMCQ0n0ETrKjt9FMeVexfRuvxMHZvvo7sg1+vDhO9s37ek1FihSQ7PolcyvUXpENoWzxNobmjsBuDUeB4QcOD08l5ngEl7MKaY4Bocm/1CPhMsKUhcZ/LE8d+y+yPmeW52mNY1k5xgUjPryzSX0UsbrolRdsF+IW8Y6tzpL/byogFz2eC4DlxKaIeTYOL9+3Ogf0waXe+udecieFXdYfXCewfccQY2gphVHH2bw/Qp7cRSIBTE1x3K07507d4Rhl1JW2dExt26zOWqHhobuuT44zNewQICSWmB3lTTIz7EIcOrUKXF+I+c1I07t7e2EOV1aWlK0UIFyY1AqwCke5eRkc30EPAzAA8gcKxlw10+zPIOeIwAJugDgoxKAO5onGwCHuU3D2E1HXZ3e9uflLEE3CAD/8OFvnB63vY7+BwN0BcAnliz0b83/yKWUWjRxcYaENcAnSOQ6o7ZzRKCZH+Th4nzAXkh0+/7c6gy7xN+gX7X+HT/sYx1d/Vp6uL+Z8iJL6FjKGcqIyHHpg79WgbUB8OvD6mou7+V6oKg4HHeCDsWWUXJoGpv7MTDk3F13sEePGPStbqwS7oOhuX66NXiF2qca+XOi3rBweywSglM5PeEEfTHnT7ZvcunrQR5X/ehtTq95h0I5hQRGeCiRCAYebvT+Pv68GOLvlnjvPFA2XXu0QZCe3xy8TLfZ+Xx8eZgBuTrwDYO/41yN4gtZb4g0ByyOad3AvUFyfuXKFXrw4IHWh988XmxsrJA1o6Y0ylrtpWFxAJLqnp4exXnNOD9k8BUVFR68T/YyauX7oIY7So9BKaCk4fsKMn2UHkOuvNFVAkpi48q+EoC7Mrry2DICTkQAEvR5SNAlAHcYLQnA7YcHDLgRAfjMyjRd6P5I1H0fXOixHwAFW5BLirJbkFs/l/4ql/eJ9EomHAxbAzNu//Tgv9PKBrMdKh/6EUI8+GOBoiTmqAA6pXGVCiLrma6eBOA+DLaDfUM4RzeectmgrTrpNEUFx/DCRaBLgwHwvbS2SA+nO6h5vIGaJ+7R7MoU3wfLmtwH2y/+lYw36GjiSUoKTd2+yaWvGy31DGqvWH0OGDCCiUcZQXg5QIGQEZlNKWHpLo+3vUHiMwfwfYHLjrVM1NPI4gAD8nXuvvfFsAN0kML8I+h0yiv0Stbr7ETtw8uD2i8QolY0coTBloI1dVWDmRfM2MCshoUpTyHAIgGAJUqPwVxMqfwcjt74SUtLc9UQdXFcLKgglx8pBXCKV9IgP4+LixMAPDw83PALFUpi48q+HgfgkcyAQ4Lu66/9Cp8rAyePLSOgVQSsDPg8TUkA7jCkAOD1MGEbvET1GjHgP6swDgP+QZcGDDhLtE8ksgt64jGPlyHDzbDI+Z9Nlga6Nvgpg4x6h/eHko3IcY4KjKV8lg/nmIsoNYxldwyc9vqgu7y+TMvrS26vi9w22UTvtv6Shhf7OVbzSkLgsG8MA8oMBjhFMRUC4JiDovdUBukxAxF8bgFUEFswllq3prEGujN0TdSL1/rYzh4PeeFmvp/SwrMo2ZTGDG2ycJOPCIoUOeNY9FHbEEuA7smlcRqeH2DJ+UPx27IwzLXg1bOuO11fqH84ZTPrfDL1RVGLOsDFCwvbrwH1tC/3n6OhhV5WeTwSm8HWQakRwZUMooNi2Sk8meJDkkSOOF5j8cMVjPHWa8NcTCyOiTnomGxm8P2AjSIt4jtga7+9/A23cxgiViWf4hzwI3s5hFP7AIAD2ML9vLOz06l99tIJzCoAcE5Ozp4M0BYXF0U+89WrVxWZiuE+Qfmxw4cPU35+/p7A/17G66l9AMBv3rwpQDjmVUlDXXQskJSWsrliUJCSXWVfFRHwLAAPCqBIzgGXLugqZlDu6vURkADcuSlEriMA+E0G4FqZsBkFgP+O685qwoAzAD/OALxSJwB8jSW2I/PDdK7793R75PLmQ7hzd4zjXgBFkNwXRJUJV+eUCJYQcz1sPyFrdVzyZ+3RmmC6cE+uPuIqBpyrurK+woC1VDB0js+s3db+2V662nue7o/f5nJTFu0OzEeCC3NiSCrlRxdTclgas7zRAkz6MkCwBygBTMBYIf8Y9ZAxf8vMzoMpBphLYOmw1s0KwK8yAFfngo4FAoxNjIEXDGyAT8n14hhxwckiVxmLOglhSZxLH8mLFyZefAgQueM4B/KXARDwb6eG+wpMqvU+W2Nme4WW1heZbZ1go7VeejjVzg7nLQz4FnfaXZP3gnyDhSfAGU7VyIrMEekamhzYiYNY5fUr9MeOf6NL/R+z1H5FzMv2XQ+yYiOU79Ok0HRKD8um5PBUcZ1gybEogh8s+gCQ27tntx9zp9e4J7CQhOvAouA8G6z1Tj3kRcEGwXzjO2Av98v2c+HewHhezXyDv0vKKCYkbnsXzV67C4CD9c7KyqKCgoI95RZbLBYBKiGtBhh3tgF8m0wmOnr0qAD/eG3UBlUADNc+++wzkSuPuVXSMD8wX0OagJ+f4//7lBxX9nUcAX0AcJMsQ+Z4muRWI0dgE4BbZA64o3mWANx+dIwKwPFQC1ntB52/EQ/iK8wy42FYqwYAhIfzAAZHwb4mZi8zKI5BopkdwR21yeVxml6aIEjkLUuDwm06kvPJf1z2126V6U7yNbSNN9G5nndpYL7H0SUr3obYAOAALJr8wsjM7GJySLpgHoP8dmZJABoBClHDHbXbZ1b5h3/DPAuOzmfSX+aj7gw6FV/gkx20AuAYZ7h/FLP1GMOSWDjYi5QYMfPhxR0fBlOQp8czIAdATAhJFioLuKbDgR/AEH13aljQmV6apCn+wb02xNUAumfbOaYT4tpwjQCEWn4Wtl9HZlg+VcTV0Kn0F8TnAw7w7moAugMz/fRpzx/o7ug1h+PEdSHe1rj7MCueQAki5mmUGp7BIDae00zCRa74XkE47msA70E2PuyYaqEHY3dpiksjwmUe/y9pNQ9g9jPD8+mLuW8IT4G9Xq8z8+QuAA4QDCO2srIyQj620tbR0SFKpE1MTJASYAkmNyUlRcjfcX4jN+TIDw8P0927dwkLFkobmG/USIcUHQuDsrknAp4H4MKEDQBcStDdM+XyLHqLgBWAL9CUBOAOp+ZZAK6NCdvPKv6zIUzYrABcvRs2WDq4oOuFAQcAgsPwjf6Lwl24h2vrAnxo3awP8T7MXocK0ATmzFHDogBYSQAFMJMbj9eYIY6lf3f4v/KDc7qjXTXdhvNPL0/RL5v/B7VPNjJruqrp8W0HAzOHmIT4hgom154DNRZMIDcHgMW1gRlc5Vglm7LocEINvZr9VRcC8E9tl7un38gvTgxJYwAXJxj8xvFalfcaM+rM/INJxn0Fg7ZAPgdk3Dbwbe9hF8oBxA+qCtxrC5xeMLc2I95T6669W3B8Dvgxa2+m48nPsfHacSHtdiUQ3Ol6Fla55NTwbbo5dIE6pht36mL3vUBWsQTxwgdYcDjTI/6IeWRAjPg7kF8jpcJH5FYftC4wcT9IeBHndVa3AFDjNxa44GiOkmIznGOPv7HoNsngG/Oj9VxA7v9c2mvsrF9EoS4sPYbguQuAI6cYJmiQgSMf3NmG+QCrC+dzmIrhb7znbMN5KysrKTk52fDycyxOoJQccsBnZmacDRH7CxwkyM9R97uwsFC8dnpn2VF1BHQAwFmeFSoZcNUzKQ/gtRF4yoBPyTJkDmZRAnD7wfld2y80kaD7sST7RBID8ATOAY/Kt39CN2/pmmyj2pHrnA/6kabllbQchjkwhn5++D8z25vpVhYBn4vftP6C6i23Re1nLcek1bGSQjLY1K2GXsv9E90CcJjPpYfmUnHMYfLz9aPzPe8JxhmLCPulwVEczu5Iy6jiUn0ogeWJNsVS+w86fscS7zrObx9SfQlgxyP8ozk/HOA8mBfLYkRaxEFm+7C4ZBL1xR/T/MqcAN6oKgAAPrE0JuTmC+tzzIDPasZ07zQg1FlHRY4X0l+jEF4QsLfItdO+e3kPANxdJmwAeMgxBih2tiGVZWxsTABwgHAlDXJzuHnD1Rs56EaWVSNOg4ODdOvWLeEQr6T2t6+vr8jPz83NFQsVSmIs+6qPgC4AeJAA4JIBVz+d8gjeGAEA8IUZMOASgDuaPwHAR6w54JqZsDFgqjBAGTIAcO1M2J4w4DoC4EvMqLaM36d/vP9/CcZZK8mno/tN6TbI1n9S/tfCiAsP9e5qYJ0bRu7SraFLQq7rrvMqOU8SS9fBgL+W+3XtATib9N0eQg64OgY88AkAfz7zi5yGkECfdn1ALZN1vKgx6lLgpSSOruyL1IBIXkTKiSykL/E8wdDM1WZm9sYzsjBIf1//f9LgXC8vuBl/AQQKnJfSXmfl0XFKj8i0FxZN3wdwW15ephs3bojSVZoefMvBUFMa9aXhQo5a4M425DW3tLQQJOgDAwPO7ib6QX5uqz9udFMxzCFM9C5cuKAoRugMyTmk5+npnFrECxWyuTcCHgfgEbFWBtzXTwJw9069PJteIrC6jDrgCzQtAbjDKXkWgN9w2NfZjT87/F8MBMC1kaCfEBL047piwCH1HOD8y48636XO6SaaWhl3dord1i+CZbvfLvypYA1DBaPmnlNjMWKKpbLXBy7Qxw9/x7LvZU0MobS8esGAMwAHsNM8B3wTgJ9TdckA4GmhefQCA/C86CIanR+iC70fcZmvembC9Xe/qRrstp1hkgf/g0Psel8SX0lJphSRamBPIr9td01fzq7MUOdkK73T+g9sLDiqu3tZ08HywVDfPCMsj85kvEzZkfmcqhCs9Sl2PB7k3ADht2/fpsbGRgHGd+yo8s2EhAQ6duyYkJ8HBjpO7dl6qrW1NVGjHLW/keOspCUmJgrjNcjeATKN3EZGRkQZuYaGBkXDBPsNg7xTp05J8zVFkdOuswTg2sVSHklGYE8RWGEADgZcAnDH4XsKwC9qV4ZMAvBngo4ccD0CcFwkHszbJ5rpYt8H1MlGSK7IBX8mGApfwO3663k/5PzNYkL5KXc2fDaaWSFwufcTauecWS1LkmkxjpigRGHo9Ubhd70CgKP+Oe6v+5Z71DDKAGXsHhtuWfODtYiHno4B80Ehf46vpoLoElF2zpof7RkzpoGZXqrjmF/oe5+rC0zrKVSaXwvk/ulhOXQk8YRYuIsMitL8HLsdEPJuMM0AckpyrHc7LrYD/KampgqQB/DtrBP56uqqkMdfvnxZXJfS2t9wXAfrDvbd2XM6Mx499oE7PGp/K1UJQI0AlQDy5CMj3fv/lR7j6Ilr0gkADyJfaX3vifmX59RBBCQAd24SJAC3HyerBN24DDhGDqk1ylv9vu1XnA9+TeTnPub39NI8CcARA5ixoTzVHzt/TcML/SKHVS+xQUkzuKB/r/hnmufHo068VYKuHQNeFm+tv4wyYFj0Od/9Pg3MPWQjtGmOq/YmgJ6YJ8ieYayXbEqnkpgjXHf6pDAn88S1bD1no6WervR+Si1T90S6ydZtRvkbpnaIfV5kiViYqko5YdcR39VjHhoaEhJmsOBKge5u1wYAjBJXkDkraTAS6+vrI7C6SmtaA3ADVFZUVAjw7QkVh5Kx7rWvTcGAFAIAcCUl2nBOlBxDbj7k58HB7lFd7HWsRt1PBwA8QpiwSQm6UW8xOa7dIvAUgE9LEzYHwZIA3H5w9gMAx+gBuPtme5ghu0mf9XzATsRLwnXbfmTct8XTAByfDzg0X+3/TLC2fXOd7hv8LmfyYROskthK+lnFf/EqAI6HXKgJLIsjdHPgMtd8buDFjb5dRqv/zZgPmM5VxB2jQ7EVXOc7TziGu9r4y5nIXOk7R+93viMW2PSmcnHm+p3pE+rPC1IxNYSFnkyusQ7TNa1TM5y5DvRBDjHA7pUrV8TfkKVr1Q4dOiTczyFDV9JGR0eFLL63t1eR/BzgG6XOUNMaxmJGBd+Ipc1ED+ZrDx8+FOkESmKcmZlJNTU1QoYOObps7o+ALgB4ENcBlwDc/ZMvz6iPCCAHfGEWEnQJwB3NCABGHZuw3Rq8SHUWbXLAfw4JenyNo9N6xTYA8Pc731Z9rUKCnvQySyL1lQO+dWAocdU93UnXuTQZTLKm2TFZDw0A/Gs536OCmBIyBzuuI+6q6wVjOzjbz5+Tm1Q/eotGFwd0w9gCgP/7yv9N84diKwN+ha4NqmTA2R07/UkOuI0Bxzxh0Qdx7Z15SK0TjWwG2MCLQJ2i1Jqr5tGVxw3zj6QEzvHOiSqkXDZcSwxNFXXJXXlOZ44NL4OltSVeWHuf3u96Wyg49KRwcWYMjvoADPoe8BcS/3xzCcv9SykpLIXCAjxrfgXADZYZMvTu7m6anlYv+4frOEy9UF8a7udKcr8BLJH3DWA5NzdHyAV3tgUEBAjAn5OTQ0pBv7Pn0Es/MN5YoEAKAWqAK2khISFigQLKBIBvIy9UKImLu/t6HICHxzIDbpISdHdPvDyffiIgAbhzc2ED4DcZgNdLAP5M0H7b+s/sgq6RBJ0BONx4c3Xkgv7MYPkF8sH7ZnroUt+H9HC6jXNFZ56YNTlfJ3b7MdW+Bqv1xaxvUjEzinDR9mSDiVXdyC2hFJhemRA1iz15PTi3qwB4o5CgX6HragE4XNDD8oUJ21YAvjVuw2zM1jJ2n+6OXGVWfJjZ8QWO7bLuXdJRhguLa6H+YaJMXn5UCX/Gj1Ew1ybXA+uNGENtgM/1rcHLdHXgnFAeLK4jvt7vgo7Ym/zC2GU+ispiq0WZRyzSIddeDw0gF2D37t27gg0HK75XJhzgG+ZeYFhR/xt1ppU0XEd7eztdv35dyW4CRAJYgtVF7W+TyaRof2/qjM8KFk1QHx0lyFBOTklD7ndeXp6QoCvZT/bVNgIeBeD+QQEUsQnApQRC26mVR/OWCKwsrwoGfEYy4A6nTAJw++HZbwAc+eCo0wvDJuT/Xhs8Tysbix51TA7xC6WTya/S4cRqyojIsj9ZbtiC2IwtWuj2wFUG4TdoYL7bDWd1fAojAPCNRxuC+YYk/T6Xfnswdpf657p0Zwi4fSaCfUMp0ZRGx5LPsOQ5l6KDYzddzj0lfd5+jXiNz/Xc6iwNzw2I+DZNMMCY79mpq1e9l8R59uVxNVQcV06xIQli4QNpAHppAHT4gZFXV1eXKP0FUL4XEI7628grhvwcucUHDx5UNEywugDgra2tivaD4Rtyzk+fPi1Av5FZXeTqg/U+d44XqpgJVzpPMKiDRN/oKgFFN5AHOnsYgPsLAB4kGHAJwD0w//KUOojA6iYAn5E54A7m4ykAv6AhA/5fDSFBtwJw7SToVga8wMFs6GMTGMihuX5qY2lw05g1P3dudcojFxfMAPxEMqsHuNwW8jo93VaYObTMj1DHVLOood48XidqKqOkmydaUXQ5/aTiP1GgL7shawg+njLgn6gaVqBPMKVxOagXM18Tubn2DgagssKs9zgvcAzO9VHXZBs9nGmj0YUhNg2bs7eb29/3PxjIjHcEZUbkUUp4BiWx1DyRpedhAeEUwHOg17bB9+cyS9HHFkdpZH6Ahub7aWh2QADxKVZzrHtJXXAYD6K0WxrX9U4JQ/zTxMIHYg8TNj02gLnJyUmCMRuYVfztjLkXZMwA2yj/BVAHgy84a+/FgRysLgD42NiYohBB8g7H9fLycsHAK9rZyzpDJYCFimvXrhEc451tIg2C5+rEiRPCHM/oNdKdjYun+nkegMdEkADg/hKAe+omkOf1bAQEAOcyZDNjEoA7mgkJwO1HRysA7ncwgFlcmwRd/wAcEUF+7szyNJeMuksdE03sVs15jPygDpDkTrAJBvyUYMBrKN3DDPjWO2VyaZy62B29dvgaTS5ZRM78LJd3AtBh4e/Wri79G7LnH5T8pQCA/j7a1eaFa/btQZagD6nLAQ9gAJ7OAPwFBuDlT1zQdwsI/AiG5gbZKb2Rc8Q7aXxphOZX52hhbU6ULdtt//+/vXv9jeMq4zj+xF57L75ss7Zza26Ok9ZOaUrAuVBopArRihctSAjxIiChvix/D+95A69AQiBBEaCkSVDbpFKbOk3TJkoJtlM78S3rtXe9voTzHHcTQ7LjHc/Z3dnZ70iWI8/smTOfGbf+zbm53t9ufn+7zBjvlFlL+hnT3Xln6lkZ1KXF0gelJ+mvK7Drum2lPO1+rrP735m7LV8+uGlecoyZbuqztuv/gpkcL2+6qNf6OS53HW0t7ZKMdZjJ7Lqlo61T+lK7ZeCZITmcGZTejh1m0rt4uY+G6ufa8q2hWydmu3fvnuiM5BrytNVVXz5t3DTQacuzhm/tdn7gwAHbCq1dwf1u2oqr57506ZJthV9a8jf0QLtV66zeWgc/Y8791jMMx+vLkZs3b9px+zpmvtKtNDzglVdekX379lX6MY6rkkB4AngbAbxK95hiQy7wqAWcAO55px4F8LFzziZh+9VwdFrAXU3C1mgBvPTQ6CRO46al7LoZE6zzBNzLa4tkrrS76t91jOf3D7whx3efsoGn6if0cQINKRpmPr33iVyduCxX718xXalzNZ1B/vnMN+TnL75tl7rSVnBXWymAB56ErTQGfKDyAF66Bn32soX1eQm0N8aN6U9MYPTXhbZUVpDvfcndcqz3lBzMHJaD6UOyu/tZW1yYuplv5frUVzd90aZzP/x79pbcmjWThj34QgqrCzV90Vau/pnEDtnfNSAv9H3TTHA3JDvMPBD6oqmR7TV4LywsiM5KXm5cuM46rq3dGsKDdPvWc+m4Zl1Wa3R0tBxz2Z8PDg7Kyy+/LNqq67fbe9lCQ7pjZGRE9Eu9/HQ/17W/9QWFDg/QoQJs9RUISQBPMAt6fZ8Dzl5HgfUAvkgL+Cb3QN++PzCtHzOFKfN9ZpOjK9vdn37OtBRlKjs4xEdpN83JhfHANWyRFtNSttOadJqlcRpt0xbJ7FJWZgv3ZWZxWu6bFkntvno39x/7s0VHXYS1p0CHTqoU75VdnXukx4yp7U3usONrM6alMWlaIMO0aYDRGaXXbaZs995JM6HYxPxdM5mYfn31dWti5TMOl7s+nfBLbTKJPmOy0zxP5rtpAdzTtc+MjT9iQ4ke42p7HMCDd0G3LeAD5iVKhS3gG69Bx90vLi+aFvCs/e/UbN48fwuTMr14X6bz9+2zqOuI69J5QbfWbTHzO7ruq8/ddvPM9aX67MuN7njGjjHWVvBELBn0VKH6vPZ2yRtjHXqiPQ1yyw/kQX7OtJLP2K+sWYZvzvw/QnvAzC3568Jc6YXq7752L+9L7jLP9g674sH2ZMb+N1NXQug2kzHqsmJh7mpe6bVquNOWb22NLtcCrjOPa8vqVrqbb6yHTiR269Ytu6b11NTUxl2b/judTsvQ0JBd+1vDd5AXAZuerI4H6P3QFyHaTV9nP9ceA//fK8Grevqy5MSJE3aIgL4wYauvAAG8vv6cHQEhgPMQIOBeQP9QnzV/mE/mvrIvJ2bNi5uF5awsrRRM9/Ql+2W7qP9vr8onKrLNjNfUP6ZjJvTojNHxWNyuoaxdztPm5U1fapcNPmkztjbV3ul0fPMTlXHwA53oanm1aELhlB3HPGXG2k7lJ2XehJf8yqLt0q9G2uOkki3W2iYps4SXbm2mxU9fPuikX9vjPcalzwYTnfG5y4SSVuPnegtLAN94XWqsPQ6mF6fMM2jCoAnjGsI1gOu64tZX78NaUYorm3e1LRnri4s2450w3mnTxVxfAGWSPevG5rvOat5MmzovFHN29nQN3zqBW9asiJA13dazRTMMxdjqixE7rtw80yvmmfa7tJn+7pe6j+sLjaQx1hdM+mJpe6J3PXgnzFBK89y3tbQ1E7+za9UQqd3dr1y5YlvbKxl3Xjq5hm1d6kxn9dZZ16O8aeDW3gja+q0vK/xs+pJEx8ifOXPGdtFn7W8/etU5lgBeHVdKRaBiAQJ4xVQciMCWBfSPcA0+c/lZG8wfmD/Yl01IKnVvLVewBm9tYdQ/vu3Y2uR2O4O0y4nEyp27lj+fNz0HdBkobVnUFxcFE8Yr2VJmvOtOM95Vt664aflO9VTyMWfHhDGAl7u4Uiv5bH7GBPTio9bycseXfq4ve3Z07LK9B7RnijqzbS6g48cXiwvmWS7YFyH6Um7lob9eHhkTsrVlW7fejj7Tuh3d5a02F63OERosdQb2c+fOST6f99WtWlu8h4eH7aRifpc8q87VVK9Ubf3Wlm+dqV6DuJ9NJ6kbGBiwy7RFtYeAH48wHFv3AJ62k7DRBT0MDwN1qI9AKYBnGQNenxvAWZtCoNQNW1vBSl/aGrZJA7jtzqgtWzpzsX7FzL/1D5hGHtv5tBuuS2ytPFwxf/yu2lZwbV2sZNMXEdryrVvMrGusPrXcGimAa0uf9rrQ50999aWQ/nuzTdeLbjeTfOlzp93Pw7J+9Gb1rvf+dedVa63/Vm8/XXa1/vq7X+q5ob0Povbird73SM+vY5lv374tly9ffmpX93J11PCtk8Dp0mPauhv1yddyuZycP3/eLkGmYdzPpr0EdOmxI0eORLaLvh+PMBwbjgDeYQI4s6CH4XmgDnUQIIDXAZ1TIoBAJARcBfD415Ow/cBOwnYyEjZcBAKNIKDh+/PPzXJ+5rufScU0cGur96lTp+y45ihPvqaBW7vpX7x4Uebm5nw56TOgy7MdPXpUMpnGn/OmEZ7pSuoYggCeloQGcGZBr+R+cUwEBYoFM3nP/KLQAh7Bm8slIYBAVQWuTa4vQ3ZpPOgkbEmzDNmg2AC+mwBe1ZtG4QhsENAxzRrAdSI2Pz0USkuf6fhvnYgtypsuB6ezw1+7ds3OTF/ptdreWqbnzMmTJ+04ecZ+VypX/eMI4NU35gwIeApoC/h6AM/K6sqqpDsyMrT/uJw9/ZYc23vc87PsRAABBJpZgADezHefa4+CwJ07d2RiYsJ2P/dzPbqslq7/rd91krEob7oc3PT0tG0F1yXbKt10dnrtKbB3717b+s3470rlqn9cCAJ4t2kBT5oWcHfLklSfjTMg4E7gcQs4AdydKiUhgEAzCGgA/2D8olwa/1ugy020pqS/+3nTAq5rudMCHgiTDyPgQ0DHNvuZ+bxUtI7/7ujoEG3VjXqw1InqdDk47Yrup5u+uqiPLjumS8axhUcgJAGcLujheSSoSa0FHreAz9MCXmt8zocAAg0tQABv6NtH5RFAAIGmFCCAN+Vt56LDJEAAD9PdoC4IINBIAgTwRrpb1BUBBBBAQAXqG8AT7dLdp13QtQWcLug8ks0psLxkJmHLmknYpmgBb84ngKtGAIGtCjwK4GMBu6DH6IK+1XvA5xBAAAEE/AmEJIDHmQXd333j6AgJlMaAzxPAI3RXuRQEEKiFwHoAvyCXxtzMgv7aYcaA1+K+cQ4EEECgmQUI4M1897n2UAgQwENxG6gEAgg0oMDjAB6wBdxMwnbQTML22uE3mYStAZ8DqowAAgg0kkBoAngr64A30nNDXR0KLH+9Djgt4A5RKQoBBJpCgADeFLeZi0QAAQQiJRCCAN4lcTsGPBYpWC4GgUoFlu064HkhgFcqxnEIIIDAugABnCcBAQQQQKDRBOocwNuku7db4p0sQ9ZoDw71dSfwOIDrOuBrku7IyND+43L29FtybO9xdyeiJAQQQCBiAu4CeNJ0QR+kC3rEng8uBwEEEAijQN0DeJcJ4MyCHsZHgzrVSkDHgOfn85KdzsoaAbxW7JwHAQQiIGAD+Ni7ctHJLOgE8Ag8ElwCAgggEHqBugbwtsR6C3iig1nQQ/+kUMGqCRDAq0ZLwQggEHEBDeDvmwB+iQAe8TvN5SGAAALRESCAR+deciUNKkAAb9AbR7URQKDuAgTwut8CKoAAAggg4FOAAO4TjMMRcC1AAHctSnkIINAsAgTwZrnTXCcCCCAQHYHQBPDWttboqHIlCPgQ0GXI8vMFxoD7MONQBBBAQAVKAdzFGPBDTMLGQ4UAAgggUAOBUATwuB0DTgCvwf3mFCEUIICH8KZQJQQQaAgBAnhD3CYqiQACCCCwQYAAvgGDfyJQDwECeD3UOScCCERBgAAehbvINSCAAALNJRCOAJ7SWdBpAW+uR4+rLQksL9EFvWTBdwQQQMCPwKMAPvqOn489cWwilpL+7iF57cib8q3dJ5/Yzw8QQAABBBBwJVDTAH7+i7/Lnz/6g4x8eVmWlguiy5B1ZjolYQI4Y8Bd3VLKaTQBDeCFXEHmp3Oytrom27t65Vj/SfnZiV/IC3tearTLob4IIIBAzQRGzDJkH+g64ATwmplzIgQQQACBYAI1DeDvf3lR3vnkT/LejXNSKC5KrD0mqXRS2hPt0hJrCXYlfBqBBhVYKa5KMb8kiw/yNoD3pXfLdwZflTde+ok8t3OoQa+KaiOAAALVF9AAruuAuwjgdhI22wJ+qvoV5wwIIIAAAk0rUNMA/vnkdblw4x/yx8u/k1whK9u2bbPBW7/rFxsCzSjw8OFDebi2Jqum9VseiuzvOyQ/PnVWTvd/T559Zl8zknDNCCCAQEUCBPCKmDgIAQQQQCBEAjUN4LOLM3Jt/GP5zYVfy/j0HckvLYaIgqogUH+BzmS3HDswLL8887YJ3/ulM95Z/0pRAwQQQCCkAgTwkN4YqoUAAgggUFagpgFcazGRvSu///C38tnYVZmcvSuF5UVZWinK2tpq2UqyA4EoC8RaYxKPJSTRnpR9vf0yfOi78tPhsxJrbYvyZXNtCCCAQGABAnhgQgpAAAEEEKixQM0D+KoJ2gvFnNz46pppDb8qX0x8KmMzd2Q+P1/jS+d0CIRDoMdMura/55A8v+sFeXHvcenvHZBUvEPMwIxwVJBaIIAAAiEVGJn8yOEY8NIs6IwBD+ntploIIIBAJARqHsBLatodfWZhyn7lCvNSXFkq7eI7Ak0lkGhPSXcyLZlUj/R09plu511Ndf1cLAIIILBVgZEJdwG8Pz0krx82y5DtIYBv9X7wOQQQQACBzQXqFsA3rxpHIIAAAggggAAC5QWcBnCzDvjrOgs6Abw8OHsQQAABBAILEMADE1IAAggggAACCNRDgABeD3XOiQACCCAQRIAAHkSPzyKAAAIIIIBA3QQI4HWj58QIIIAAAlsUIIBvEY6PIYAAAggggEB9BQjg9fXn7AgggAAC/gUI4P7N+AQCCCCAAAIIhECgFMAvjP41UG0SsZQcsmPAf8QY8ECSfBgBBBBAYDMBAvhmQuxHAAEEEEAAgVAKEMBDeVuoFAIIIICAhwAB3AOHXQgggAACCCAQXgECeHjvDTVDAAEEEHi6AAH86S78FAEEEEAAAQRCLmAD+Oi7cmEsYBf0VtMFXdcBP0IX9JDfcqqHAAIINLwAAbzhbyEXgAACCCCAQHMKPArgLsaAE8Cb8yHiqhFAAIEaCxDAawzO6RBAAAEEEEDAjUApgL87+pdABSZ1Erb0UVrAAynyYQQQQACBSgQI4JUocQwCCCCAAAIIhE7g+r0R+XD8X/Le+D8D1S1uuqAf7D4irw78UF7a9e1AZfFhBBBAAAEEvAQI4F467EMAAQQQQACB0Arcnrkln90fkev3Pg5Ux/bWuOzs2CPDe0/L4Z7BQGXxYQQQQAABBLwECOBeOuxDAAEEEEAAgdAK5Io5yS7NSbYwF6iOLdtaJBFLSibZI53x7kBl8WEEEEAAAQS8BAjgXjrsQwABBBBAAAEEEEAAAQQQQMCRAAHcESTFIIAAAggggAACCCCAAAIIIOAlQAD30mEfAggggAACCCCAAAIIIIAAAo4ECOCOICkGAQQQQAABBBBAAAEEEEAAAS8BAriXDvsQQAABBBBAAAEEEEAAAQQQcCRAAHcESTEIIIAAAggggAACCCCAAAIIeAkQwL102IcAAggggAACCCCAAAIIIICAIwECuCNIikEAAQQQQAABBBBAAAEEEEDAS4AA7qXDPgQQQAABBBBAAAEEEEAAAQQcCRDAHUFSDAIIIIAAAggggAACCCCAAAJeAgRwLx32IYAAAggggAACCCCAAAIIIOBIgADuCJJiEEAAAQQQQAABBBBAAAEEEPASIIB76bAPAQQQQAABBBBAAAEEEEAAAUcCBHBHkBSDAAIIIIAAAggggAACCCCAgJcAAdxLh30IIIAAAggggAACCCCAAAIIOBIggDuCpBgEEEAAAQQQQAABBBBAAAEEvAQI4F467EMAAQQQQAABBBBAAAEEEEDAkQAB3BEkxSCAAAIIIIAAAggggAACCCDgJUAA99JhHwIIIIAAAggggAACCCCAAAKOBAjgjiApBgEEEEAAAQQQQAABBBBAAAEvAQK4lw77EEAAAQQQQAABBBBAAAEEEHAkQAB3BEkxCCCAAAIIIIAAAggggAACCHgJEMC9dNiHAAIIIIAAAggggAACCCCAgCMBArgjSIpBAAEEEEAAAQQQQAABBBBAwEuAAO6lwz4EEEAAAQQQQAABBBBAAAEEHAkQwB1BUgwCCCCAAAIIIIAAAggggAACXgIEcC8d9iGAAAIIIIAAAggggAACCCDgSIAA7giSYhBAAAEEEEAAAQQQQAABBBDwEiCAe+mwDwEEEEAAAQQQQAABBBBAAAFHAgRwR5AUgwACCCCAAAIIIIAAAggggICXAAHcS4d9CCCAAAIIIIAAAggggAACCDgSIIA7gqQYBBBAAAEEEEAAAQQQQAABBLwECOBeOuxDAAEEEEAAAQQQQAABBBBAwJEAAdwRJMUggAACCCCAAAIIIIAAAggg4CVAAPfSYR8CCCCAAAIIIIAAAggggAACjgQI4I4gKQYBBBBAAAEEEEAAAQQQQAABLwECuJcO+xBAAAEEEEAAAQQQQAABBBBwJEAAdwRJMQgggAACCCCAAAIIIIAAAgh4CRDAvXTYhwACCCCAAAIIIIAAAggggIAjAQK4I0iKQQABBBBAAAEEEEAAAQQQQMBLgADupcM+BBBAAAEEEEAAAQQQQAABBBwJEMAdQVIMAggggAACCCCAAAIIIIAAAl4C/wUtLwQ1sWJvewAAAABJRU5ErkJggg==;" parent="1" vertex="1">
                    <mxGeometry x="860" y="1380" width="83.47" height="30.46" as="geometry"/>
                </mxCell>
                <mxCell id="1LlXbSwlNms4GWx0Jfwh-44" value="&lt;b&gt;POD&lt;br&gt;&lt;br&gt;&lt;br&gt;&lt;br&gt;&lt;br&gt;&lt;br&gt;&lt;br&gt;&lt;br&gt;&lt;/b&gt;" style="rounded=0;whiteSpace=wrap;html=1;fillColor=default;" parent="1" vertex="1">
                    <mxGeometry x="312.54" y="1499.9999999999998" width="360" height="140.45" as="geometry"/>
                </mxCell>
                <mxCell id="xrNuxQP46FerP5aXgkIU-2" style="rounded=0;orthogonalLoop=1;jettySize=auto;html=1;edgeStyle=orthogonalEdgeStyle;dashed=1;curved=1;" parent="1" source="1LlXbSwlNms4GWx0Jfwh-46" target="1LlXbSwlNms4GWx0Jfwh-29" edge="1">
                    <mxGeometry relative="1" as="geometry"/>
                </mxCell>
                <mxCell id="1LlXbSwlNms4GWx0Jfwh-46" value="PEP" style="shape=image;verticalLabelPosition=bottom;labelBackgroundColor=default;verticalAlign=top;aspect=fixed;imageAspect=0;image=data:image/png,iVBORw0KGgoAAAANSUhEUgAAAOEAAADhCAMAAAAJbSJIAAAAyVBMVEX///8gwu8No8Y5TVQOrNEMlrdj1fQfxfM7REg7QkUJmbs6SlAgO0Q6RUjt7u/o6uomQEgit+EpnsAxfZQmqc4sk7ErmLgqa30mc4gyYG4je5Qui6hl2/s6SE02QEQwRk40x/BX0fPKztA4UlvAxcezubtKzfI0WWQvhJ5PYGbV2NmnrrGMlZl5hIhndHkwxvAzcISbo6Zbwd1Cc4JfzOpLkKRZaG1Qn7WssrVavdhzf4NJiZtGWF5Wr8g2VF5Eeoo7OjlEbHgwX22MRMweAAAL3UlEQVR4nO2da1ubShSFG0CHhKCJJs3NSWqjReOlai/ao6bq//9Rh2uA2cNlYIAZnq6P54k9vBL2XmsPznz69E//9E9RbW4uL282TV9Fddr87q9UddX//bXpK6lGX10+R6v+5VnTV8NfZ5cBn6vWMZ69DFRCA/W86avip3PI5zE+NX1lfPS0ovK5jIOrpq+uvK7URD6XcXXf9BWW0sH9gOAzlksj/l9W/fuDpq+zqA6uByuS78efhx+AcXAtJePBdR/w/X042d8/efgL7+P1YdPXy6rDG5IPe3yOTn7+XWKS8UYqRhrfc8DnMT5Dxv+kMaybW8CHn396fN86nW8BIwaMt1IwUviWET5HAeMvEzIKb8pDe73jM37tx/gijPu/VJNkvBSaEfKZNL4o46P9kfiPCGzKz14IPkNfP/p8XzpAX059xrVOMr4IacrPX/pqAt8phS/GuF3Gf1TE4PEE7Ody+3qSeP8IxpNXizQBggUPYK+NpeXzJd2/HIwrYYLHPRmPjOUsJ5+j7wHjDDKKEDxo8eH91ft6nn7P5gsZ90/+vItnymnx4f0PG5/IjIeU+PDjD7X9ZctnpISrxoIHtNfGLj6csvI58k3AgyDBIy0eMd8/glGE4LH5L9Nel2SkmPIaGTPiUTntgkdz4YoaH3jxRRj3fxmAsY4Vj5zxiA8jCB7Vr3gQqw+2dPWRN5+jLwEjJXhUyHgG44OaEo94MYLgUVW4Oof2evuYHR9KMKaY8goYQTzKHx8qYVQ5B4+rcvGhuHbBAxjWwYBj8KDEo/eAj8Fel2GkmXI7XHEx5XY84hIfODBWsuJBX13x20MtfK6C4EFb8SjFSItHpeJDcVUSPKjxgac9K8RIWw0oxnhYVXzgwMgjXFUaH0oz0kw5W/Cg8XGND5Uw5g8elNUHlXt8KM/4qOogeORi3JB8hllNfCiuiCkHqzrZ39WvgC9r9aEJBYYVrnj0s7LVQdyfVR0fisu/j9CU9zMcwPUqxld9fCiuhOCxukknjPHVEx+K6ws1eKzyfkmN+uJDcYWmPERM/5pGH0OvwIjM58hltG/jOiRMtXBRQqw+nojO5+j76clrtKTmJ1RVff0ZoaYBsoSQYsVaRk5Cy/NEpqWIzYjQaOZZm6XFRGgoi63LaHRnI4EZ0XDS9fjWjycGG6GiXKx9xokmKCIa3nn3DxtOWWQmVJS54TPeDQVkRJ1j3b0+bHq5oAChokwN73fUPRaNEXUuTJ/v2fPN33ARQpvR/x7gi45AjAgt/O9XMFex+1pBQqU38RnNhSiMCH323vgzlj9+hr6rKKEy2vMZTXUsQllF6Gire3zvD9HcU5hQUbQ9v+eY66OmGe0GaPkN0J9L73JBCUJbY0v3LUCj7THS4LevZG4tR6hoIlgAuwEGDd4PPtG5SknCiAXQJ820DjQMCrv6CPl4ENqManMWwG7wfgPE/uCPnIvxIFSUY68N1W4BUGcR8D3T+XgR2hbArN8CIDT2vz3BwgItuPIiVJQJ9hlrsgCRBv83mY8n4c7mmGoNCdlu8JZJa/BVEjoWwPuu6lVbANjgkwe3PAmV0ALoVVoAhLRdggcNvmpCZbTw3WF1FiC9wVdOqESnAFW0jqwG3yHrXAWEijIPLMCUN2N2g0edUQ2Eu0mHbQF4to4wwQcN/pT8BDpavx3F/pcVEVZhAXI0eDdjmJ/rIYxYgDEPxhwN3ilBWLXqIwwtQPkheWKCj3zEeUTxpDfp1kcYTgH0bSkLkJLgw4+MsWnOxr16Ce326FsAQy/eHvM0eOcWY2vR6+3VTchhCpCnwaOjN7ye23x7DRAq5SxAdoN3PzXWZy5fQ4SRhQBGCxBpgAkNPiDsTmzAnqI0RRi1APkZwwRvJjT4GGFP0bQGCdkXAiINPmiA8FcQEk41R40Ssk0BEkb0sY8Mx0PBCPNPAaIJPrEBLnB3gQQjDKcAqQsBuRr8kWoaWDxCJcdCgDOi76Y3ePdXgLczU0hCZbSw0qYAORq8s0yPjWlvqotJqKQtBOwavJnY4N1lbDzZ64lMmLQQEK7B48ekBm87bGx+jB0HKjThbtIRsQDQwJwCvg5Susb2wnOgghOGFsB0LUBkDT5lRG977O6HxycBoaLc4fBdgHwjeofQdaAOiwSEtgUI2mPOEb1H2PNYZCAMpwDpBiZOGLBIQWhr/OH/3XLaiH7XOGUkVLSF5SAG7xhQEiAaHgcv0UlJaDPaJsf8mZRwnSFa91huQsUlTOBDY8P22O0gPKXxHa11bE1M2QntVqE/UBqgEzOwOu/NdckJNZvQHJJ43pTezhA96Qk1t9IAQnRhuhnCdjCSE2p0QjR6M9wMIT2hlkgYemypCbVUQt9jy0yopRP6HltiQi2dMLhqeQm1dMKZ9IRa2wm1thNqLSfUtJYTjtpOqGktJ9TaTkgCto4QALaNEAK2jJAC2C5CGmCrCKmAbSKkA7aIMAGwNYRJfK0hTAZsCWEKYDsI0wBbQZgK2AbCdMAWEGYAyk+YBSg9YSag7ITZgJIT5gCUmzAPoNSEuQAlJszHJzFhXkBpCXMDykqYH1BSQgZAOQlZAKUkZAKUkZANUEJCRkD5CFkBpSNkBpSMkJ1PMsJRIkZLCIvwSUVYDFAiwoKA8hAWBeRLqFdHWBiQI+H4w6juHhYH5EaoTHTnzxlj4kdYApAX4RxjuP8mN8IygFwIhwtVd/48nPhXEBvhbK8SQA6E+uRDp2xjgIZ3TDuWq4Y5qQKQAyE2KPtuo85xN/j7zYyDZsJjZgxjzp2Py7dUB9vCOFtH4d2FD1IBP91GTtLB6wstDljIinIl7AwX5DkGzu5gZnjVq9t0wk3stFhsjUc87yAHwg54AEez2Nld/axzu65jiIY56/EE5EBI/GywucYOMOMwJFv38UO7DH3KEZAzIepcdHH0alf9PMevbn7HzzU21Dk3wIKEEyqh82e1MT61/zvnEYFfX+Jnk+H1gg9fIUJtYeHuGBAipHjbD4ZFlOU866dV/Hw5+3FsitB2oCaGtxAN4wVGXQ0Yz0C+Jh/HSTOVZqrTtkZFw+N4gSlypuwBcQ6pgY/rJ7wwdMou/rvt3cIH8L9CZ61uLuMlB6sXtRKalqU7W02DB9DfHSXky3GuY4LOiOPG9e24TkKDcmiYszdWnG+gljpo/Yo40lKf1Zee3nS4od3uCKvwASx9ADlZcrqlSk5+wk7nM+TrcCgwUIe3hAPA83oI4QO4II5z7t8WPrA6LlhyCjsAFkKS72hNPID5DsfNJ7LkmNZezYR2hCD4VqUKDNT9gIsDKEgIIgSHAgN0QJy0bphT7oS9Xrh7S/QDwf5uId8NhwIDRZYcbLA7gFRCbb4O9/GMPICFIwS7YOhgdQBphHsWdvY7JflAgWGJEOw6HxAO4IMtdCQTKjMdwxaPtBnxAA6equRzVK7kJBLaGUIHGYJSYK6r5vtEKTmYoeTQCfW1im1KMAQFBaZYhGAXOedgKDl0QpNyaK0dIeorMFCg5OQNHdRdlLQ3cLKiu71uvMColRYYKHLOoedzOfR9oobwASQjBOuMgocKzTmohJD4WK8gQrDrEMw5sktODsIKIwS72EtOJqG7f3ecr/iMgofI0JFVcjIIKTMK3hGCXVdMLiedEA2Bg+EfIdh1wFJy0gidzT2JAlNNhGAXmHOYiaPVZELKELS5AgO1uSQex6TRahIhHIIOXjjOKHjonHQA9JJDJ4QFZtV8gYG6J0vO7Cgnoe1gyFUWEQoMFJxz3OXZY8jZY1/QAgO1yRytAkK7wJAOps4Iwa6sxVWCkDKjqDtCsIssOfHRapyQEpEqn1HwEPmugxlxAFFCNLwjH0AxCwwUKDn6FBJSVlnELTBQiaEjIKx1CFqNzuglxyMkXtRSKx+CViPwPofV8wl3xxzuvqCrBmYUPEQJHfadw9q0iSFoNYKjVfcLy+U9ClFElhyghmcUPESWnHiBEd/B5NETETrCB1DQCFFARMmRv8BAkaNVVbAZBQ8R73NwfY9CFEVGqyVf1BJX/itk8kQIdh3cr/r9VTOrLLXpsPb68j9kmcfHWbANEQAAAABJRU5ErkJggg==;fontStyle=1" parent="1" vertex="1">
                    <mxGeometry x="542.5400000000001" y="1528.4499999999998" width="80" height="80" as="geometry"/>
                </mxCell>
                <mxCell id="FLL2hWeKyizGJmpZfxUS-1" value="" style="shape=image;verticalLabelPosition=bottom;labelBackgroundColor=default;verticalAlign=top;aspect=fixed;imageAspect=0;image=https://cdn-icons-png.flaticon.com/512/888/888868.png;" parent="1" vertex="1">
                    <mxGeometry x="1030" y="1497.55" width="30" height="30" as="geometry"/>
                </mxCell>
                <mxCell id="xrNuxQP46FerP5aXgkIU-5" value="PIP" style="shape=image;verticalLabelPosition=bottom;labelBackgroundColor=default;verticalAlign=top;aspect=fixed;imageAspect=0;image=data:image/png,iVBORw0KGgoAAAANSUhEUgAAAOEAAADhCAMAAAAJbSJIAAAAyVBMVEX///8gwu8No8Y5TVQOrNEMlrdj1fQfxfM7REg7QkUJmbs6SlAgO0Q6RUjt7u/o6uomQEgit+EpnsAxfZQmqc4sk7ErmLgqa30mc4gyYG4je5Qui6hl2/s6SE02QEQwRk40x/BX0fPKztA4UlvAxcezubtKzfI0WWQvhJ5PYGbV2NmnrrGMlZl5hIhndHkwxvAzcISbo6Zbwd1Cc4JfzOpLkKRZaG1Qn7WssrVavdhzf4NJiZtGWF5Wr8g2VF5Eeoo7OjlEbHgwX22MRMweAAAL3UlEQVR4nO2da1ubShSFG0CHhKCJJs3NSWqjReOlai/ao6bq//9Rh2uA2cNlYIAZnq6P54k9vBL2XmsPznz69E//9E9RbW4uL282TV9Fddr87q9UddX//bXpK6lGX10+R6v+5VnTV8NfZ5cBn6vWMZ69DFRCA/W86avip3PI5zE+NX1lfPS0ovK5jIOrpq+uvK7URD6XcXXf9BWW0sH9gOAzlksj/l9W/fuDpq+zqA6uByuS78efhx+AcXAtJePBdR/w/X042d8/efgL7+P1YdPXy6rDG5IPe3yOTn7+XWKS8UYqRhrfc8DnMT5Dxv+kMaybW8CHn396fN86nW8BIwaMt1IwUviWET5HAeMvEzIKb8pDe73jM37tx/gijPu/VJNkvBSaEfKZNL4o46P9kfiPCGzKz14IPkNfP/p8XzpAX059xrVOMr4IacrPX/pqAt8phS/GuF3Gf1TE4PEE7Ody+3qSeP8IxpNXizQBggUPYK+NpeXzJd2/HIwrYYLHPRmPjOUsJ5+j7wHjDDKKEDxo8eH91ft6nn7P5gsZ90/+vItnymnx4f0PG5/IjIeU+PDjD7X9ZctnpISrxoIHtNfGLj6csvI58k3AgyDBIy0eMd8/glGE4LH5L9Nel2SkmPIaGTPiUTntgkdz4YoaH3jxRRj3fxmAsY4Vj5zxiA8jCB7Vr3gQqw+2dPWRN5+jLwEjJXhUyHgG44OaEo94MYLgUVW4Oof2evuYHR9KMKaY8goYQTzKHx8qYVQ5B4+rcvGhuHbBAxjWwYBj8KDEo/eAj8Fel2GkmXI7XHEx5XY84hIfODBWsuJBX13x20MtfK6C4EFb8SjFSItHpeJDcVUSPKjxgac9K8RIWw0oxnhYVXzgwMgjXFUaH0oz0kw5W/Cg8XGND5Uw5g8elNUHlXt8KM/4qOogeORi3JB8hllNfCiuiCkHqzrZ39WvgC9r9aEJBYYVrnj0s7LVQdyfVR0fisu/j9CU9zMcwPUqxld9fCiuhOCxukknjPHVEx+K6ws1eKzyfkmN+uJDcYWmPERM/5pGH0OvwIjM58hltG/jOiRMtXBRQqw+nojO5+j76clrtKTmJ1RVff0ZoaYBsoSQYsVaRk5Cy/NEpqWIzYjQaOZZm6XFRGgoi63LaHRnI4EZ0XDS9fjWjycGG6GiXKx9xokmKCIa3nn3DxtOWWQmVJS54TPeDQVkRJ1j3b0+bHq5oAChokwN73fUPRaNEXUuTJ/v2fPN33ARQpvR/x7gi45AjAgt/O9XMFex+1pBQqU38RnNhSiMCH323vgzlj9+hr6rKKEy2vMZTXUsQllF6Gire3zvD9HcU5hQUbQ9v+eY66OmGe0GaPkN0J9L73JBCUJbY0v3LUCj7THS4LevZG4tR6hoIlgAuwEGDd4PPtG5SknCiAXQJ820DjQMCrv6CPl4ENqManMWwG7wfgPE/uCPnIvxIFSUY68N1W4BUGcR8D3T+XgR2hbArN8CIDT2vz3BwgItuPIiVJQJ9hlrsgCRBv83mY8n4c7mmGoNCdlu8JZJa/BVEjoWwPuu6lVbANjgkwe3PAmV0ALoVVoAhLRdggcNvmpCZbTw3WF1FiC9wVdOqESnAFW0jqwG3yHrXAWEijIPLMCUN2N2g0edUQ2Eu0mHbQF4to4wwQcN/pT8BDpavx3F/pcVEVZhAXI0eDdjmJ/rIYxYgDEPxhwN3ilBWLXqIwwtQPkheWKCj3zEeUTxpDfp1kcYTgH0bSkLkJLgw4+MsWnOxr16Ce326FsAQy/eHvM0eOcWY2vR6+3VTchhCpCnwaOjN7ye23x7DRAq5SxAdoN3PzXWZy5fQ4SRhQBGCxBpgAkNPiDsTmzAnqI0RRi1APkZwwRvJjT4GGFP0bQGCdkXAiINPmiA8FcQEk41R40Ssk0BEkb0sY8Mx0PBCPNPAaIJPrEBLnB3gQQjDKcAqQsBuRr8kWoaWDxCJcdCgDOi76Y3ePdXgLczU0hCZbSw0qYAORq8s0yPjWlvqotJqKQtBOwavJnY4N1lbDzZ64lMmLQQEK7B48ekBm87bGx+jB0HKjThbtIRsQDQwJwCvg5Susb2wnOgghOGFsB0LUBkDT5lRG977O6HxycBoaLc4fBdgHwjeofQdaAOiwSEtgUI2mPOEb1H2PNYZCAMpwDpBiZOGLBIQWhr/OH/3XLaiH7XOGUkVLSF5SAG7xhQEiAaHgcv0UlJaDPaJsf8mZRwnSFa91huQsUlTOBDY8P22O0gPKXxHa11bE1M2QntVqE/UBqgEzOwOu/NdckJNZvQHJJ43pTezhA96Qk1t9IAQnRhuhnCdjCSE2p0QjR6M9wMIT2hlkgYemypCbVUQt9jy0yopRP6HltiQi2dMLhqeQm1dMKZ9IRa2wm1thNqLSfUtJYTjtpOqGktJ9TaTkgCto4QALaNEAK2jJAC2C5CGmCrCKmAbSKkA7aIMAGwNYRJfK0hTAZsCWEKYDsI0wBbQZgK2AbCdMAWEGYAyk+YBSg9YSag7ITZgJIT5gCUmzAPoNSEuQAlJszHJzFhXkBpCXMDykqYH1BSQgZAOQlZAKUkZAKUkZANUEJCRkD5CFkBpSNkBpSMkJ1PMsJRIkZLCIvwSUVYDFAiwoKA8hAWBeRLqFdHWBiQI+H4w6juHhYH5EaoTHTnzxlj4kdYApAX4RxjuP8mN8IygFwIhwtVd/48nPhXEBvhbK8SQA6E+uRDp2xjgIZ3TDuWq4Y5qQKQAyE2KPtuo85xN/j7zYyDZsJjZgxjzp2Py7dUB9vCOFtH4d2FD1IBP91GTtLB6wstDljIinIl7AwX5DkGzu5gZnjVq9t0wk3stFhsjUc87yAHwg54AEez2Nld/axzu65jiIY56/EE5EBI/GywucYOMOMwJFv38UO7DH3KEZAzIepcdHH0alf9PMevbn7HzzU21Dk3wIKEEyqh82e1MT61/zvnEYFfX+Jnk+H1gg9fIUJtYeHuGBAipHjbD4ZFlOU866dV/Hw5+3FsitB2oCaGtxAN4wVGXQ0Yz0C+Jh/HSTOVZqrTtkZFw+N4gSlypuwBcQ6pgY/rJ7wwdMou/rvt3cIH8L9CZ61uLuMlB6sXtRKalqU7W02DB9DfHSXky3GuY4LOiOPG9e24TkKDcmiYszdWnG+gljpo/Yo40lKf1Zee3nS4od3uCKvwASx9ADlZcrqlSk5+wk7nM+TrcCgwUIe3hAPA83oI4QO4II5z7t8WPrA6LlhyCjsAFkKS72hNPID5DsfNJ7LkmNZezYR2hCD4VqUKDNT9gIsDKEgIIgSHAgN0QJy0bphT7oS9Xrh7S/QDwf5uId8NhwIDRZYcbLA7gFRCbb4O9/GMPICFIwS7YOhgdQBphHsWdvY7JflAgWGJEOw6HxAO4IMtdCQTKjMdwxaPtBnxAA6equRzVK7kJBLaGUIHGYJSYK6r5vtEKTmYoeTQCfW1im1KMAQFBaZYhGAXOedgKDl0QpNyaK0dIeorMFCg5OQNHdRdlLQ3cLKiu71uvMColRYYKHLOoedzOfR9oobwASQjBOuMgocKzTmohJD4WK8gQrDrEMw5sktODsIKIwS72EtOJqG7f3ecr/iMgofI0JFVcjIIKTMK3hGCXVdMLiedEA2Bg+EfIdh1wFJy0gidzT2JAlNNhGAXmHOYiaPVZELKELS5AgO1uSQex6TRahIhHIIOXjjOKHjonHQA9JJDJ4QFZtV8gYG6J0vO7Cgnoe1gyFUWEQoMFJxz3OXZY8jZY1/QAgO1yRytAkK7wJAOps4Iwa6sxVWCkDKjqDtCsIssOfHRapyQEpEqn1HwEPmugxlxAFFCNLwjH0AxCwwUKDn6FBJSVlnELTBQiaEjIKx1CFqNzuglxyMkXtRSKx+CViPwPofV8wl3xxzuvqCrBmYUPEQJHfadw9q0iSFoNYKjVfcLy+U9ClFElhyghmcUPESWnHiBEd/B5NETETrCB1DQCFFARMmRv8BAkaNVVbAZBQ8R73NwfY9CFEVGqyVf1BJX/itk8kQIdh3cr/r9VTOrLLXpsPb68j9kmcfHWbANEQAAAABJRU5ErkJggg==;fontStyle=1" parent="1" vertex="1">
                    <mxGeometry x="1000" y="1245.55" width="80" height="80" as="geometry"/>
                </mxCell>
                <mxCell id="xrNuxQP46FerP5aXgkIU-6" value="" style="shape=image;verticalLabelPosition=bottom;labelBackgroundColor=default;verticalAlign=top;aspect=fixed;imageAspect=0;image=https://cdn-icons-png.flaticon.com/512/888/888868.png;" parent="1" vertex="1">
                    <mxGeometry x="1070" y="1220" width="30" height="30" as="geometry"/>
                </mxCell>
                <mxCell id="xrNuxQP46FerP5aXgkIU-7" value="" style="shape=image;verticalLabelPosition=bottom;labelBackgroundColor=default;verticalAlign=top;aspect=fixed;imageAspect=0;image=https://cdn-icons-png.flaticon.com/512/888/888868.png;" parent="1" vertex="1">
                    <mxGeometry x="410" y="1228.26" width="30" height="30" as="geometry"/>
                </mxCell>
                <mxCell id="xrNuxQP46FerP5aXgkIU-8" value="" style="shape=image;verticalLabelPosition=bottom;labelBackgroundColor=default;verticalAlign=top;aspect=fixed;imageAspect=0;image=https://cdn-icons-png.flaticon.com/512/888/888868.png;" parent="1" vertex="1">
                    <mxGeometry x="612.54" y="1510" width="30" height="30" as="geometry"/>
                </mxCell>
                <mxCell id="xrNuxQP46FerP5aXgkIU-9" value="PRP" style="shape=image;verticalLabelPosition=bottom;labelBackgroundColor=default;verticalAlign=top;aspect=fixed;imageAspect=0;image=data:image/png,iVBORw0KGgoAAAANSUhEUgAAAOEAAADhCAMAAAAJbSJIAAAAyVBMVEX///8gwu8No8Y5TVQOrNEMlrdj1fQfxfM7REg7QkUJmbs6SlAgO0Q6RUjt7u/o6uomQEgit+EpnsAxfZQmqc4sk7ErmLgqa30mc4gyYG4je5Qui6hl2/s6SE02QEQwRk40x/BX0fPKztA4UlvAxcezubtKzfI0WWQvhJ5PYGbV2NmnrrGMlZl5hIhndHkwxvAzcISbo6Zbwd1Cc4JfzOpLkKRZaG1Qn7WssrVavdhzf4NJiZtGWF5Wr8g2VF5Eeoo7OjlEbHgwX22MRMweAAAL3UlEQVR4nO2da1ubShSFG0CHhKCJJs3NSWqjReOlai/ao6bq//9Rh2uA2cNlYIAZnq6P54k9vBL2XmsPznz69E//9E9RbW4uL282TV9Fddr87q9UddX//bXpK6lGX10+R6v+5VnTV8NfZ5cBn6vWMZ69DFRCA/W86avip3PI5zE+NX1lfPS0ovK5jIOrpq+uvK7URD6XcXXf9BWW0sH9gOAzlksj/l9W/fuDpq+zqA6uByuS78efhx+AcXAtJePBdR/w/X042d8/efgL7+P1YdPXy6rDG5IPe3yOTn7+XWKS8UYqRhrfc8DnMT5Dxv+kMaybW8CHn396fN86nW8BIwaMt1IwUviWET5HAeMvEzIKb8pDe73jM37tx/gijPu/VJNkvBSaEfKZNL4o46P9kfiPCGzKz14IPkNfP/p8XzpAX059xrVOMr4IacrPX/pqAt8phS/GuF3Gf1TE4PEE7Ody+3qSeP8IxpNXizQBggUPYK+NpeXzJd2/HIwrYYLHPRmPjOUsJ5+j7wHjDDKKEDxo8eH91ft6nn7P5gsZ90/+vItnymnx4f0PG5/IjIeU+PDjD7X9ZctnpISrxoIHtNfGLj6csvI58k3AgyDBIy0eMd8/glGE4LH5L9Nel2SkmPIaGTPiUTntgkdz4YoaH3jxRRj3fxmAsY4Vj5zxiA8jCB7Vr3gQqw+2dPWRN5+jLwEjJXhUyHgG44OaEo94MYLgUVW4Oof2evuYHR9KMKaY8goYQTzKHx8qYVQ5B4+rcvGhuHbBAxjWwYBj8KDEo/eAj8Fel2GkmXI7XHEx5XY84hIfODBWsuJBX13x20MtfK6C4EFb8SjFSItHpeJDcVUSPKjxgac9K8RIWw0oxnhYVXzgwMgjXFUaH0oz0kw5W/Cg8XGND5Uw5g8elNUHlXt8KM/4qOogeORi3JB8hllNfCiuiCkHqzrZ39WvgC9r9aEJBYYVrnj0s7LVQdyfVR0fisu/j9CU9zMcwPUqxld9fCiuhOCxukknjPHVEx+K6ws1eKzyfkmN+uJDcYWmPERM/5pGH0OvwIjM58hltG/jOiRMtXBRQqw+nojO5+j76clrtKTmJ1RVff0ZoaYBsoSQYsVaRk5Cy/NEpqWIzYjQaOZZm6XFRGgoi63LaHRnI4EZ0XDS9fjWjycGG6GiXKx9xokmKCIa3nn3DxtOWWQmVJS54TPeDQVkRJ1j3b0+bHq5oAChokwN73fUPRaNEXUuTJ/v2fPN33ARQpvR/x7gi45AjAgt/O9XMFex+1pBQqU38RnNhSiMCH323vgzlj9+hr6rKKEy2vMZTXUsQllF6Gire3zvD9HcU5hQUbQ9v+eY66OmGe0GaPkN0J9L73JBCUJbY0v3LUCj7THS4LevZG4tR6hoIlgAuwEGDd4PPtG5SknCiAXQJ820DjQMCrv6CPl4ENqManMWwG7wfgPE/uCPnIvxIFSUY68N1W4BUGcR8D3T+XgR2hbArN8CIDT2vz3BwgItuPIiVJQJ9hlrsgCRBv83mY8n4c7mmGoNCdlu8JZJa/BVEjoWwPuu6lVbANjgkwe3PAmV0ALoVVoAhLRdggcNvmpCZbTw3WF1FiC9wVdOqESnAFW0jqwG3yHrXAWEijIPLMCUN2N2g0edUQ2Eu0mHbQF4to4wwQcN/pT8BDpavx3F/pcVEVZhAXI0eDdjmJ/rIYxYgDEPxhwN3ilBWLXqIwwtQPkheWKCj3zEeUTxpDfp1kcYTgH0bSkLkJLgw4+MsWnOxr16Ce326FsAQy/eHvM0eOcWY2vR6+3VTchhCpCnwaOjN7ye23x7DRAq5SxAdoN3PzXWZy5fQ4SRhQBGCxBpgAkNPiDsTmzAnqI0RRi1APkZwwRvJjT4GGFP0bQGCdkXAiINPmiA8FcQEk41R40Ssk0BEkb0sY8Mx0PBCPNPAaIJPrEBLnB3gQQjDKcAqQsBuRr8kWoaWDxCJcdCgDOi76Y3ePdXgLczU0hCZbSw0qYAORq8s0yPjWlvqotJqKQtBOwavJnY4N1lbDzZ64lMmLQQEK7B48ekBm87bGx+jB0HKjThbtIRsQDQwJwCvg5Susb2wnOgghOGFsB0LUBkDT5lRG977O6HxycBoaLc4fBdgHwjeofQdaAOiwSEtgUI2mPOEb1H2PNYZCAMpwDpBiZOGLBIQWhr/OH/3XLaiH7XOGUkVLSF5SAG7xhQEiAaHgcv0UlJaDPaJsf8mZRwnSFa91huQsUlTOBDY8P22O0gPKXxHa11bE1M2QntVqE/UBqgEzOwOu/NdckJNZvQHJJ43pTezhA96Qk1t9IAQnRhuhnCdjCSE2p0QjR6M9wMIT2hlkgYemypCbVUQt9jy0yopRP6HltiQi2dMLhqeQm1dMKZ9IRa2wm1thNqLSfUtJYTjtpOqGktJ9TaTkgCto4QALaNEAK2jJAC2C5CGmCrCKmAbSKkA7aIMAGwNYRJfK0hTAZsCWEKYDsI0wBbQZgK2AbCdMAWEGYAyk+YBSg9YSag7ITZgJIT5gCUmzAPoNSEuQAlJszHJzFhXkBpCXMDykqYH1BSQgZAOQlZAKUkZAKUkZANUEJCRkD5CFkBpSNkBpSMkJ1PMsJRIkZLCIvwSUVYDFAiwoKA8hAWBeRLqFdHWBiQI+H4w6juHhYH5EaoTHTnzxlj4kdYApAX4RxjuP8mN8IygFwIhwtVd/48nPhXEBvhbK8SQA6E+uRDp2xjgIZ3TDuWq4Y5qQKQAyE2KPtuo85xN/j7zYyDZsJjZgxjzp2Py7dUB9vCOFtH4d2FD1IBP91GTtLB6wstDljIinIl7AwX5DkGzu5gZnjVq9t0wk3stFhsjUc87yAHwg54AEez2Nld/axzu65jiIY56/EE5EBI/GywucYOMOMwJFv38UO7DH3KEZAzIepcdHH0alf9PMevbn7HzzU21Dk3wIKEEyqh82e1MT61/zvnEYFfX+Jnk+H1gg9fIUJtYeHuGBAipHjbD4ZFlOU866dV/Hw5+3FsitB2oCaGtxAN4wVGXQ0Yz0C+Jh/HSTOVZqrTtkZFw+N4gSlypuwBcQ6pgY/rJ7wwdMou/rvt3cIH8L9CZ61uLuMlB6sXtRKalqU7W02DB9DfHSXky3GuY4LOiOPG9e24TkKDcmiYszdWnG+gljpo/Yo40lKf1Zee3nS4od3uCKvwASx9ADlZcrqlSk5+wk7nM+TrcCgwUIe3hAPA83oI4QO4II5z7t8WPrA6LlhyCjsAFkKS72hNPID5DsfNJ7LkmNZezYR2hCD4VqUKDNT9gIsDKEgIIgSHAgN0QJy0bphT7oS9Xrh7S/QDwf5uId8NhwIDRZYcbLA7gFRCbb4O9/GMPICFIwS7YOhgdQBphHsWdvY7JflAgWGJEOw6HxAO4IMtdCQTKjMdwxaPtBnxAA6equRzVK7kJBLaGUIHGYJSYK6r5vtEKTmYoeTQCfW1im1KMAQFBaZYhGAXOedgKDl0QpNyaK0dIeorMFCg5OQNHdRdlLQ3cLKiu71uvMColRYYKHLOoedzOfR9oobwASQjBOuMgocKzTmohJD4WK8gQrDrEMw5sktODsIKIwS72EtOJqG7f3ecr/iMgofI0JFVcjIIKTMK3hGCXVdMLiedEA2Bg+EfIdh1wFJy0gidzT2JAlNNhGAXmHOYiaPVZELKELS5AgO1uSQex6TRahIhHIIOXjjOKHjonHQA9JJDJ4QFZtV8gYG6J0vO7Cgnoe1gyFUWEQoMFJxz3OXZY8jZY1/QAgO1yRytAkK7wJAOps4Iwa6sxVWCkDKjqDtCsIssOfHRapyQEpEqn1HwEPmugxlxAFFCNLwjH0AxCwwUKDn6FBJSVlnELTBQiaEjIKx1CFqNzuglxyMkXtRSKx+CViPwPofV8wl3xxzuvqCrBmYUPEQJHfadw9q0iSFoNYKjVfcLy+U9ClFElhyghmcUPESWnHiBEd/B5NETETrCB1DQCFFARMmRv8BAkaNVVbAZBQ8R73NwfY9CFEVGqyVf1BJX/itk8kQIdh3cr/r9VTOrLLXpsPb68j9kmcfHWbANEQAAAABJRU5ErkJggg==;fontStyle=1" parent="1" vertex="1">
                    <mxGeometry x="1090" y="1307.1" width="80" height="80" as="geometry"/>
                </mxCell>
                <mxCell id="xrNuxQP46FerP5aXgkIU-10" value="" style="shape=image;verticalLabelPosition=bottom;labelBackgroundColor=default;verticalAlign=top;aspect=fixed;imageAspect=0;image=https://cdn-icons-png.flaticon.com/512/888/888868.png;" parent="1" vertex="1">
                    <mxGeometry x="1160" y="1287.55" width="30" height="30" as="geometry"/>
                </mxCell>
                <mxCell id="xrNuxQP46FerP5aXgkIU-11" style="rounded=0;orthogonalLoop=1;jettySize=auto;html=1;dashed=1;" parent="1" source="1LlXbSwlNms4GWx0Jfwh-3" target="xrNuxQP46FerP5aXgkIU-5" edge="1">
                    <mxGeometry relative="1" as="geometry"/>
                </mxCell>
                <mxCell id="xrNuxQP46FerP5aXgkIU-12" style="rounded=0;orthogonalLoop=1;jettySize=auto;html=1;dashed=1;edgeStyle=orthogonalEdgeStyle;" parent="1" source="1LlXbSwlNms4GWx0Jfwh-3" target="xrNuxQP46FerP5aXgkIU-9" edge="1">
                    <mxGeometry relative="1" as="geometry">
                        <Array as="points">
                            <mxPoint x="800" y="1286"/>
                            <mxPoint x="800" y="1347"/>
                        </Array>
                    </mxGeometry>
                </mxCell>
                <mxCell id="xrNuxQP46FerP5aXgkIU-17" value="AUTENTICAMI-PDP" style="shape=image;verticalLabelPosition=bottom;labelBackgroundColor=default;verticalAlign=top;aspect=fixed;imageAspect=0;image=data:image/png,iVBORw0KGgoAAAANSUhEUgAAAOEAAADhCAMAAAAJbSJIAAAAyVBMVEX///8gwu8No8Y5TVQOrNEMlrdj1fQfxfM7REg7QkUJmbs6SlAgO0Q6RUjt7u/o6uomQEgit+EpnsAxfZQmqc4sk7ErmLgqa30mc4gyYG4je5Qui6hl2/s6SE02QEQwRk40x/BX0fPKztA4UlvAxcezubtKzfI0WWQvhJ5PYGbV2NmnrrGMlZl5hIhndHkwxvAzcISbo6Zbwd1Cc4JfzOpLkKRZaG1Qn7WssrVavdhzf4NJiZtGWF5Wr8g2VF5Eeoo7OjlEbHgwX22MRMweAAAL3UlEQVR4nO2da1ubShSFG0CHhKCJJs3NSWqjReOlai/ao6bq//9Rh2uA2cNlYIAZnq6P54k9vBL2XmsPznz69E//9E9RbW4uL282TV9Fddr87q9UddX//bXpK6lGX10+R6v+5VnTV8NfZ5cBn6vWMZ69DFRCA/W86avip3PI5zE+NX1lfPS0ovK5jIOrpq+uvK7URD6XcXXf9BWW0sH9gOAzlksj/l9W/fuDpq+zqA6uByuS78efhx+AcXAtJePBdR/w/X042d8/efgL7+P1YdPXy6rDG5IPe3yOTn7+XWKS8UYqRhrfc8DnMT5Dxv+kMaybW8CHn396fN86nW8BIwaMt1IwUviWET5HAeMvEzIKb8pDe73jM37tx/gijPu/VJNkvBSaEfKZNL4o46P9kfiPCGzKz14IPkNfP/p8XzpAX059xrVOMr4IacrPX/pqAt8phS/GuF3Gf1TE4PEE7Ody+3qSeP8IxpNXizQBggUPYK+NpeXzJd2/HIwrYYLHPRmPjOUsJ5+j7wHjDDKKEDxo8eH91ft6nn7P5gsZ90/+vItnymnx4f0PG5/IjIeU+PDjD7X9ZctnpISrxoIHtNfGLj6csvI58k3AgyDBIy0eMd8/glGE4LH5L9Nel2SkmPIaGTPiUTntgkdz4YoaH3jxRRj3fxmAsY4Vj5zxiA8jCB7Vr3gQqw+2dPWRN5+jLwEjJXhUyHgG44OaEo94MYLgUVW4Oof2evuYHR9KMKaY8goYQTzKHx8qYVQ5B4+rcvGhuHbBAxjWwYBj8KDEo/eAj8Fel2GkmXI7XHEx5XY84hIfODBWsuJBX13x20MtfK6C4EFb8SjFSItHpeJDcVUSPKjxgac9K8RIWw0oxnhYVXzgwMgjXFUaH0oz0kw5W/Cg8XGND5Uw5g8elNUHlXt8KM/4qOogeORi3JB8hllNfCiuiCkHqzrZ39WvgC9r9aEJBYYVrnj0s7LVQdyfVR0fisu/j9CU9zMcwPUqxld9fCiuhOCxukknjPHVEx+K6ws1eKzyfkmN+uJDcYWmPERM/5pGH0OvwIjM58hltG/jOiRMtXBRQqw+nojO5+j76clrtKTmJ1RVff0ZoaYBsoSQYsVaRk5Cy/NEpqWIzYjQaOZZm6XFRGgoi63LaHRnI4EZ0XDS9fjWjycGG6GiXKx9xokmKCIa3nn3DxtOWWQmVJS54TPeDQVkRJ1j3b0+bHq5oAChokwN73fUPRaNEXUuTJ/v2fPN33ARQpvR/x7gi45AjAgt/O9XMFex+1pBQqU38RnNhSiMCH323vgzlj9+hr6rKKEy2vMZTXUsQllF6Gire3zvD9HcU5hQUbQ9v+eY66OmGe0GaPkN0J9L73JBCUJbY0v3LUCj7THS4LevZG4tR6hoIlgAuwEGDd4PPtG5SknCiAXQJ820DjQMCrv6CPl4ENqManMWwG7wfgPE/uCPnIvxIFSUY68N1W4BUGcR8D3T+XgR2hbArN8CIDT2vz3BwgItuPIiVJQJ9hlrsgCRBv83mY8n4c7mmGoNCdlu8JZJa/BVEjoWwPuu6lVbANjgkwe3PAmV0ALoVVoAhLRdggcNvmpCZbTw3WF1FiC9wVdOqESnAFW0jqwG3yHrXAWEijIPLMCUN2N2g0edUQ2Eu0mHbQF4to4wwQcN/pT8BDpavx3F/pcVEVZhAXI0eDdjmJ/rIYxYgDEPxhwN3ilBWLXqIwwtQPkheWKCj3zEeUTxpDfp1kcYTgH0bSkLkJLgw4+MsWnOxr16Ce326FsAQy/eHvM0eOcWY2vR6+3VTchhCpCnwaOjN7ye23x7DRAq5SxAdoN3PzXWZy5fQ4SRhQBGCxBpgAkNPiDsTmzAnqI0RRi1APkZwwRvJjT4GGFP0bQGCdkXAiINPmiA8FcQEk41R40Ssk0BEkb0sY8Mx0PBCPNPAaIJPrEBLnB3gQQjDKcAqQsBuRr8kWoaWDxCJcdCgDOi76Y3ePdXgLczU0hCZbSw0qYAORq8s0yPjWlvqotJqKQtBOwavJnY4N1lbDzZ64lMmLQQEK7B48ekBm87bGx+jB0HKjThbtIRsQDQwJwCvg5Susb2wnOgghOGFsB0LUBkDT5lRG977O6HxycBoaLc4fBdgHwjeofQdaAOiwSEtgUI2mPOEb1H2PNYZCAMpwDpBiZOGLBIQWhr/OH/3XLaiH7XOGUkVLSF5SAG7xhQEiAaHgcv0UlJaDPaJsf8mZRwnSFa91huQsUlTOBDY8P22O0gPKXxHa11bE1M2QntVqE/UBqgEzOwOu/NdckJNZvQHJJ43pTezhA96Qk1t9IAQnRhuhnCdjCSE2p0QjR6M9wMIT2hlkgYemypCbVUQt9jy0yopRP6HltiQi2dMLhqeQm1dMKZ9IRa2wm1thNqLSfUtJYTjtpOqGktJ9TaTkgCto4QALaNEAK2jJAC2C5CGmCrCKmAbSKkA7aIMAGwNYRJfK0hTAZsCWEKYDsI0wBbQZgK2AbCdMAWEGYAyk+YBSg9YSag7ITZgJIT5gCUmzAPoNSEuQAlJszHJzFhXkBpCXMDykqYH1BSQgZAOQlZAKUkZAKUkZANUEJCRkD5CFkBpSNkBpSMkJ1PMsJRIkZLCIvwSUVYDFAiwoKA8hAWBeRLqFdHWBiQI+H4w6juHhYH5EaoTHTnzxlj4kdYApAX4RxjuP8mN8IygFwIhwtVd/48nPhXEBvhbK8SQA6E+uRDp2xjgIZ3TDuWq4Y5qQKQAyE2KPtuo85xN/j7zYyDZsJjZgxjzp2Py7dUB9vCOFtH4d2FD1IBP91GTtLB6wstDljIinIl7AwX5DkGzu5gZnjVq9t0wk3stFhsjUc87yAHwg54AEez2Nld/axzu65jiIY56/EE5EBI/GywucYOMOMwJFv38UO7DH3KEZAzIepcdHH0alf9PMevbn7HzzU21Dk3wIKEEyqh82e1MT61/zvnEYFfX+Jnk+H1gg9fIUJtYeHuGBAipHjbD4ZFlOU866dV/Hw5+3FsitB2oCaGtxAN4wVGXQ0Yz0C+Jh/HSTOVZqrTtkZFw+N4gSlypuwBcQ6pgY/rJ7wwdMou/rvt3cIH8L9CZ61uLuMlB6sXtRKalqU7W02DB9DfHSXky3GuY4LOiOPG9e24TkKDcmiYszdWnG+gljpo/Yo40lKf1Zee3nS4od3uCKvwASx9ADlZcrqlSk5+wk7nM+TrcCgwUIe3hAPA83oI4QO4II5z7t8WPrA6LlhyCjsAFkKS72hNPID5DsfNJ7LkmNZezYR2hCD4VqUKDNT9gIsDKEgIIgSHAgN0QJy0bphT7oS9Xrh7S/QDwf5uId8NhwIDRZYcbLA7gFRCbb4O9/GMPICFIwS7YOhgdQBphHsWdvY7JflAgWGJEOw6HxAO4IMtdCQTKjMdwxaPtBnxAA6equRzVK7kJBLaGUIHGYJSYK6r5vtEKTmYoeTQCfW1im1KMAQFBaZYhGAXOedgKDl0QpNyaK0dIeorMFCg5OQNHdRdlLQ3cLKiu71uvMColRYYKHLOoedzOfR9oobwASQjBOuMgocKzTmohJD4WK8gQrDrEMw5sktODsIKIwS72EtOJqG7f3ecr/iMgofI0JFVcjIIKTMK3hGCXVdMLiedEA2Bg+EfIdh1wFJy0gidzT2JAlNNhGAXmHOYiaPVZELKELS5AgO1uSQex6TRahIhHIIOXjjOKHjonHQA9JJDJ4QFZtV8gYG6J0vO7Cgnoe1gyFUWEQoMFJxz3OXZY8jZY1/QAgO1yRytAkK7wJAOps4Iwa6sxVWCkDKjqDtCsIssOfHRapyQEpEqn1HwEPmugxlxAFFCNLwjH0AxCwwUKDn6FBJSVlnELTBQiaEjIKx1CFqNzuglxyMkXtRSKx+CViPwPofV8wl3xxzuvqCrBmYUPEQJHfadw9q0iSFoNYKjVfcLy+U9ClFElhyghmcUPESWnHiBEd/B5NETETrCB1DQCFFARMmRv8BAkaNVVbAZBQ8R73NwfY9CFEVGqyVf1BJX/itk8kQIdh3cr/r9VTOrLLXpsPb68j9kmcfHWbANEQAAAABJRU5ErkJggg==;fontStyle=1" parent="1" vertex="1">
                    <mxGeometry x="650" y="1009.9999999999998" width="80" height="80" as="geometry"/>
                </mxCell>
                <mxCell id="mpS9ybs72e7zDFPst3Do-3" style="edgeStyle=orthogonalEdgeStyle;rounded=0;orthogonalLoop=1;jettySize=auto;html=1;dashed=1;" parent="1" source="mpS9ybs72e7zDFPst3Do-1" edge="1">
                    <mxGeometry relative="1" as="geometry">
                        <mxPoint x="1380" y="1470" as="targetPoint"/>
                    </mxGeometry>
                </mxCell>
                <mxCell id="mpS9ybs72e7zDFPst3Do-1" value="AAP" style="shape=image;verticalLabelPosition=bottom;labelBackgroundColor=default;verticalAlign=top;aspect=fixed;imageAspect=0;image=data:image/png,iVBORw0KGgoAAAANSUhEUgAAAOEAAADhCAMAAAAJbSJIAAAAyVBMVEX///8gwu8No8Y5TVQOrNEMlrdj1fQfxfM7REg7QkUJmbs6SlAgO0Q6RUjt7u/o6uomQEgit+EpnsAxfZQmqc4sk7ErmLgqa30mc4gyYG4je5Qui6hl2/s6SE02QEQwRk40x/BX0fPKztA4UlvAxcezubtKzfI0WWQvhJ5PYGbV2NmnrrGMlZl5hIhndHkwxvAzcISbo6Zbwd1Cc4JfzOpLkKRZaG1Qn7WssrVavdhzf4NJiZtGWF5Wr8g2VF5Eeoo7OjlEbHgwX22MRMweAAAL3UlEQVR4nO2da1ubShSFG0CHhKCJJs3NSWqjReOlai/ao6bq//9Rh2uA2cNlYIAZnq6P54k9vBL2XmsPznz69E//9E9RbW4uL282TV9Fddr87q9UddX//bXpK6lGX10+R6v+5VnTV8NfZ5cBn6vWMZ69DFRCA/W86avip3PI5zE+NX1lfPS0ovK5jIOrpq+uvK7URD6XcXXf9BWW0sH9gOAzlksj/l9W/fuDpq+zqA6uByuS78efhx+AcXAtJePBdR/w/X042d8/efgL7+P1YdPXy6rDG5IPe3yOTn7+XWKS8UYqRhrfc8DnMT5Dxv+kMaybW8CHn396fN86nW8BIwaMt1IwUviWET5HAeMvEzIKb8pDe73jM37tx/gijPu/VJNkvBSaEfKZNL4o46P9kfiPCGzKz14IPkNfP/p8XzpAX059xrVOMr4IacrPX/pqAt8phS/GuF3Gf1TE4PEE7Ody+3qSeP8IxpNXizQBggUPYK+NpeXzJd2/HIwrYYLHPRmPjOUsJ5+j7wHjDDKKEDxo8eH91ft6nn7P5gsZ90/+vItnymnx4f0PG5/IjIeU+PDjD7X9ZctnpISrxoIHtNfGLj6csvI58k3AgyDBIy0eMd8/glGE4LH5L9Nel2SkmPIaGTPiUTntgkdz4YoaH3jxRRj3fxmAsY4Vj5zxiA8jCB7Vr3gQqw+2dPWRN5+jLwEjJXhUyHgG44OaEo94MYLgUVW4Oof2evuYHR9KMKaY8goYQTzKHx8qYVQ5B4+rcvGhuHbBAxjWwYBj8KDEo/eAj8Fel2GkmXI7XHEx5XY84hIfODBWsuJBX13x20MtfK6C4EFb8SjFSItHpeJDcVUSPKjxgac9K8RIWw0oxnhYVXzgwMgjXFUaH0oz0kw5W/Cg8XGND5Uw5g8elNUHlXt8KM/4qOogeORi3JB8hllNfCiuiCkHqzrZ39WvgC9r9aEJBYYVrnj0s7LVQdyfVR0fisu/j9CU9zMcwPUqxld9fCiuhOCxukknjPHVEx+K6ws1eKzyfkmN+uJDcYWmPERM/5pGH0OvwIjM58hltG/jOiRMtXBRQqw+nojO5+j76clrtKTmJ1RVff0ZoaYBsoSQYsVaRk5Cy/NEpqWIzYjQaOZZm6XFRGgoi63LaHRnI4EZ0XDS9fjWjycGG6GiXKx9xokmKCIa3nn3DxtOWWQmVJS54TPeDQVkRJ1j3b0+bHq5oAChokwN73fUPRaNEXUuTJ/v2fPN33ARQpvR/x7gi45AjAgt/O9XMFex+1pBQqU38RnNhSiMCH323vgzlj9+hr6rKKEy2vMZTXUsQllF6Gire3zvD9HcU5hQUbQ9v+eY66OmGe0GaPkN0J9L73JBCUJbY0v3LUCj7THS4LevZG4tR6hoIlgAuwEGDd4PPtG5SknCiAXQJ820DjQMCrv6CPl4ENqManMWwG7wfgPE/uCPnIvxIFSUY68N1W4BUGcR8D3T+XgR2hbArN8CIDT2vz3BwgItuPIiVJQJ9hlrsgCRBv83mY8n4c7mmGoNCdlu8JZJa/BVEjoWwPuu6lVbANjgkwe3PAmV0ALoVVoAhLRdggcNvmpCZbTw3WF1FiC9wVdOqESnAFW0jqwG3yHrXAWEijIPLMCUN2N2g0edUQ2Eu0mHbQF4to4wwQcN/pT8BDpavx3F/pcVEVZhAXI0eDdjmJ/rIYxYgDEPxhwN3ilBWLXqIwwtQPkheWKCj3zEeUTxpDfp1kcYTgH0bSkLkJLgw4+MsWnOxr16Ce326FsAQy/eHvM0eOcWY2vR6+3VTchhCpCnwaOjN7ye23x7DRAq5SxAdoN3PzXWZy5fQ4SRhQBGCxBpgAkNPiDsTmzAnqI0RRi1APkZwwRvJjT4GGFP0bQGCdkXAiINPmiA8FcQEk41R40Ssk0BEkb0sY8Mx0PBCPNPAaIJPrEBLnB3gQQjDKcAqQsBuRr8kWoaWDxCJcdCgDOi76Y3ePdXgLczU0hCZbSw0qYAORq8s0yPjWlvqotJqKQtBOwavJnY4N1lbDzZ64lMmLQQEK7B48ekBm87bGx+jB0HKjThbtIRsQDQwJwCvg5Susb2wnOgghOGFsB0LUBkDT5lRG977O6HxycBoaLc4fBdgHwjeofQdaAOiwSEtgUI2mPOEb1H2PNYZCAMpwDpBiZOGLBIQWhr/OH/3XLaiH7XOGUkVLSF5SAG7xhQEiAaHgcv0UlJaDPaJsf8mZRwnSFa91huQsUlTOBDY8P22O0gPKXxHa11bE1M2QntVqE/UBqgEzOwOu/NdckJNZvQHJJ43pTezhA96Qk1t9IAQnRhuhnCdjCSE2p0QjR6M9wMIT2hlkgYemypCbVUQt9jy0yopRP6HltiQi2dMLhqeQm1dMKZ9IRa2wm1thNqLSfUtJYTjtpOqGktJ9TaTkgCto4QALaNEAK2jJAC2C5CGmCrCKmAbSKkA7aIMAGwNYRJfK0hTAZsCWEKYDsI0wBbQZgK2AbCdMAWEGYAyk+YBSg9YSag7ITZgJIT5gCUmzAPoNSEuQAlJszHJzFhXkBpCXMDykqYH1BSQgZAOQlZAKUkZAKUkZANUEJCRkD5CFkBpSNkBpSMkJ1PMsJRIkZLCIvwSUVYDFAiwoKA8hAWBeRLqFdHWBiQI+H4w6juHhYH5EaoTHTnzxlj4kdYApAX4RxjuP8mN8IygFwIhwtVd/48nPhXEBvhbK8SQA6E+uRDp2xjgIZ3TDuWq4Y5qQKQAyE2KPtuo85xN/j7zYyDZsJjZgxjzp2Py7dUB9vCOFtH4d2FD1IBP91GTtLB6wstDljIinIl7AwX5DkGzu5gZnjVq9t0wk3stFhsjUc87yAHwg54AEez2Nld/axzu65jiIY56/EE5EBI/GywucYOMOMwJFv38UO7DH3KEZAzIepcdHH0alf9PMevbn7HzzU21Dk3wIKEEyqh82e1MT61/zvnEYFfX+Jnk+H1gg9fIUJtYeHuGBAipHjbD4ZFlOU866dV/Hw5+3FsitB2oCaGtxAN4wVGXQ0Yz0C+Jh/HSTOVZqrTtkZFw+N4gSlypuwBcQ6pgY/rJ7wwdMou/rvt3cIH8L9CZ61uLuMlB6sXtRKalqU7W02DB9DfHSXky3GuY4LOiOPG9e24TkKDcmiYszdWnG+gljpo/Yo40lKf1Zee3nS4od3uCKvwASx9ADlZcrqlSk5+wk7nM+TrcCgwUIe3hAPA83oI4QO4II5z7t8WPrA6LlhyCjsAFkKS72hNPID5DsfNJ7LkmNZezYR2hCD4VqUKDNT9gIsDKEgIIgSHAgN0QJy0bphT7oS9Xrh7S/QDwf5uId8NhwIDRZYcbLA7gFRCbb4O9/GMPICFIwS7YOhgdQBphHsWdvY7JflAgWGJEOw6HxAO4IMtdCQTKjMdwxaPtBnxAA6equRzVK7kJBLaGUIHGYJSYK6r5vtEKTmYoeTQCfW1im1KMAQFBaZYhGAXOedgKDl0QpNyaK0dIeorMFCg5OQNHdRdlLQ3cLKiu71uvMColRYYKHLOoedzOfR9oobwASQjBOuMgocKzTmohJD4WK8gQrDrEMw5sktODsIKIwS72EtOJqG7f3ecr/iMgofI0JFVcjIIKTMK3hGCXVdMLiedEA2Bg+EfIdh1wFJy0gidzT2JAlNNhGAXmHOYiaPVZELKELS5AgO1uSQex6TRahIhHIIOXjjOKHjonHQA9JJDJ4QFZtV8gYG6J0vO7Cgnoe1gyFUWEQoMFJxz3OXZY8jZY1/QAgO1yRytAkK7wJAOps4Iwa6sxVWCkDKjqDtCsIssOfHRapyQEpEqn1HwEPmugxlxAFFCNLwjH0AxCwwUKDn6FBJSVlnELTBQiaEjIKx1CFqNzuglxyMkXtRSKx+CViPwPofV8wl3xxzuvqCrBmYUPEQJHfadw9q0iSFoNYKjVfcLy+U9ClFElhyghmcUPESWnHiBEd/B5NETETrCB1DQCFFARMmRv8BAkaNVVbAZBQ8R73NwfY9CFEVGqyVf1BJX/itk8kQIdh3cr/r9VTOrLLXpsPb68j9kmcfHWbANEQAAAABJRU5ErkJggg==;fontStyle=1" parent="1" vertex="1">
                    <mxGeometry x="1270" y="1195" width="80" height="80" as="geometry"/>
                </mxCell>
                <mxCell id="mpS9ybs72e7zDFPst3Do-2" value="" style="shape=image;verticalLabelPosition=bottom;labelBackgroundColor=default;verticalAlign=top;aspect=fixed;imageAspect=0;image=https://cdn-icons-png.flaticon.com/512/888/888868.png;" parent="1" vertex="1">
                    <mxGeometry x="1340" y="1180" width="30" height="30" as="geometry"/>
                </mxCell>
                <mxCell id="mpS9ybs72e7zDFPst3Do-7" value="&lt;b&gt;&lt;br&gt;APPLICATION&lt;br&gt;&lt;br&gt;&lt;br&gt;&lt;br&gt;&lt;br&gt;&lt;br&gt;&lt;br&gt;&lt;br&gt;&lt;br&gt;&lt;br&gt;&lt;br&gt;&lt;br&gt;&lt;br&gt;&lt;br&gt;&lt;br&gt;&lt;br&gt;&lt;br&gt;&lt;br&gt;&lt;br&gt;&lt;br&gt;&lt;br&gt;&lt;br&gt;&lt;br&gt;&lt;br&gt;&lt;br&gt;&lt;br&gt;&lt;br&gt;&lt;br&gt;&lt;br&gt;&lt;br&gt;&lt;br&gt;&lt;br&gt;&lt;br&gt;&lt;br&gt;&lt;br&gt;&lt;br&gt;&lt;br&gt;&lt;br&gt;&lt;/b&gt;" style="rounded=0;whiteSpace=wrap;html=1;fillColor=default;" parent="1" vertex="1">
                    <mxGeometry x="445" y="1715" width="230" height="565" as="geometry"/>
                </mxCell>
                <mxCell id="mpS9ybs72e7zDFPst3Do-17" style="edgeStyle=orthogonalEdgeStyle;rounded=0;orthogonalLoop=1;jettySize=auto;html=1;dashed=1;" parent="1" source="mpS9ybs72e7zDFPst3Do-5" target="mpS9ybs72e7zDFPst3Do-4" edge="1">
                    <mxGeometry relative="1" as="geometry"/>
                </mxCell>
                <mxCell id="mpS9ybs72e7zDFPst3Do-5" value="APP" style="shape=image;verticalLabelPosition=bottom;labelBackgroundColor=default;verticalAlign=top;aspect=fixed;imageAspect=0;image=data:image/png,iVBORw0KGgoAAAANSUhEUgAAAOEAAADhCAMAAAAJbSJIAAAAyVBMVEX///8gwu8No8Y5TVQOrNEMlrdj1fQfxfM7REg7QkUJmbs6SlAgO0Q6RUjt7u/o6uomQEgit+EpnsAxfZQmqc4sk7ErmLgqa30mc4gyYG4je5Qui6hl2/s6SE02QEQwRk40x/BX0fPKztA4UlvAxcezubtKzfI0WWQvhJ5PYGbV2NmnrrGMlZl5hIhndHkwxvAzcISbo6Zbwd1Cc4JfzOpLkKRZaG1Qn7WssrVavdhzf4NJiZtGWF5Wr8g2VF5Eeoo7OjlEbHgwX22MRMweAAAL3UlEQVR4nO2da1ubShSFG0CHhKCJJs3NSWqjReOlai/ao6bq//9Rh2uA2cNlYIAZnq6P54k9vBL2XmsPznz69E//9E9RbW4uL282TV9Fddr87q9UddX//bXpK6lGX10+R6v+5VnTV8NfZ5cBn6vWMZ69DFRCA/W86avip3PI5zE+NX1lfPS0ovK5jIOrpq+uvK7URD6XcXXf9BWW0sH9gOAzlksj/l9W/fuDpq+zqA6uByuS78efhx+AcXAtJePBdR/w/X042d8/efgL7+P1YdPXy6rDG5IPe3yOTn7+XWKS8UYqRhrfc8DnMT5Dxv+kMaybW8CHn396fN86nW8BIwaMt1IwUviWET5HAeMvEzIKb8pDe73jM37tx/gijPu/VJNkvBSaEfKZNL4o46P9kfiPCGzKz14IPkNfP/p8XzpAX059xrVOMr4IacrPX/pqAt8phS/GuF3Gf1TE4PEE7Ody+3qSeP8IxpNXizQBggUPYK+NpeXzJd2/HIwrYYLHPRmPjOUsJ5+j7wHjDDKKEDxo8eH91ft6nn7P5gsZ90/+vItnymnx4f0PG5/IjIeU+PDjD7X9ZctnpISrxoIHtNfGLj6csvI58k3AgyDBIy0eMd8/glGE4LH5L9Nel2SkmPIaGTPiUTntgkdz4YoaH3jxRRj3fxmAsY4Vj5zxiA8jCB7Vr3gQqw+2dPWRN5+jLwEjJXhUyHgG44OaEo94MYLgUVW4Oof2evuYHR9KMKaY8goYQTzKHx8qYVQ5B4+rcvGhuHbBAxjWwYBj8KDEo/eAj8Fel2GkmXI7XHEx5XY84hIfODBWsuJBX13x20MtfK6C4EFb8SjFSItHpeJDcVUSPKjxgac9K8RIWw0oxnhYVXzgwMgjXFUaH0oz0kw5W/Cg8XGND5Uw5g8elNUHlXt8KM/4qOogeORi3JB8hllNfCiuiCkHqzrZ39WvgC9r9aEJBYYVrnj0s7LVQdyfVR0fisu/j9CU9zMcwPUqxld9fCiuhOCxukknjPHVEx+K6ws1eKzyfkmN+uJDcYWmPERM/5pGH0OvwIjM58hltG/jOiRMtXBRQqw+nojO5+j76clrtKTmJ1RVff0ZoaYBsoSQYsVaRk5Cy/NEpqWIzYjQaOZZm6XFRGgoi63LaHRnI4EZ0XDS9fjWjycGG6GiXKx9xokmKCIa3nn3DxtOWWQmVJS54TPeDQVkRJ1j3b0+bHq5oAChokwN73fUPRaNEXUuTJ/v2fPN33ARQpvR/x7gi45AjAgt/O9XMFex+1pBQqU38RnNhSiMCH323vgzlj9+hr6rKKEy2vMZTXUsQllF6Gire3zvD9HcU5hQUbQ9v+eY66OmGe0GaPkN0J9L73JBCUJbY0v3LUCj7THS4LevZG4tR6hoIlgAuwEGDd4PPtG5SknCiAXQJ820DjQMCrv6CPl4ENqManMWwG7wfgPE/uCPnIvxIFSUY68N1W4BUGcR8D3T+XgR2hbArN8CIDT2vz3BwgItuPIiVJQJ9hlrsgCRBv83mY8n4c7mmGoNCdlu8JZJa/BVEjoWwPuu6lVbANjgkwe3PAmV0ALoVVoAhLRdggcNvmpCZbTw3WF1FiC9wVdOqESnAFW0jqwG3yHrXAWEijIPLMCUN2N2g0edUQ2Eu0mHbQF4to4wwQcN/pT8BDpavx3F/pcVEVZhAXI0eDdjmJ/rIYxYgDEPxhwN3ilBWLXqIwwtQPkheWKCj3zEeUTxpDfp1kcYTgH0bSkLkJLgw4+MsWnOxr16Ce326FsAQy/eHvM0eOcWY2vR6+3VTchhCpCnwaOjN7ye23x7DRAq5SxAdoN3PzXWZy5fQ4SRhQBGCxBpgAkNPiDsTmzAnqI0RRi1APkZwwRvJjT4GGFP0bQGCdkXAiINPmiA8FcQEk41R40Ssk0BEkb0sY8Mx0PBCPNPAaIJPrEBLnB3gQQjDKcAqQsBuRr8kWoaWDxCJcdCgDOi76Y3ePdXgLczU0hCZbSw0qYAORq8s0yPjWlvqotJqKQtBOwavJnY4N1lbDzZ64lMmLQQEK7B48ekBm87bGx+jB0HKjThbtIRsQDQwJwCvg5Susb2wnOgghOGFsB0LUBkDT5lRG977O6HxycBoaLc4fBdgHwjeofQdaAOiwSEtgUI2mPOEb1H2PNYZCAMpwDpBiZOGLBIQWhr/OH/3XLaiH7XOGUkVLSF5SAG7xhQEiAaHgcv0UlJaDPaJsf8mZRwnSFa91huQsUlTOBDY8P22O0gPKXxHa11bE1M2QntVqE/UBqgEzOwOu/NdckJNZvQHJJ43pTezhA96Qk1t9IAQnRhuhnCdjCSE2p0QjR6M9wMIT2hlkgYemypCbVUQt9jy0yopRP6HltiQi2dMLhqeQm1dMKZ9IRa2wm1thNqLSfUtJYTjtpOqGktJ9TaTkgCto4QALaNEAK2jJAC2C5CGmCrCKmAbSKkA7aIMAGwNYRJfK0hTAZsCWEKYDsI0wBbQZgK2AbCdMAWEGYAyk+YBSg9YSag7ITZgJIT5gCUmzAPoNSEuQAlJszHJzFhXkBpCXMDykqYH1BSQgZAOQlZAKUkZAKUkZANUEJCRkD5CFkBpSNkBpSMkJ1PMsJRIkZLCIvwSUVYDFAiwoKA8hAWBeRLqFdHWBiQI+H4w6juHhYH5EaoTHTnzxlj4kdYApAX4RxjuP8mN8IygFwIhwtVd/48nPhXEBvhbK8SQA6E+uRDp2xjgIZ3TDuWq4Y5qQKQAyE2KPtuo85xN/j7zYyDZsJjZgxjzp2Py7dUB9vCOFtH4d2FD1IBP91GTtLB6wstDljIinIl7AwX5DkGzu5gZnjVq9t0wk3stFhsjUc87yAHwg54AEez2Nld/axzu65jiIY56/EE5EBI/GywucYOMOMwJFv38UO7DH3KEZAzIepcdHH0alf9PMevbn7HzzU21Dk3wIKEEyqh82e1MT61/zvnEYFfX+Jnk+H1gg9fIUJtYeHuGBAipHjbD4ZFlOU866dV/Hw5+3FsitB2oCaGtxAN4wVGXQ0Yz0C+Jh/HSTOVZqrTtkZFw+N4gSlypuwBcQ6pgY/rJ7wwdMou/rvt3cIH8L9CZ61uLuMlB6sXtRKalqU7W02DB9DfHSXky3GuY4LOiOPG9e24TkKDcmiYszdWnG+gljpo/Yo40lKf1Zee3nS4od3uCKvwASx9ADlZcrqlSk5+wk7nM+TrcCgwUIe3hAPA83oI4QO4II5z7t8WPrA6LlhyCjsAFkKS72hNPID5DsfNJ7LkmNZezYR2hCD4VqUKDNT9gIsDKEgIIgSHAgN0QJy0bphT7oS9Xrh7S/QDwf5uId8NhwIDRZYcbLA7gFRCbb4O9/GMPICFIwS7YOhgdQBphHsWdvY7JflAgWGJEOw6HxAO4IMtdCQTKjMdwxaPtBnxAA6equRzVK7kJBLaGUIHGYJSYK6r5vtEKTmYoeTQCfW1im1KMAQFBaZYhGAXOedgKDl0QpNyaK0dIeorMFCg5OQNHdRdlLQ3cLKiu71uvMColRYYKHLOoedzOfR9oobwASQjBOuMgocKzTmohJD4WK8gQrDrEMw5sktODsIKIwS72EtOJqG7f3ecr/iMgofI0JFVcjIIKTMK3hGCXVdMLiedEA2Bg+EfIdh1wFJy0gidzT2JAlNNhGAXmHOYiaPVZELKELS5AgO1uSQex6TRahIhHIIOXjjOKHjonHQA9JJDJ4QFZtV8gYG6J0vO7Cgnoe1gyFUWEQoMFJxz3OXZY8jZY1/QAgO1yRytAkK7wJAOps4Iwa6sxVWCkDKjqDtCsIssOfHRapyQEpEqn1HwEPmugxlxAFFCNLwjH0AxCwwUKDn6FBJSVlnELTBQiaEjIKx1CFqNzuglxyMkXtRSKx+CViPwPofV8wl3xxzuvqCrBmYUPEQJHfadw9q0iSFoNYKjVfcLy+U9ClFElhyghmcUPESWnHiBEd/B5NETETrCB1DQCFFARMmRv8BAkaNVVbAZBQ8R73NwfY9CFEVGqyVf1BJX/itk8kQIdh3cr/r9VTOrLLXpsPb68j9kmcfHWbANEQAAAABJRU5ErkJggg==;fontStyle=1" parent="1" vertex="1">
                    <mxGeometry x="520" y="1770" width="80" height="80" as="geometry"/>
                </mxCell>
                <mxCell id="mpS9ybs72e7zDFPst3Do-8" value="&lt;b&gt;EXTERNAL IDENTITY PROVIDER&lt;br&gt;(Auth0, Okta, Google etc..)&lt;br&gt;&lt;br&gt;&lt;br&gt;&lt;br&gt;&lt;br&gt;&lt;br&gt;&lt;br&gt;&lt;br&gt;&lt;br&gt;&lt;br&gt;&lt;/b&gt;" style="rounded=0;whiteSpace=wrap;html=1;fillColor=default;" parent="1" vertex="1">
                    <mxGeometry x="780" y="1715" width="600" height="170" as="geometry"/>
                </mxCell>
                <mxCell id="mpS9ybs72e7zDFPst3Do-9" value="Identity Provider" style="shape=image;verticalLabelPosition=bottom;labelBackgroundColor=default;verticalAlign=top;aspect=fixed;imageAspect=0;image=data:image/png,iVBORw0KGgoAAAANSUhEUgAAAOEAAADhCAMAAAAJbSJIAAAAyVBMVEX///8gwu8No8Y5TVQOrNEMlrdj1fQfxfM7REg7QkUJmbs6SlAgO0Q6RUjt7u/o6uomQEgit+EpnsAxfZQmqc4sk7ErmLgqa30mc4gyYG4je5Qui6hl2/s6SE02QEQwRk40x/BX0fPKztA4UlvAxcezubtKzfI0WWQvhJ5PYGbV2NmnrrGMlZl5hIhndHkwxvAzcISbo6Zbwd1Cc4JfzOpLkKRZaG1Qn7WssrVavdhzf4NJiZtGWF5Wr8g2VF5Eeoo7OjlEbHgwX22MRMweAAAL3UlEQVR4nO2da1ubShSFG0CHhKCJJs3NSWqjReOlai/ao6bq//9Rh2uA2cNlYIAZnq6P54k9vBL2XmsPznz69E//9E9RbW4uL282TV9Fddr87q9UddX//bXpK6lGX10+R6v+5VnTV8NfZ5cBn6vWMZ69DFRCA/W86avip3PI5zE+NX1lfPS0ovK5jIOrpq+uvK7URD6XcXXf9BWW0sH9gOAzlksj/l9W/fuDpq+zqA6uByuS78efhx+AcXAtJePBdR/w/X042d8/efgL7+P1YdPXy6rDG5IPe3yOTn7+XWKS8UYqRhrfc8DnMT5Dxv+kMaybW8CHn396fN86nW8BIwaMt1IwUviWET5HAeMvEzIKb8pDe73jM37tx/gijPu/VJNkvBSaEfKZNL4o46P9kfiPCGzKz14IPkNfP/p8XzpAX059xrVOMr4IacrPX/pqAt8phS/GuF3Gf1TE4PEE7Ody+3qSeP8IxpNXizQBggUPYK+NpeXzJd2/HIwrYYLHPRmPjOUsJ5+j7wHjDDKKEDxo8eH91ft6nn7P5gsZ90/+vItnymnx4f0PG5/IjIeU+PDjD7X9ZctnpISrxoIHtNfGLj6csvI58k3AgyDBIy0eMd8/glGE4LH5L9Nel2SkmPIaGTPiUTntgkdz4YoaH3jxRRj3fxmAsY4Vj5zxiA8jCB7Vr3gQqw+2dPWRN5+jLwEjJXhUyHgG44OaEo94MYLgUVW4Oof2evuYHR9KMKaY8goYQTzKHx8qYVQ5B4+rcvGhuHbBAxjWwYBj8KDEo/eAj8Fel2GkmXI7XHEx5XY84hIfODBWsuJBX13x20MtfK6C4EFb8SjFSItHpeJDcVUSPKjxgac9K8RIWw0oxnhYVXzgwMgjXFUaH0oz0kw5W/Cg8XGND5Uw5g8elNUHlXt8KM/4qOogeORi3JB8hllNfCiuiCkHqzrZ39WvgC9r9aEJBYYVrnj0s7LVQdyfVR0fisu/j9CU9zMcwPUqxld9fCiuhOCxukknjPHVEx+K6ws1eKzyfkmN+uJDcYWmPERM/5pGH0OvwIjM58hltG/jOiRMtXBRQqw+nojO5+j76clrtKTmJ1RVff0ZoaYBsoSQYsVaRk5Cy/NEpqWIzYjQaOZZm6XFRGgoi63LaHRnI4EZ0XDS9fjWjycGG6GiXKx9xokmKCIa3nn3DxtOWWQmVJS54TPeDQVkRJ1j3b0+bHq5oAChokwN73fUPRaNEXUuTJ/v2fPN33ARQpvR/x7gi45AjAgt/O9XMFex+1pBQqU38RnNhSiMCH323vgzlj9+hr6rKKEy2vMZTXUsQllF6Gire3zvD9HcU5hQUbQ9v+eY66OmGe0GaPkN0J9L73JBCUJbY0v3LUCj7THS4LevZG4tR6hoIlgAuwEGDd4PPtG5SknCiAXQJ820DjQMCrv6CPl4ENqManMWwG7wfgPE/uCPnIvxIFSUY68N1W4BUGcR8D3T+XgR2hbArN8CIDT2vz3BwgItuPIiVJQJ9hlrsgCRBv83mY8n4c7mmGoNCdlu8JZJa/BVEjoWwPuu6lVbANjgkwe3PAmV0ALoVVoAhLRdggcNvmpCZbTw3WF1FiC9wVdOqESnAFW0jqwG3yHrXAWEijIPLMCUN2N2g0edUQ2Eu0mHbQF4to4wwQcN/pT8BDpavx3F/pcVEVZhAXI0eDdjmJ/rIYxYgDEPxhwN3ilBWLXqIwwtQPkheWKCj3zEeUTxpDfp1kcYTgH0bSkLkJLgw4+MsWnOxr16Ce326FsAQy/eHvM0eOcWY2vR6+3VTchhCpCnwaOjN7ye23x7DRAq5SxAdoN3PzXWZy5fQ4SRhQBGCxBpgAkNPiDsTmzAnqI0RRi1APkZwwRvJjT4GGFP0bQGCdkXAiINPmiA8FcQEk41R40Ssk0BEkb0sY8Mx0PBCPNPAaIJPrEBLnB3gQQjDKcAqQsBuRr8kWoaWDxCJcdCgDOi76Y3ePdXgLczU0hCZbSw0qYAORq8s0yPjWlvqotJqKQtBOwavJnY4N1lbDzZ64lMmLQQEK7B48ekBm87bGx+jB0HKjThbtIRsQDQwJwCvg5Susb2wnOgghOGFsB0LUBkDT5lRG977O6HxycBoaLc4fBdgHwjeofQdaAOiwSEtgUI2mPOEb1H2PNYZCAMpwDpBiZOGLBIQWhr/OH/3XLaiH7XOGUkVLSF5SAG7xhQEiAaHgcv0UlJaDPaJsf8mZRwnSFa91huQsUlTOBDY8P22O0gPKXxHa11bE1M2QntVqE/UBqgEzOwOu/NdckJNZvQHJJ43pTezhA96Qk1t9IAQnRhuhnCdjCSE2p0QjR6M9wMIT2hlkgYemypCbVUQt9jy0yopRP6HltiQi2dMLhqeQm1dMKZ9IRa2wm1thNqLSfUtJYTjtpOqGktJ9TaTkgCto4QALaNEAK2jJAC2C5CGmCrCKmAbSKkA7aIMAGwNYRJfK0hTAZsCWEKYDsI0wBbQZgK2AbCdMAWEGYAyk+YBSg9YSag7ITZgJIT5gCUmzAPoNSEuQAlJszHJzFhXkBpCXMDykqYH1BSQgZAOQlZAKUkZAKUkZANUEJCRkD5CFkBpSNkBpSMkJ1PMsJRIkZLCIvwSUVYDFAiwoKA8hAWBeRLqFdHWBiQI+H4w6juHhYH5EaoTHTnzxlj4kdYApAX4RxjuP8mN8IygFwIhwtVd/48nPhXEBvhbK8SQA6E+uRDp2xjgIZ3TDuWq4Y5qQKQAyE2KPtuo85xN/j7zYyDZsJjZgxjzp2Py7dUB9vCOFtH4d2FD1IBP91GTtLB6wstDljIinIl7AwX5DkGzu5gZnjVq9t0wk3stFhsjUc87yAHwg54AEez2Nld/axzu65jiIY56/EE5EBI/GywucYOMOMwJFv38UO7DH3KEZAzIepcdHH0alf9PMevbn7HzzU21Dk3wIKEEyqh82e1MT61/zvnEYFfX+Jnk+H1gg9fIUJtYeHuGBAipHjbD4ZFlOU866dV/Hw5+3FsitB2oCaGtxAN4wVGXQ0Yz0C+Jh/HSTOVZqrTtkZFw+N4gSlypuwBcQ6pgY/rJ7wwdMou/rvt3cIH8L9CZ61uLuMlB6sXtRKalqU7W02DB9DfHSXky3GuY4LOiOPG9e24TkKDcmiYszdWnG+gljpo/Yo40lKf1Zee3nS4od3uCKvwASx9ADlZcrqlSk5+wk7nM+TrcCgwUIe3hAPA83oI4QO4II5z7t8WPrA6LlhyCjsAFkKS72hNPID5DsfNJ7LkmNZezYR2hCD4VqUKDNT9gIsDKEgIIgSHAgN0QJy0bphT7oS9Xrh7S/QDwf5uId8NhwIDRZYcbLA7gFRCbb4O9/GMPICFIwS7YOhgdQBphHsWdvY7JflAgWGJEOw6HxAO4IMtdCQTKjMdwxaPtBnxAA6equRzVK7kJBLaGUIHGYJSYK6r5vtEKTmYoeTQCfW1im1KMAQFBaZYhGAXOedgKDl0QpNyaK0dIeorMFCg5OQNHdRdlLQ3cLKiu71uvMColRYYKHLOoedzOfR9oobwASQjBOuMgocKzTmohJD4WK8gQrDrEMw5sktODsIKIwS72EtOJqG7f3ecr/iMgofI0JFVcjIIKTMK3hGCXVdMLiedEA2Bg+EfIdh1wFJy0gidzT2JAlNNhGAXmHOYiaPVZELKELS5AgO1uSQex6TRahIhHIIOXjjOKHjonHQA9JJDJ4QFZtV8gYG6J0vO7Cgnoe1gyFUWEQoMFJxz3OXZY8jZY1/QAgO1yRytAkK7wJAOps4Iwa6sxVWCkDKjqDtCsIssOfHRapyQEpEqn1HwEPmugxlxAFFCNLwjH0AxCwwUKDn6FBJSVlnELTBQiaEjIKx1CFqNzuglxyMkXtRSKx+CViPwPofV8wl3xxzuvqCrBmYUPEQJHfadw9q0iSFoNYKjVfcLy+U9ClFElhyghmcUPESWnHiBEd/B5NETETrCB1DQCFFARMmRv8BAkaNVVbAZBQ8R73NwfY9CFEVGqyVf1BJX/itk8kQIdh3cr/r9VTOrLLXpsPb68j9kmcfHWbANEQAAAABJRU5ErkJggg==;fontStyle=1" parent="1" vertex="1">
                    <mxGeometry x="1045" y="1770" width="80" height="80" as="geometry"/>
                </mxCell>
                <mxCell id="mpS9ybs72e7zDFPst3Do-11" value="&lt;b&gt;AUTENTICAMI&lt;br&gt;&lt;br&gt;&lt;br&gt;&lt;br&gt;&lt;br&gt;&lt;br&gt;&lt;br&gt;&lt;br&gt;&lt;br&gt;&lt;br&gt;&lt;br&gt;&lt;br&gt;&lt;br&gt;&lt;br&gt;&lt;br&gt;&lt;br&gt;&lt;br&gt;&lt;br&gt;&lt;br&gt;&lt;br&gt;&lt;br&gt;&lt;br&gt;&lt;br&gt;&lt;br&gt;&lt;br&gt;&lt;/b&gt;" style="rounded=0;whiteSpace=wrap;html=1;fillColor=default;" parent="1" vertex="1">
                    <mxGeometry x="780" y="1905" width="600" height="375" as="geometry"/>
                </mxCell>
                <mxCell id="Bu_8jdP5kiLNi2eLEbYt-2" style="edgeStyle=orthogonalEdgeStyle;rounded=0;orthogonalLoop=1;jettySize=auto;html=1;dashed=1;" parent="1" source="mpS9ybs72e7zDFPst3Do-5" target="mpS9ybs72e7zDFPst3Do-9" edge="1">
                    <mxGeometry relative="1" as="geometry">
                        <Array as="points"/>
                    </mxGeometry>
                </mxCell>
                <mxCell id="Bu_8jdP5kiLNi2eLEbYt-3" value="AUTH" style="edgeLabel;html=1;align=center;verticalAlign=middle;resizable=0;points=[];" parent="Bu_8jdP5kiLNi2eLEbYt-2" connectable="0" vertex="1">
                    <mxGeometry x="-0.5059" y="2" relative="1" as="geometry">
                        <mxPoint x="30" y="-18" as="offset"/>
                    </mxGeometry>
                </mxCell>
                <mxCell id="Bu_8jdP5kiLNi2eLEbYt-4" style="rounded=0;orthogonalLoop=1;jettySize=auto;html=1;entryX=0;entryY=0.75;entryDx=0;entryDy=0;dashed=1;" parent="1" source="mpS9ybs72e7zDFPst3Do-12" target="mpS9ybs72e7zDFPst3Do-9" edge="1">
                    <mxGeometry relative="1" as="geometry"/>
                </mxCell>
                <mxCell id="Bu_8jdP5kiLNi2eLEbYt-5" value="VERIFY" style="edgeLabel;html=1;align=center;verticalAlign=middle;resizable=0;points=[];" parent="Bu_8jdP5kiLNi2eLEbYt-4" connectable="0" vertex="1">
                    <mxGeometry x="-0.0981" y="1" relative="1" as="geometry">
                        <mxPoint x="-6" y="6" as="offset"/>
                    </mxGeometry>
                </mxCell>
                <mxCell id="KT-hONqqI3Kisu6cMs6b-9" style="edgeStyle=orthogonalEdgeStyle;rounded=0;orthogonalLoop=1;jettySize=auto;html=1;dashed=1;" parent="1" source="mpS9ybs72e7zDFPst3Do-12" target="KT-hONqqI3Kisu6cMs6b-8" edge="1">
                    <mxGeometry relative="1" as="geometry"/>
                </mxCell>
                <mxCell id="mpS9ybs72e7zDFPst3Do-12" value="Identity Provider&#10;IDP" style="shape=image;verticalLabelPosition=bottom;labelBackgroundColor=default;verticalAlign=top;aspect=fixed;imageAspect=0;image=data:image/png,iVBORw0KGgoAAAANSUhEUgAAAOEAAADhCAMAAAAJbSJIAAAAyVBMVEX///8gwu8No8Y5TVQOrNEMlrdj1fQfxfM7REg7QkUJmbs6SlAgO0Q6RUjt7u/o6uomQEgit+EpnsAxfZQmqc4sk7ErmLgqa30mc4gyYG4je5Qui6hl2/s6SE02QEQwRk40x/BX0fPKztA4UlvAxcezubtKzfI0WWQvhJ5PYGbV2NmnrrGMlZl5hIhndHkwxvAzcISbo6Zbwd1Cc4JfzOpLkKRZaG1Qn7WssrVavdhzf4NJiZtGWF5Wr8g2VF5Eeoo7OjlEbHgwX22MRMweAAAL3UlEQVR4nO2da1ubShSFG0CHhKCJJs3NSWqjReOlai/ao6bq//9Rh2uA2cNlYIAZnq6P54k9vBL2XmsPznz69E//9E9RbW4uL282TV9Fddr87q9UddX//bXpK6lGX10+R6v+5VnTV8NfZ5cBn6vWMZ69DFRCA/W86avip3PI5zE+NX1lfPS0ovK5jIOrpq+uvK7URD6XcXXf9BWW0sH9gOAzlksj/l9W/fuDpq+zqA6uByuS78efhx+AcXAtJePBdR/w/X042d8/efgL7+P1YdPXy6rDG5IPe3yOTn7+XWKS8UYqRhrfc8DnMT5Dxv+kMaybW8CHn396fN86nW8BIwaMt1IwUviWET5HAeMvEzIKb8pDe73jM37tx/gijPu/VJNkvBSaEfKZNL4o46P9kfiPCGzKz14IPkNfP/p8XzpAX059xrVOMr4IacrPX/pqAt8phS/GuF3Gf1TE4PEE7Ody+3qSeP8IxpNXizQBggUPYK+NpeXzJd2/HIwrYYLHPRmPjOUsJ5+j7wHjDDKKEDxo8eH91ft6nn7P5gsZ90/+vItnymnx4f0PG5/IjIeU+PDjD7X9ZctnpISrxoIHtNfGLj6csvI58k3AgyDBIy0eMd8/glGE4LH5L9Nel2SkmPIaGTPiUTntgkdz4YoaH3jxRRj3fxmAsY4Vj5zxiA8jCB7Vr3gQqw+2dPWRN5+jLwEjJXhUyHgG44OaEo94MYLgUVW4Oof2evuYHR9KMKaY8goYQTzKHx8qYVQ5B4+rcvGhuHbBAxjWwYBj8KDEo/eAj8Fel2GkmXI7XHEx5XY84hIfODBWsuJBX13x20MtfK6C4EFb8SjFSItHpeJDcVUSPKjxgac9K8RIWw0oxnhYVXzgwMgjXFUaH0oz0kw5W/Cg8XGND5Uw5g8elNUHlXt8KM/4qOogeORi3JB8hllNfCiuiCkHqzrZ39WvgC9r9aEJBYYVrnj0s7LVQdyfVR0fisu/j9CU9zMcwPUqxld9fCiuhOCxukknjPHVEx+K6ws1eKzyfkmN+uJDcYWmPERM/5pGH0OvwIjM58hltG/jOiRMtXBRQqw+nojO5+j76clrtKTmJ1RVff0ZoaYBsoSQYsVaRk5Cy/NEpqWIzYjQaOZZm6XFRGgoi63LaHRnI4EZ0XDS9fjWjycGG6GiXKx9xokmKCIa3nn3DxtOWWQmVJS54TPeDQVkRJ1j3b0+bHq5oAChokwN73fUPRaNEXUuTJ/v2fPN33ARQpvR/x7gi45AjAgt/O9XMFex+1pBQqU38RnNhSiMCH323vgzlj9+hr6rKKEy2vMZTXUsQllF6Gire3zvD9HcU5hQUbQ9v+eY66OmGe0GaPkN0J9L73JBCUJbY0v3LUCj7THS4LevZG4tR6hoIlgAuwEGDd4PPtG5SknCiAXQJ820DjQMCrv6CPl4ENqManMWwG7wfgPE/uCPnIvxIFSUY68N1W4BUGcR8D3T+XgR2hbArN8CIDT2vz3BwgItuPIiVJQJ9hlrsgCRBv83mY8n4c7mmGoNCdlu8JZJa/BVEjoWwPuu6lVbANjgkwe3PAmV0ALoVVoAhLRdggcNvmpCZbTw3WF1FiC9wVdOqESnAFW0jqwG3yHrXAWEijIPLMCUN2N2g0edUQ2Eu0mHbQF4to4wwQcN/pT8BDpavx3F/pcVEVZhAXI0eDdjmJ/rIYxYgDEPxhwN3ilBWLXqIwwtQPkheWKCj3zEeUTxpDfp1kcYTgH0bSkLkJLgw4+MsWnOxr16Ce326FsAQy/eHvM0eOcWY2vR6+3VTchhCpCnwaOjN7ye23x7DRAq5SxAdoN3PzXWZy5fQ4SRhQBGCxBpgAkNPiDsTmzAnqI0RRi1APkZwwRvJjT4GGFP0bQGCdkXAiINPmiA8FcQEk41R40Ssk0BEkb0sY8Mx0PBCPNPAaIJPrEBLnB3gQQjDKcAqQsBuRr8kWoaWDxCJcdCgDOi76Y3ePdXgLczU0hCZbSw0qYAORq8s0yPjWlvqotJqKQtBOwavJnY4N1lbDzZ64lMmLQQEK7B48ekBm87bGx+jB0HKjThbtIRsQDQwJwCvg5Susb2wnOgghOGFsB0LUBkDT5lRG977O6HxycBoaLc4fBdgHwjeofQdaAOiwSEtgUI2mPOEb1H2PNYZCAMpwDpBiZOGLBIQWhr/OH/3XLaiH7XOGUkVLSF5SAG7xhQEiAaHgcv0UlJaDPaJsf8mZRwnSFa91huQsUlTOBDY8P22O0gPKXxHa11bE1M2QntVqE/UBqgEzOwOu/NdckJNZvQHJJ43pTezhA96Qk1t9IAQnRhuhnCdjCSE2p0QjR6M9wMIT2hlkgYemypCbVUQt9jy0yopRP6HltiQi2dMLhqeQm1dMKZ9IRa2wm1thNqLSfUtJYTjtpOqGktJ9TaTkgCto4QALaNEAK2jJAC2C5CGmCrCKmAbSKkA7aIMAGwNYRJfK0hTAZsCWEKYDsI0wBbQZgK2AbCdMAWEGYAyk+YBSg9YSag7ITZgJIT5gCUmzAPoNSEuQAlJszHJzFhXkBpCXMDykqYH1BSQgZAOQlZAKUkZAKUkZANUEJCRkD5CFkBpSNkBpSMkJ1PMsJRIkZLCIvwSUVYDFAiwoKA8hAWBeRLqFdHWBiQI+H4w6juHhYH5EaoTHTnzxlj4kdYApAX4RxjuP8mN8IygFwIhwtVd/48nPhXEBvhbK8SQA6E+uRDp2xjgIZ3TDuWq4Y5qQKQAyE2KPtuo85xN/j7zYyDZsJjZgxjzp2Py7dUB9vCOFtH4d2FD1IBP91GTtLB6wstDljIinIl7AwX5DkGzu5gZnjVq9t0wk3stFhsjUc87yAHwg54AEez2Nld/axzu65jiIY56/EE5EBI/GywucYOMOMwJFv38UO7DH3KEZAzIepcdHH0alf9PMevbn7HzzU21Dk3wIKEEyqh82e1MT61/zvnEYFfX+Jnk+H1gg9fIUJtYeHuGBAipHjbD4ZFlOU866dV/Hw5+3FsitB2oCaGtxAN4wVGXQ0Yz0C+Jh/HSTOVZqrTtkZFw+N4gSlypuwBcQ6pgY/rJ7wwdMou/rvt3cIH8L9CZ61uLuMlB6sXtRKalqU7W02DB9DfHSXky3GuY4LOiOPG9e24TkKDcmiYszdWnG+gljpo/Yo40lKf1Zee3nS4od3uCKvwASx9ADlZcrqlSk5+wk7nM+TrcCgwUIe3hAPA83oI4QO4II5z7t8WPrA6LlhyCjsAFkKS72hNPID5DsfNJ7LkmNZezYR2hCD4VqUKDNT9gIsDKEgIIgSHAgN0QJy0bphT7oS9Xrh7S/QDwf5uId8NhwIDRZYcbLA7gFRCbb4O9/GMPICFIwS7YOhgdQBphHsWdvY7JflAgWGJEOw6HxAO4IMtdCQTKjMdwxaPtBnxAA6equRzVK7kJBLaGUIHGYJSYK6r5vtEKTmYoeTQCfW1im1KMAQFBaZYhGAXOedgKDl0QpNyaK0dIeorMFCg5OQNHdRdlLQ3cLKiu71uvMColRYYKHLOoedzOfR9oobwASQjBOuMgocKzTmohJD4WK8gQrDrEMw5sktODsIKIwS72EtOJqG7f3ecr/iMgofI0JFVcjIIKTMK3hGCXVdMLiedEA2Bg+EfIdh1wFJy0gidzT2JAlNNhGAXmHOYiaPVZELKELS5AgO1uSQex6TRahIhHIIOXjjOKHjonHQA9JJDJ4QFZtV8gYG6J0vO7Cgnoe1gyFUWEQoMFJxz3OXZY8jZY1/QAgO1yRytAkK7wJAOps4Iwa6sxVWCkDKjqDtCsIssOfHRapyQEpEqn1HwEPmugxlxAFFCNLwjH0AxCwwUKDn6FBJSVlnELTBQiaEjIKx1CFqNzuglxyMkXtRSKx+CViPwPofV8wl3xxzuvqCrBmYUPEQJHfadw9q0iSFoNYKjVfcLy+U9ClFElhyghmcUPESWnHiBEd/B5NETETrCB1DQCFFARMmRv8BAkaNVVbAZBQ8R73NwfY9CFEVGqyVf1BJX/itk8kQIdh3cr/r9VTOrLLXpsPb68j9kmcfHWbANEQAAAABJRU5ErkJggg==;fontStyle=1" parent="1" vertex="1">
                    <mxGeometry x="840" y="1933" width="80" height="80" as="geometry"/>
                </mxCell>
                <mxCell id="mpS9ybs72e7zDFPst3Do-13" style="rounded=0;orthogonalLoop=1;jettySize=auto;html=1;entryX=0;entryY=0.5;entryDx=0;entryDy=0;dashed=1;" parent="1" source="mpS9ybs72e7zDFPst3Do-5" target="mpS9ybs72e7zDFPst3Do-12" edge="1">
                    <mxGeometry relative="1" as="geometry"/>
                </mxCell>
                <mxCell id="mpS9ybs72e7zDFPst3Do-14" value="EXCHANGE&lt;br&gt;TOKEN" style="edgeLabel;html=1;align=center;verticalAlign=middle;resizable=0;points=[];" parent="mpS9ybs72e7zDFPst3Do-13" connectable="0" vertex="1">
                    <mxGeometry x="0.0461" relative="1" as="geometry">
                        <mxPoint x="4" y="-37" as="offset"/>
                    </mxGeometry>
                </mxCell>
                <mxCell id="mpS9ybs72e7zDFPst3Do-19" style="edgeStyle=orthogonalEdgeStyle;rounded=0;orthogonalLoop=1;jettySize=auto;html=1;entryX=0;entryY=0.5;entryDx=0;entryDy=0;dashed=1;" parent="1" source="mpS9ybs72e7zDFPst3Do-4" target="mpS9ybs72e7zDFPst3Do-18" edge="1">
                    <mxGeometry relative="1" as="geometry"/>
                </mxCell>
                <mxCell id="mpS9ybs72e7zDFPst3Do-20" value="CHECK&lt;br&gt;PERMISSIONS" style="edgeLabel;html=1;align=center;verticalAlign=middle;resizable=0;points=[];" parent="mpS9ybs72e7zDFPst3Do-19" connectable="0" vertex="1">
                    <mxGeometry x="0.0653" y="-3" relative="1" as="geometry">
                        <mxPoint x="-5" y="-28" as="offset"/>
                    </mxGeometry>
                </mxCell>
                <mxCell id="mpS9ybs72e7zDFPst3Do-4" value="Policy Enforcement Point&#10;PEP" style="shape=image;verticalLabelPosition=bottom;labelBackgroundColor=default;verticalAlign=top;aspect=fixed;imageAspect=0;image=data:image/png,iVBORw0KGgoAAAANSUhEUgAAAOEAAADhCAMAAAAJbSJIAAAAyVBMVEX///8gwu8No8Y5TVQOrNEMlrdj1fQfxfM7REg7QkUJmbs6SlAgO0Q6RUjt7u/o6uomQEgit+EpnsAxfZQmqc4sk7ErmLgqa30mc4gyYG4je5Qui6hl2/s6SE02QEQwRk40x/BX0fPKztA4UlvAxcezubtKzfI0WWQvhJ5PYGbV2NmnrrGMlZl5hIhndHkwxvAzcISbo6Zbwd1Cc4JfzOpLkKRZaG1Qn7WssrVavdhzf4NJiZtGWF5Wr8g2VF5Eeoo7OjlEbHgwX22MRMweAAAL3UlEQVR4nO2da1ubShSFG0CHhKCJJs3NSWqjReOlai/ao6bq//9Rh2uA2cNlYIAZnq6P54k9vBL2XmsPznz69E//9E9RbW4uL282TV9Fddr87q9UddX//bXpK6lGX10+R6v+5VnTV8NfZ5cBn6vWMZ69DFRCA/W86avip3PI5zE+NX1lfPS0ovK5jIOrpq+uvK7URD6XcXXf9BWW0sH9gOAzlksj/l9W/fuDpq+zqA6uByuS78efhx+AcXAtJePBdR/w/X042d8/efgL7+P1YdPXy6rDG5IPe3yOTn7+XWKS8UYqRhrfc8DnMT5Dxv+kMaybW8CHn396fN86nW8BIwaMt1IwUviWET5HAeMvEzIKb8pDe73jM37tx/gijPu/VJNkvBSaEfKZNL4o46P9kfiPCGzKz14IPkNfP/p8XzpAX059xrVOMr4IacrPX/pqAt8phS/GuF3Gf1TE4PEE7Ody+3qSeP8IxpNXizQBggUPYK+NpeXzJd2/HIwrYYLHPRmPjOUsJ5+j7wHjDDKKEDxo8eH91ft6nn7P5gsZ90/+vItnymnx4f0PG5/IjIeU+PDjD7X9ZctnpISrxoIHtNfGLj6csvI58k3AgyDBIy0eMd8/glGE4LH5L9Nel2SkmPIaGTPiUTntgkdz4YoaH3jxRRj3fxmAsY4Vj5zxiA8jCB7Vr3gQqw+2dPWRN5+jLwEjJXhUyHgG44OaEo94MYLgUVW4Oof2evuYHR9KMKaY8goYQTzKHx8qYVQ5B4+rcvGhuHbBAxjWwYBj8KDEo/eAj8Fel2GkmXI7XHEx5XY84hIfODBWsuJBX13x20MtfK6C4EFb8SjFSItHpeJDcVUSPKjxgac9K8RIWw0oxnhYVXzgwMgjXFUaH0oz0kw5W/Cg8XGND5Uw5g8elNUHlXt8KM/4qOogeORi3JB8hllNfCiuiCkHqzrZ39WvgC9r9aEJBYYVrnj0s7LVQdyfVR0fisu/j9CU9zMcwPUqxld9fCiuhOCxukknjPHVEx+K6ws1eKzyfkmN+uJDcYWmPERM/5pGH0OvwIjM58hltG/jOiRMtXBRQqw+nojO5+j76clrtKTmJ1RVff0ZoaYBsoSQYsVaRk5Cy/NEpqWIzYjQaOZZm6XFRGgoi63LaHRnI4EZ0XDS9fjWjycGG6GiXKx9xokmKCIa3nn3DxtOWWQmVJS54TPeDQVkRJ1j3b0+bHq5oAChokwN73fUPRaNEXUuTJ/v2fPN33ARQpvR/x7gi45AjAgt/O9XMFex+1pBQqU38RnNhSiMCH323vgzlj9+hr6rKKEy2vMZTXUsQllF6Gire3zvD9HcU5hQUbQ9v+eY66OmGe0GaPkN0J9L73JBCUJbY0v3LUCj7THS4LevZG4tR6hoIlgAuwEGDd4PPtG5SknCiAXQJ820DjQMCrv6CPl4ENqManMWwG7wfgPE/uCPnIvxIFSUY68N1W4BUGcR8D3T+XgR2hbArN8CIDT2vz3BwgItuPIiVJQJ9hlrsgCRBv83mY8n4c7mmGoNCdlu8JZJa/BVEjoWwPuu6lVbANjgkwe3PAmV0ALoVVoAhLRdggcNvmpCZbTw3WF1FiC9wVdOqESnAFW0jqwG3yHrXAWEijIPLMCUN2N2g0edUQ2Eu0mHbQF4to4wwQcN/pT8BDpavx3F/pcVEVZhAXI0eDdjmJ/rIYxYgDEPxhwN3ilBWLXqIwwtQPkheWKCj3zEeUTxpDfp1kcYTgH0bSkLkJLgw4+MsWnOxr16Ce326FsAQy/eHvM0eOcWY2vR6+3VTchhCpCnwaOjN7ye23x7DRAq5SxAdoN3PzXWZy5fQ4SRhQBGCxBpgAkNPiDsTmzAnqI0RRi1APkZwwRvJjT4GGFP0bQGCdkXAiINPmiA8FcQEk41R40Ssk0BEkb0sY8Mx0PBCPNPAaIJPrEBLnB3gQQjDKcAqQsBuRr8kWoaWDxCJcdCgDOi76Y3ePdXgLczU0hCZbSw0qYAORq8s0yPjWlvqotJqKQtBOwavJnY4N1lbDzZ64lMmLQQEK7B48ekBm87bGx+jB0HKjThbtIRsQDQwJwCvg5Susb2wnOgghOGFsB0LUBkDT5lRG977O6HxycBoaLc4fBdgHwjeofQdaAOiwSEtgUI2mPOEb1H2PNYZCAMpwDpBiZOGLBIQWhr/OH/3XLaiH7XOGUkVLSF5SAG7xhQEiAaHgcv0UlJaDPaJsf8mZRwnSFa91huQsUlTOBDY8P22O0gPKXxHa11bE1M2QntVqE/UBqgEzOwOu/NdckJNZvQHJJ43pTezhA96Qk1t9IAQnRhuhnCdjCSE2p0QjR6M9wMIT2hlkgYemypCbVUQt9jy0yopRP6HltiQi2dMLhqeQm1dMKZ9IRa2wm1thNqLSfUtJYTjtpOqGktJ9TaTkgCto4QALaNEAK2jJAC2C5CGmCrCKmAbSKkA7aIMAGwNYRJfK0hTAZsCWEKYDsI0wBbQZgK2AbCdMAWEGYAyk+YBSg9YSag7ITZgJIT5gCUmzAPoNSEuQAlJszHJzFhXkBpCXMDykqYH1BSQgZAOQlZAKUkZAKUkZANUEJCRkD5CFkBpSNkBpSMkJ1PMsJRIkZLCIvwSUVYDFAiwoKA8hAWBeRLqFdHWBiQI+H4w6juHhYH5EaoTHTnzxlj4kdYApAX4RxjuP8mN8IygFwIhwtVd/48nPhXEBvhbK8SQA6E+uRDp2xjgIZ3TDuWq4Y5qQKQAyE2KPtuo85xN/j7zYyDZsJjZgxjzp2Py7dUB9vCOFtH4d2FD1IBP91GTtLB6wstDljIinIl7AwX5DkGzu5gZnjVq9t0wk3stFhsjUc87yAHwg54AEez2Nld/axzu65jiIY56/EE5EBI/GywucYOMOMwJFv38UO7DH3KEZAzIepcdHH0alf9PMevbn7HzzU21Dk3wIKEEyqh82e1MT61/zvnEYFfX+Jnk+H1gg9fIUJtYeHuGBAipHjbD4ZFlOU866dV/Hw5+3FsitB2oCaGtxAN4wVGXQ0Yz0C+Jh/HSTOVZqrTtkZFw+N4gSlypuwBcQ6pgY/rJ7wwdMou/rvt3cIH8L9CZ61uLuMlB6sXtRKalqU7W02DB9DfHSXky3GuY4LOiOPG9e24TkKDcmiYszdWnG+gljpo/Yo40lKf1Zee3nS4od3uCKvwASx9ADlZcrqlSk5+wk7nM+TrcCgwUIe3hAPA83oI4QO4II5z7t8WPrA6LlhyCjsAFkKS72hNPID5DsfNJ7LkmNZezYR2hCD4VqUKDNT9gIsDKEgIIgSHAgN0QJy0bphT7oS9Xrh7S/QDwf5uId8NhwIDRZYcbLA7gFRCbb4O9/GMPICFIwS7YOhgdQBphHsWdvY7JflAgWGJEOw6HxAO4IMtdCQTKjMdwxaPtBnxAA6equRzVK7kJBLaGUIHGYJSYK6r5vtEKTmYoeTQCfW1im1KMAQFBaZYhGAXOedgKDl0QpNyaK0dIeorMFCg5OQNHdRdlLQ3cLKiu71uvMColRYYKHLOoedzOfR9oobwASQjBOuMgocKzTmohJD4WK8gQrDrEMw5sktODsIKIwS72EtOJqG7f3ecr/iMgofI0JFVcjIIKTMK3hGCXVdMLiedEA2Bg+EfIdh1wFJy0gidzT2JAlNNhGAXmHOYiaPVZELKELS5AgO1uSQex6TRahIhHIIOXjjOKHjonHQA9JJDJ4QFZtV8gYG6J0vO7Cgnoe1gyFUWEQoMFJxz3OXZY8jZY1/QAgO1yRytAkK7wJAOps4Iwa6sxVWCkDKjqDtCsIssOfHRapyQEpEqn1HwEPmugxlxAFFCNLwjH0AxCwwUKDn6FBJSVlnELTBQiaEjIKx1CFqNzuglxyMkXtRSKx+CViPwPofV8wl3xxzuvqCrBmYUPEQJHfadw9q0iSFoNYKjVfcLy+U9ClFElhyghmcUPESWnHiBEd/B5NETETrCB1DQCFFARMmRv8BAkaNVVbAZBQ8R73NwfY9CFEVGqyVf1BJX/itk8kQIdh3cr/r9VTOrLLXpsPb68j9kmcfHWbANEQAAAABJRU5ErkJggg==;fontStyle=1" parent="1" vertex="1">
                    <mxGeometry x="520" y="2154" width="80" height="80" as="geometry"/>
                </mxCell>
                <mxCell id="mpS9ybs72e7zDFPst3Do-23" style="edgeStyle=orthogonalEdgeStyle;rounded=0;orthogonalLoop=1;jettySize=auto;html=1;dashed=1;" parent="1" source="mpS9ybs72e7zDFPst3Do-18" target="mpS9ybs72e7zDFPst3Do-21" edge="1">
                    <mxGeometry relative="1" as="geometry"/>
                </mxCell>
                <mxCell id="6fZd_GtUx2Gc4gb7Zags-3" style="edgeStyle=orthogonalEdgeStyle;rounded=0;orthogonalLoop=1;jettySize=auto;html=1;dashed=1;" parent="1" source="mpS9ybs72e7zDFPst3Do-18" target="mpS9ybs72e7zDFPst3Do-12" edge="1">
                    <mxGeometry relative="1" as="geometry">
                        <Array as="points">
                            <mxPoint x="940" y="2194"/>
                            <mxPoint x="940" y="2010"/>
                        </Array>
                    </mxGeometry>
                </mxCell>
                <mxCell id="6fZd_GtUx2Gc4gb7Zags-4" value="VERIFY" style="edgeLabel;html=1;align=center;verticalAlign=middle;resizable=0;points=[];" parent="6fZd_GtUx2Gc4gb7Zags-3" connectable="0" vertex="1">
                    <mxGeometry x="0.1197" relative="1" as="geometry">
                        <mxPoint y="11" as="offset"/>
                    </mxGeometry>
                </mxCell>
                <mxCell id="mpS9ybs72e7zDFPst3Do-18" value="Policy Decision Point&#10;PDP" style="shape=image;verticalLabelPosition=bottom;labelBackgroundColor=default;verticalAlign=top;aspect=fixed;imageAspect=0;image=data:image/png,iVBORw0KGgoAAAANSUhEUgAAAOEAAADhCAMAAAAJbSJIAAAAyVBMVEX///8gwu8No8Y5TVQOrNEMlrdj1fQfxfM7REg7QkUJmbs6SlAgO0Q6RUjt7u/o6uomQEgit+EpnsAxfZQmqc4sk7ErmLgqa30mc4gyYG4je5Qui6hl2/s6SE02QEQwRk40x/BX0fPKztA4UlvAxcezubtKzfI0WWQvhJ5PYGbV2NmnrrGMlZl5hIhndHkwxvAzcISbo6Zbwd1Cc4JfzOpLkKRZaG1Qn7WssrVavdhzf4NJiZtGWF5Wr8g2VF5Eeoo7OjlEbHgwX22MRMweAAAL3UlEQVR4nO2da1ubShSFG0CHhKCJJs3NSWqjReOlai/ao6bq//9Rh2uA2cNlYIAZnq6P54k9vBL2XmsPznz69E//9E9RbW4uL282TV9Fddr87q9UddX//bXpK6lGX10+R6v+5VnTV8NfZ5cBn6vWMZ69DFRCA/W86avip3PI5zE+NX1lfPS0ovK5jIOrpq+uvK7URD6XcXXf9BWW0sH9gOAzlksj/l9W/fuDpq+zqA6uByuS78efhx+AcXAtJePBdR/w/X042d8/efgL7+P1YdPXy6rDG5IPe3yOTn7+XWKS8UYqRhrfc8DnMT5Dxv+kMaybW8CHn396fN86nW8BIwaMt1IwUviWET5HAeMvEzIKb8pDe73jM37tx/gijPu/VJNkvBSaEfKZNL4o46P9kfiPCGzKz14IPkNfP/p8XzpAX059xrVOMr4IacrPX/pqAt8phS/GuF3Gf1TE4PEE7Ody+3qSeP8IxpNXizQBggUPYK+NpeXzJd2/HIwrYYLHPRmPjOUsJ5+j7wHjDDKKEDxo8eH91ft6nn7P5gsZ90/+vItnymnx4f0PG5/IjIeU+PDjD7X9ZctnpISrxoIHtNfGLj6csvI58k3AgyDBIy0eMd8/glGE4LH5L9Nel2SkmPIaGTPiUTntgkdz4YoaH3jxRRj3fxmAsY4Vj5zxiA8jCB7Vr3gQqw+2dPWRN5+jLwEjJXhUyHgG44OaEo94MYLgUVW4Oof2evuYHR9KMKaY8goYQTzKHx8qYVQ5B4+rcvGhuHbBAxjWwYBj8KDEo/eAj8Fel2GkmXI7XHEx5XY84hIfODBWsuJBX13x20MtfK6C4EFb8SjFSItHpeJDcVUSPKjxgac9K8RIWw0oxnhYVXzgwMgjXFUaH0oz0kw5W/Cg8XGND5Uw5g8elNUHlXt8KM/4qOogeORi3JB8hllNfCiuiCkHqzrZ39WvgC9r9aEJBYYVrnj0s7LVQdyfVR0fisu/j9CU9zMcwPUqxld9fCiuhOCxukknjPHVEx+K6ws1eKzyfkmN+uJDcYWmPERM/5pGH0OvwIjM58hltG/jOiRMtXBRQqw+nojO5+j76clrtKTmJ1RVff0ZoaYBsoSQYsVaRk5Cy/NEpqWIzYjQaOZZm6XFRGgoi63LaHRnI4EZ0XDS9fjWjycGG6GiXKx9xokmKCIa3nn3DxtOWWQmVJS54TPeDQVkRJ1j3b0+bHq5oAChokwN73fUPRaNEXUuTJ/v2fPN33ARQpvR/x7gi45AjAgt/O9XMFex+1pBQqU38RnNhSiMCH323vgzlj9+hr6rKKEy2vMZTXUsQllF6Gire3zvD9HcU5hQUbQ9v+eY66OmGe0GaPkN0J9L73JBCUJbY0v3LUCj7THS4LevZG4tR6hoIlgAuwEGDd4PPtG5SknCiAXQJ820DjQMCrv6CPl4ENqManMWwG7wfgPE/uCPnIvxIFSUY68N1W4BUGcR8D3T+XgR2hbArN8CIDT2vz3BwgItuPIiVJQJ9hlrsgCRBv83mY8n4c7mmGoNCdlu8JZJa/BVEjoWwPuu6lVbANjgkwe3PAmV0ALoVVoAhLRdggcNvmpCZbTw3WF1FiC9wVdOqESnAFW0jqwG3yHrXAWEijIPLMCUN2N2g0edUQ2Eu0mHbQF4to4wwQcN/pT8BDpavx3F/pcVEVZhAXI0eDdjmJ/rIYxYgDEPxhwN3ilBWLXqIwwtQPkheWKCj3zEeUTxpDfp1kcYTgH0bSkLkJLgw4+MsWnOxr16Ce326FsAQy/eHvM0eOcWY2vR6+3VTchhCpCnwaOjN7ye23x7DRAq5SxAdoN3PzXWZy5fQ4SRhQBGCxBpgAkNPiDsTmzAnqI0RRi1APkZwwRvJjT4GGFP0bQGCdkXAiINPmiA8FcQEk41R40Ssk0BEkb0sY8Mx0PBCPNPAaIJPrEBLnB3gQQjDKcAqQsBuRr8kWoaWDxCJcdCgDOi76Y3ePdXgLczU0hCZbSw0qYAORq8s0yPjWlvqotJqKQtBOwavJnY4N1lbDzZ64lMmLQQEK7B48ekBm87bGx+jB0HKjThbtIRsQDQwJwCvg5Susb2wnOgghOGFsB0LUBkDT5lRG977O6HxycBoaLc4fBdgHwjeofQdaAOiwSEtgUI2mPOEb1H2PNYZCAMpwDpBiZOGLBIQWhr/OH/3XLaiH7XOGUkVLSF5SAG7xhQEiAaHgcv0UlJaDPaJsf8mZRwnSFa91huQsUlTOBDY8P22O0gPKXxHa11bE1M2QntVqE/UBqgEzOwOu/NdckJNZvQHJJ43pTezhA96Qk1t9IAQnRhuhnCdjCSE2p0QjR6M9wMIT2hlkgYemypCbVUQt9jy0yopRP6HltiQi2dMLhqeQm1dMKZ9IRa2wm1thNqLSfUtJYTjtpOqGktJ9TaTkgCto4QALaNEAK2jJAC2C5CGmCrCKmAbSKkA7aIMAGwNYRJfK0hTAZsCWEKYDsI0wBbQZgK2AbCdMAWEGYAyk+YBSg9YSag7ITZgJIT5gCUmzAPoNSEuQAlJszHJzFhXkBpCXMDykqYH1BSQgZAOQlZAKUkZAKUkZANUEJCRkD5CFkBpSNkBpSMkJ1PMsJRIkZLCIvwSUVYDFAiwoKA8hAWBeRLqFdHWBiQI+H4w6juHhYH5EaoTHTnzxlj4kdYApAX4RxjuP8mN8IygFwIhwtVd/48nPhXEBvhbK8SQA6E+uRDp2xjgIZ3TDuWq4Y5qQKQAyE2KPtuo85xN/j7zYyDZsJjZgxjzp2Py7dUB9vCOFtH4d2FD1IBP91GTtLB6wstDljIinIl7AwX5DkGzu5gZnjVq9t0wk3stFhsjUc87yAHwg54AEez2Nld/axzu65jiIY56/EE5EBI/GywucYOMOMwJFv38UO7DH3KEZAzIepcdHH0alf9PMevbn7HzzU21Dk3wIKEEyqh82e1MT61/zvnEYFfX+Jnk+H1gg9fIUJtYeHuGBAipHjbD4ZFlOU866dV/Hw5+3FsitB2oCaGtxAN4wVGXQ0Yz0C+Jh/HSTOVZqrTtkZFw+N4gSlypuwBcQ6pgY/rJ7wwdMou/rvt3cIH8L9CZ61uLuMlB6sXtRKalqU7W02DB9DfHSXky3GuY4LOiOPG9e24TkKDcmiYszdWnG+gljpo/Yo40lKf1Zee3nS4od3uCKvwASx9ADlZcrqlSk5+wk7nM+TrcCgwUIe3hAPA83oI4QO4II5z7t8WPrA6LlhyCjsAFkKS72hNPID5DsfNJ7LkmNZezYR2hCD4VqUKDNT9gIsDKEgIIgSHAgN0QJy0bphT7oS9Xrh7S/QDwf5uId8NhwIDRZYcbLA7gFRCbb4O9/GMPICFIwS7YOhgdQBphHsWdvY7JflAgWGJEOw6HxAO4IMtdCQTKjMdwxaPtBnxAA6equRzVK7kJBLaGUIHGYJSYK6r5vtEKTmYoeTQCfW1im1KMAQFBaZYhGAXOedgKDl0QpNyaK0dIeorMFCg5OQNHdRdlLQ3cLKiu71uvMColRYYKHLOoedzOfR9oobwASQjBOuMgocKzTmohJD4WK8gQrDrEMw5sktODsIKIwS72EtOJqG7f3ecr/iMgofI0JFVcjIIKTMK3hGCXVdMLiedEA2Bg+EfIdh1wFJy0gidzT2JAlNNhGAXmHOYiaPVZELKELS5AgO1uSQex6TRahIhHIIOXjjOKHjonHQA9JJDJ4QFZtV8gYG6J0vO7Cgnoe1gyFUWEQoMFJxz3OXZY8jZY1/QAgO1yRytAkK7wJAOps4Iwa6sxVWCkDKjqDtCsIssOfHRapyQEpEqn1HwEPmugxlxAFFCNLwjH0AxCwwUKDn6FBJSVlnELTBQiaEjIKx1CFqNzuglxyMkXtRSKx+CViPwPofV8wl3xxzuvqCrBmYUPEQJHfadw9q0iSFoNYKjVfcLy+U9ClFElhyghmcUPESWnHiBEd/B5NETETrCB1DQCFFARMmRv8BAkaNVVbAZBQ8R73NwfY9CFEVGqyVf1BJX/itk8kQIdh3cr/r9VTOrLLXpsPb68j9kmcfHWbANEQAAAABJRU5ErkJggg==;fontStyle=1" parent="1" vertex="1">
                    <mxGeometry x="840" y="2154" width="80" height="80" as="geometry"/>
                </mxCell>
                <mxCell id="m87Iy4fhEUd9yukCPAGf-2" style="edgeStyle=orthogonalEdgeStyle;rounded=0;orthogonalLoop=1;jettySize=auto;html=1;dashed=1;" parent="1" source="mpS9ybs72e7zDFPst3Do-21" target="KT-hONqqI3Kisu6cMs6b-1" edge="1">
                    <mxGeometry relative="1" as="geometry">
                        <mxPoint x="1260" y="2140" as="targetPoint"/>
                    </mxGeometry>
                </mxCell>
                <mxCell id="mpS9ybs72e7zDFPst3Do-21" value="Policy Administration Point&#10;PAP" style="shape=image;verticalLabelPosition=bottom;labelBackgroundColor=default;verticalAlign=top;aspect=fixed;imageAspect=0;image=data:image/png,iVBORw0KGgoAAAANSUhEUgAAAOEAAADhCAMAAAAJbSJIAAAAyVBMVEX///8gwu8No8Y5TVQOrNEMlrdj1fQfxfM7REg7QkUJmbs6SlAgO0Q6RUjt7u/o6uomQEgit+EpnsAxfZQmqc4sk7ErmLgqa30mc4gyYG4je5Qui6hl2/s6SE02QEQwRk40x/BX0fPKztA4UlvAxcezubtKzfI0WWQvhJ5PYGbV2NmnrrGMlZl5hIhndHkwxvAzcISbo6Zbwd1Cc4JfzOpLkKRZaG1Qn7WssrVavdhzf4NJiZtGWF5Wr8g2VF5Eeoo7OjlEbHgwX22MRMweAAAL3UlEQVR4nO2da1ubShSFG0CHhKCJJs3NSWqjReOlai/ao6bq//9Rh2uA2cNlYIAZnq6P54k9vBL2XmsPznz69E//9E9RbW4uL282TV9Fddr87q9UddX//bXpK6lGX10+R6v+5VnTV8NfZ5cBn6vWMZ69DFRCA/W86avip3PI5zE+NX1lfPS0ovK5jIOrpq+uvK7URD6XcXXf9BWW0sH9gOAzlksj/l9W/fuDpq+zqA6uByuS78efhx+AcXAtJePBdR/w/X042d8/efgL7+P1YdPXy6rDG5IPe3yOTn7+XWKS8UYqRhrfc8DnMT5Dxv+kMaybW8CHn396fN86nW8BIwaMt1IwUviWET5HAeMvEzIKb8pDe73jM37tx/gijPu/VJNkvBSaEfKZNL4o46P9kfiPCGzKz14IPkNfP/p8XzpAX059xrVOMr4IacrPX/pqAt8phS/GuF3Gf1TE4PEE7Ody+3qSeP8IxpNXizQBggUPYK+NpeXzJd2/HIwrYYLHPRmPjOUsJ5+j7wHjDDKKEDxo8eH91ft6nn7P5gsZ90/+vItnymnx4f0PG5/IjIeU+PDjD7X9ZctnpISrxoIHtNfGLj6csvI58k3AgyDBIy0eMd8/glGE4LH5L9Nel2SkmPIaGTPiUTntgkdz4YoaH3jxRRj3fxmAsY4Vj5zxiA8jCB7Vr3gQqw+2dPWRN5+jLwEjJXhUyHgG44OaEo94MYLgUVW4Oof2evuYHR9KMKaY8goYQTzKHx8qYVQ5B4+rcvGhuHbBAxjWwYBj8KDEo/eAj8Fel2GkmXI7XHEx5XY84hIfODBWsuJBX13x20MtfK6C4EFb8SjFSItHpeJDcVUSPKjxgac9K8RIWw0oxnhYVXzgwMgjXFUaH0oz0kw5W/Cg8XGND5Uw5g8elNUHlXt8KM/4qOogeORi3JB8hllNfCiuiCkHqzrZ39WvgC9r9aEJBYYVrnj0s7LVQdyfVR0fisu/j9CU9zMcwPUqxld9fCiuhOCxukknjPHVEx+K6ws1eKzyfkmN+uJDcYWmPERM/5pGH0OvwIjM58hltG/jOiRMtXBRQqw+nojO5+j76clrtKTmJ1RVff0ZoaYBsoSQYsVaRk5Cy/NEpqWIzYjQaOZZm6XFRGgoi63LaHRnI4EZ0XDS9fjWjycGG6GiXKx9xokmKCIa3nn3DxtOWWQmVJS54TPeDQVkRJ1j3b0+bHq5oAChokwN73fUPRaNEXUuTJ/v2fPN33ARQpvR/x7gi45AjAgt/O9XMFex+1pBQqU38RnNhSiMCH323vgzlj9+hr6rKKEy2vMZTXUsQllF6Gire3zvD9HcU5hQUbQ9v+eY66OmGe0GaPkN0J9L73JBCUJbY0v3LUCj7THS4LevZG4tR6hoIlgAuwEGDd4PPtG5SknCiAXQJ820DjQMCrv6CPl4ENqManMWwG7wfgPE/uCPnIvxIFSUY68N1W4BUGcR8D3T+XgR2hbArN8CIDT2vz3BwgItuPIiVJQJ9hlrsgCRBv83mY8n4c7mmGoNCdlu8JZJa/BVEjoWwPuu6lVbANjgkwe3PAmV0ALoVVoAhLRdggcNvmpCZbTw3WF1FiC9wVdOqESnAFW0jqwG3yHrXAWEijIPLMCUN2N2g0edUQ2Eu0mHbQF4to4wwQcN/pT8BDpavx3F/pcVEVZhAXI0eDdjmJ/rIYxYgDEPxhwN3ilBWLXqIwwtQPkheWKCj3zEeUTxpDfp1kcYTgH0bSkLkJLgw4+MsWnOxr16Ce326FsAQy/eHvM0eOcWY2vR6+3VTchhCpCnwaOjN7ye23x7DRAq5SxAdoN3PzXWZy5fQ4SRhQBGCxBpgAkNPiDsTmzAnqI0RRi1APkZwwRvJjT4GGFP0bQGCdkXAiINPmiA8FcQEk41R40Ssk0BEkb0sY8Mx0PBCPNPAaIJPrEBLnB3gQQjDKcAqQsBuRr8kWoaWDxCJcdCgDOi76Y3ePdXgLczU0hCZbSw0qYAORq8s0yPjWlvqotJqKQtBOwavJnY4N1lbDzZ64lMmLQQEK7B48ekBm87bGx+jB0HKjThbtIRsQDQwJwCvg5Susb2wnOgghOGFsB0LUBkDT5lRG977O6HxycBoaLc4fBdgHwjeofQdaAOiwSEtgUI2mPOEb1H2PNYZCAMpwDpBiZOGLBIQWhr/OH/3XLaiH7XOGUkVLSF5SAG7xhQEiAaHgcv0UlJaDPaJsf8mZRwnSFa91huQsUlTOBDY8P22O0gPKXxHa11bE1M2QntVqE/UBqgEzOwOu/NdckJNZvQHJJ43pTezhA96Qk1t9IAQnRhuhnCdjCSE2p0QjR6M9wMIT2hlkgYemypCbVUQt9jy0yopRP6HltiQi2dMLhqeQm1dMKZ9IRa2wm1thNqLSfUtJYTjtpOqGktJ9TaTkgCto4QALaNEAK2jJAC2C5CGmCrCKmAbSKkA7aIMAGwNYRJfK0hTAZsCWEKYDsI0wBbQZgK2AbCdMAWEGYAyk+YBSg9YSag7ITZgJIT5gCUmzAPoNSEuQAlJszHJzFhXkBpCXMDykqYH1BSQgZAOQlZAKUkZAKUkZANUEJCRkD5CFkBpSNkBpSMkJ1PMsJRIkZLCIvwSUVYDFAiwoKA8hAWBeRLqFdHWBiQI+H4w6juHhYH5EaoTHTnzxlj4kdYApAX4RxjuP8mN8IygFwIhwtVd/48nPhXEBvhbK8SQA6E+uRDp2xjgIZ3TDuWq4Y5qQKQAyE2KPtuo85xN/j7zYyDZsJjZgxjzp2Py7dUB9vCOFtH4d2FD1IBP91GTtLB6wstDljIinIl7AwX5DkGzu5gZnjVq9t0wk3stFhsjUc87yAHwg54AEez2Nld/axzu65jiIY56/EE5EBI/GywucYOMOMwJFv38UO7DH3KEZAzIepcdHH0alf9PMevbn7HzzU21Dk3wIKEEyqh82e1MT61/zvnEYFfX+Jnk+H1gg9fIUJtYeHuGBAipHjbD4ZFlOU866dV/Hw5+3FsitB2oCaGtxAN4wVGXQ0Yz0C+Jh/HSTOVZqrTtkZFw+N4gSlypuwBcQ6pgY/rJ7wwdMou/rvt3cIH8L9CZ61uLuMlB6sXtRKalqU7W02DB9DfHSXky3GuY4LOiOPG9e24TkKDcmiYszdWnG+gljpo/Yo40lKf1Zee3nS4od3uCKvwASx9ADlZcrqlSk5+wk7nM+TrcCgwUIe3hAPA83oI4QO4II5z7t8WPrA6LlhyCjsAFkKS72hNPID5DsfNJ7LkmNZezYR2hCD4VqUKDNT9gIsDKEgIIgSHAgN0QJy0bphT7oS9Xrh7S/QDwf5uId8NhwIDRZYcbLA7gFRCbb4O9/GMPICFIwS7YOhgdQBphHsWdvY7JflAgWGJEOw6HxAO4IMtdCQTKjMdwxaPtBnxAA6equRzVK7kJBLaGUIHGYJSYK6r5vtEKTmYoeTQCfW1im1KMAQFBaZYhGAXOedgKDl0QpNyaK0dIeorMFCg5OQNHdRdlLQ3cLKiu71uvMColRYYKHLOoedzOfR9oobwASQjBOuMgocKzTmohJD4WK8gQrDrEMw5sktODsIKIwS72EtOJqG7f3ecr/iMgofI0JFVcjIIKTMK3hGCXVdMLiedEA2Bg+EfIdh1wFJy0gidzT2JAlNNhGAXmHOYiaPVZELKELS5AgO1uSQex6TRahIhHIIOXjjOKHjonHQA9JJDJ4QFZtV8gYG6J0vO7Cgnoe1gyFUWEQoMFJxz3OXZY8jZY1/QAgO1yRytAkK7wJAOps4Iwa6sxVWCkDKjqDtCsIssOfHRapyQEpEqn1HwEPmugxlxAFFCNLwjH0AxCwwUKDn6FBJSVlnELTBQiaEjIKx1CFqNzuglxyMkXtRSKx+CViPwPofV8wl3xxzuvqCrBmYUPEQJHfadw9q0iSFoNYKjVfcLy+U9ClFElhyghmcUPESWnHiBEd/B5NETETrCB1DQCFFARMmRv8BAkaNVVbAZBQ8R73NwfY9CFEVGqyVf1BJX/itk8kQIdh3cr/r9VTOrLLXpsPb68j9kmcfHWbANEQAAAABJRU5ErkJggg==;fontStyle=1" parent="1" vertex="1">
                    <mxGeometry x="1040" y="2154" width="80" height="80" as="geometry"/>
                </mxCell>
                <mxCell id="KT-hONqqI3Kisu6cMs6b-5" style="edgeStyle=orthogonalEdgeStyle;rounded=0;orthogonalLoop=1;jettySize=auto;html=1;entryX=0;entryY=0.5;entryDx=0;entryDy=0;dashed=1;" parent="1" source="mpS9ybs72e7zDFPst3Do-24" target="KT-hONqqI3Kisu6cMs6b-4" edge="1">
                    <mxGeometry relative="1" as="geometry"/>
                </mxCell>
                <mxCell id="mpS9ybs72e7zDFPst3Do-24" value="Account Administration Point&#10;AAP" style="shape=image;verticalLabelPosition=bottom;labelBackgroundColor=default;verticalAlign=top;aspect=fixed;imageAspect=0;image=data:image/png,iVBORw0KGgoAAAANSUhEUgAAAOEAAADhCAMAAAAJbSJIAAAAyVBMVEX///8gwu8No8Y5TVQOrNEMlrdj1fQfxfM7REg7QkUJmbs6SlAgO0Q6RUjt7u/o6uomQEgit+EpnsAxfZQmqc4sk7ErmLgqa30mc4gyYG4je5Qui6hl2/s6SE02QEQwRk40x/BX0fPKztA4UlvAxcezubtKzfI0WWQvhJ5PYGbV2NmnrrGMlZl5hIhndHkwxvAzcISbo6Zbwd1Cc4JfzOpLkKRZaG1Qn7WssrVavdhzf4NJiZtGWF5Wr8g2VF5Eeoo7OjlEbHgwX22MRMweAAAL3UlEQVR4nO2da1ubShSFG0CHhKCJJs3NSWqjReOlai/ao6bq//9Rh2uA2cNlYIAZnq6P54k9vBL2XmsPznz69E//9E9RbW4uL282TV9Fddr87q9UddX//bXpK6lGX10+R6v+5VnTV8NfZ5cBn6vWMZ69DFRCA/W86avip3PI5zE+NX1lfPS0ovK5jIOrpq+uvK7URD6XcXXf9BWW0sH9gOAzlksj/l9W/fuDpq+zqA6uByuS78efhx+AcXAtJePBdR/w/X042d8/efgL7+P1YdPXy6rDG5IPe3yOTn7+XWKS8UYqRhrfc8DnMT5Dxv+kMaybW8CHn396fN86nW8BIwaMt1IwUviWET5HAeMvEzIKb8pDe73jM37tx/gijPu/VJNkvBSaEfKZNL4o46P9kfiPCGzKz14IPkNfP/p8XzpAX059xrVOMr4IacrPX/pqAt8phS/GuF3Gf1TE4PEE7Ody+3qSeP8IxpNXizQBggUPYK+NpeXzJd2/HIwrYYLHPRmPjOUsJ5+j7wHjDDKKEDxo8eH91ft6nn7P5gsZ90/+vItnymnx4f0PG5/IjIeU+PDjD7X9ZctnpISrxoIHtNfGLj6csvI58k3AgyDBIy0eMd8/glGE4LH5L9Nel2SkmPIaGTPiUTntgkdz4YoaH3jxRRj3fxmAsY4Vj5zxiA8jCB7Vr3gQqw+2dPWRN5+jLwEjJXhUyHgG44OaEo94MYLgUVW4Oof2evuYHR9KMKaY8goYQTzKHx8qYVQ5B4+rcvGhuHbBAxjWwYBj8KDEo/eAj8Fel2GkmXI7XHEx5XY84hIfODBWsuJBX13x20MtfK6C4EFb8SjFSItHpeJDcVUSPKjxgac9K8RIWw0oxnhYVXzgwMgjXFUaH0oz0kw5W/Cg8XGND5Uw5g8elNUHlXt8KM/4qOogeORi3JB8hllNfCiuiCkHqzrZ39WvgC9r9aEJBYYVrnj0s7LVQdyfVR0fisu/j9CU9zMcwPUqxld9fCiuhOCxukknjPHVEx+K6ws1eKzyfkmN+uJDcYWmPERM/5pGH0OvwIjM58hltG/jOiRMtXBRQqw+nojO5+j76clrtKTmJ1RVff0ZoaYBsoSQYsVaRk5Cy/NEpqWIzYjQaOZZm6XFRGgoi63LaHRnI4EZ0XDS9fjWjycGG6GiXKx9xokmKCIa3nn3DxtOWWQmVJS54TPeDQVkRJ1j3b0+bHq5oAChokwN73fUPRaNEXUuTJ/v2fPN33ARQpvR/x7gi45AjAgt/O9XMFex+1pBQqU38RnNhSiMCH323vgzlj9+hr6rKKEy2vMZTXUsQllF6Gire3zvD9HcU5hQUbQ9v+eY66OmGe0GaPkN0J9L73JBCUJbY0v3LUCj7THS4LevZG4tR6hoIlgAuwEGDd4PPtG5SknCiAXQJ820DjQMCrv6CPl4ENqManMWwG7wfgPE/uCPnIvxIFSUY68N1W4BUGcR8D3T+XgR2hbArN8CIDT2vz3BwgItuPIiVJQJ9hlrsgCRBv83mY8n4c7mmGoNCdlu8JZJa/BVEjoWwPuu6lVbANjgkwe3PAmV0ALoVVoAhLRdggcNvmpCZbTw3WF1FiC9wVdOqESnAFW0jqwG3yHrXAWEijIPLMCUN2N2g0edUQ2Eu0mHbQF4to4wwQcN/pT8BDpavx3F/pcVEVZhAXI0eDdjmJ/rIYxYgDEPxhwN3ilBWLXqIwwtQPkheWKCj3zEeUTxpDfp1kcYTgH0bSkLkJLgw4+MsWnOxr16Ce326FsAQy/eHvM0eOcWY2vR6+3VTchhCpCnwaOjN7ye23x7DRAq5SxAdoN3PzXWZy5fQ4SRhQBGCxBpgAkNPiDsTmzAnqI0RRi1APkZwwRvJjT4GGFP0bQGCdkXAiINPmiA8FcQEk41R40Ssk0BEkb0sY8Mx0PBCPNPAaIJPrEBLnB3gQQjDKcAqQsBuRr8kWoaWDxCJcdCgDOi76Y3ePdXgLczU0hCZbSw0qYAORq8s0yPjWlvqotJqKQtBOwavJnY4N1lbDzZ64lMmLQQEK7B48ekBm87bGx+jB0HKjThbtIRsQDQwJwCvg5Susb2wnOgghOGFsB0LUBkDT5lRG977O6HxycBoaLc4fBdgHwjeofQdaAOiwSEtgUI2mPOEb1H2PNYZCAMpwDpBiZOGLBIQWhr/OH/3XLaiH7XOGUkVLSF5SAG7xhQEiAaHgcv0UlJaDPaJsf8mZRwnSFa91huQsUlTOBDY8P22O0gPKXxHa11bE1M2QntVqE/UBqgEzOwOu/NdckJNZvQHJJ43pTezhA96Qk1t9IAQnRhuhnCdjCSE2p0QjR6M9wMIT2hlkgYemypCbVUQt9jy0yopRP6HltiQi2dMLhqeQm1dMKZ9IRa2wm1thNqLSfUtJYTjtpOqGktJ9TaTkgCto4QALaNEAK2jJAC2C5CGmCrCKmAbSKkA7aIMAGwNYRJfK0hTAZsCWEKYDsI0wBbQZgK2AbCdMAWEGYAyk+YBSg9YSag7ITZgJIT5gCUmzAPoNSEuQAlJszHJzFhXkBpCXMDykqYH1BSQgZAOQlZAKUkZAKUkZANUEJCRkD5CFkBpSNkBpSMkJ1PMsJRIkZLCIvwSUVYDFAiwoKA8hAWBeRLqFdHWBiQI+H4w6juHhYH5EaoTHTnzxlj4kdYApAX4RxjuP8mN8IygFwIhwtVd/48nPhXEBvhbK8SQA6E+uRDp2xjgIZ3TDuWq4Y5qQKQAyE2KPtuo85xN/j7zYyDZsJjZgxjzp2Py7dUB9vCOFtH4d2FD1IBP91GTtLB6wstDljIinIl7AwX5DkGzu5gZnjVq9t0wk3stFhsjUc87yAHwg54AEez2Nld/axzu65jiIY56/EE5EBI/GywucYOMOMwJFv38UO7DH3KEZAzIepcdHH0alf9PMevbn7HzzU21Dk3wIKEEyqh82e1MT61/zvnEYFfX+Jnk+H1gg9fIUJtYeHuGBAipHjbD4ZFlOU866dV/Hw5+3FsitB2oCaGtxAN4wVGXQ0Yz0C+Jh/HSTOVZqrTtkZFw+N4gSlypuwBcQ6pgY/rJ7wwdMou/rvt3cIH8L9CZ61uLuMlB6sXtRKalqU7W02DB9DfHSXky3GuY4LOiOPG9e24TkKDcmiYszdWnG+gljpo/Yo40lKf1Zee3nS4od3uCKvwASx9ADlZcrqlSk5+wk7nM+TrcCgwUIe3hAPA83oI4QO4II5z7t8WPrA6LlhyCjsAFkKS72hNPID5DsfNJ7LkmNZezYR2hCD4VqUKDNT9gIsDKEgIIgSHAgN0QJy0bphT7oS9Xrh7S/QDwf5uId8NhwIDRZYcbLA7gFRCbb4O9/GMPICFIwS7YOhgdQBphHsWdvY7JflAgWGJEOw6HxAO4IMtdCQTKjMdwxaPtBnxAA6equRzVK7kJBLaGUIHGYJSYK6r5vtEKTmYoeTQCfW1im1KMAQFBaZYhGAXOedgKDl0QpNyaK0dIeorMFCg5OQNHdRdlLQ3cLKiu71uvMColRYYKHLOoedzOfR9oobwASQjBOuMgocKzTmohJD4WK8gQrDrEMw5sktODsIKIwS72EtOJqG7f3ecr/iMgofI0JFVcjIIKTMK3hGCXVdMLiedEA2Bg+EfIdh1wFJy0gidzT2JAlNNhGAXmHOYiaPVZELKELS5AgO1uSQex6TRahIhHIIOXjjOKHjonHQA9JJDJ4QFZtV8gYG6J0vO7Cgnoe1gyFUWEQoMFJxz3OXZY8jZY1/QAgO1yRytAkK7wJAOps4Iwa6sxVWCkDKjqDtCsIssOfHRapyQEpEqn1HwEPmugxlxAFFCNLwjH0AxCwwUKDn6FBJSVlnELTBQiaEjIKx1CFqNzuglxyMkXtRSKx+CViPwPofV8wl3xxzuvqCrBmYUPEQJHfadw9q0iSFoNYKjVfcLy+U9ClFElhyghmcUPESWnHiBEd/B5NETETrCB1DQCFFARMmRv8BAkaNVVbAZBQ8R73NwfY9CFEVGqyVf1BJX/itk8kQIdh3cr/r9VTOrLLXpsPb68j9kmcfHWbANEQAAAABJRU5ErkJggg==;fontStyle=1" parent="1" vertex="1">
                    <mxGeometry x="1045" y="2030" width="80" height="80" as="geometry"/>
                </mxCell>
                <mxCell id="mpS9ybs72e7zDFPst3Do-25" value="" style="image;html=1;image=img/lib/clip_art/computers/Database_128x128.png" parent="1" vertex="1">
                    <mxGeometry x="1290" y="2030" width="80" height="80" as="geometry"/>
                </mxCell>
                <mxCell id="KT-hONqqI3Kisu6cMs6b-6" style="edgeStyle=orthogonalEdgeStyle;rounded=0;orthogonalLoop=1;jettySize=auto;html=1;entryX=0.5;entryY=1;entryDx=0;entryDy=0;dashed=1;" parent="1" source="KT-hONqqI3Kisu6cMs6b-1" target="mpS9ybs72e7zDFPst3Do-25" edge="1">
                    <mxGeometry relative="1" as="geometry"/>
                </mxCell>
                <mxCell id="KT-hONqqI3Kisu6cMs6b-1" value="&lt;b&gt;Data Store Plugin&lt;/b&gt;" style="shape=image;html=1;verticalAlign=top;verticalLabelPosition=bottom;labelBackgroundColor=#ffffff;imageAspect=0;aspect=fixed;image=https://cdn3.iconfinder.com/data/icons/energy-and-power-glyph-24-px/24/Electrical_plug_plug_plug_connector_plug_in_power_plug-128.png" parent="1" vertex="1">
                    <mxGeometry x="1210" y="2174" width="40" height="40" as="geometry"/>
                </mxCell>
                <mxCell id="KT-hONqqI3Kisu6cMs6b-7" style="edgeStyle=orthogonalEdgeStyle;rounded=0;orthogonalLoop=1;jettySize=auto;html=1;dashed=1;" parent="1" source="KT-hONqqI3Kisu6cMs6b-4" target="mpS9ybs72e7zDFPst3Do-25" edge="1">
                    <mxGeometry relative="1" as="geometry"/>
                </mxCell>
                <mxCell id="KT-hONqqI3Kisu6cMs6b-4" value="&lt;b&gt;Data Store Plugin&lt;/b&gt;" style="shape=image;html=1;verticalAlign=top;verticalLabelPosition=bottom;labelBackgroundColor=#ffffff;imageAspect=0;aspect=fixed;image=https://cdn3.iconfinder.com/data/icons/energy-and-power-glyph-24-px/24/Electrical_plug_plug_plug_connector_plug_in_power_plug-128.png" parent="1" vertex="1">
                    <mxGeometry x="1190" y="2050" width="40" height="40" as="geometry"/>
                </mxCell>
                <mxCell id="KT-hONqqI3Kisu6cMs6b-10" style="edgeStyle=orthogonalEdgeStyle;rounded=0;orthogonalLoop=1;jettySize=auto;html=1;dashed=1;" parent="1" source="KT-hONqqI3Kisu6cMs6b-8" target="mpS9ybs72e7zDFPst3Do-25" edge="1">
                    <mxGeometry relative="1" as="geometry"/>
                </mxCell>
                <mxCell id="KT-hONqqI3Kisu6cMs6b-8" value="&lt;b&gt;Data Store Plugin&lt;/b&gt;" style="shape=image;html=1;verticalAlign=top;verticalLabelPosition=bottom;labelBackgroundColor=#ffffff;imageAspect=0;aspect=fixed;image=https://cdn3.iconfinder.com/data/icons/energy-and-power-glyph-24-px/24/Electrical_plug_plug_plug_connector_plug_in_power_plug-128.png" parent="1" vertex="1">
                    <mxGeometry x="1005" y="1953" width="40" height="40" as="geometry"/>
                </mxCell>
            </root>
        </mxGraphModel>
    </diagram>
</mxfile>
